<?xml version="1.0" encoding="UTF-8"?>
<!-- Generated by jsxcad -->
<!DOCTYPE svg PUBLIC "-//W3C//DTD SVG 1.1 Tiny//EN" "http://www.w3.org/Graphics/SVG/1.1/DTD/svg11-tiny.dtd">
<svg viewBox="-250 -250 500 500" width="500" height="500" xmlns="http://www.w3.org/2000/svg"><path d="M-127.47047812517867,-45.143684063207296L-148.44064680144334,163.76476692463112L-123.50363442779991,-38.647070102256514z" style="fill:rgb(247,158,158)"/><path d="M-137.73825444037016,-42.296609644131294L-153.39472842042824,157.41187303253213L-127.47047812517867,-45.143684063207296z" style="fill:rgb(83,212,212)"/><path d="M-105.03751983706591,-51.36395719591724L-121.7530235624951,157.75521276866397L-101.18297374689521,-44.792980391823356zM-118.62220678323665,-20.971347911443218L-129.92673672720952,123.00699604213919L-114.58815790052371,-14.424324872717317z" style="fill:rgb(247,158,158)"/><path d="M-115.42301579069093,-48.484238665545405L-126.54679580221234,151.31471305400706L-105.03751983706591,-51.36395719591724z" style="fill:rgb(83,212,212)"/><path d="M-82.34625587500845,-57.65585152366494L-94.69746379942819,151.66280372964883L-78.60687259605896,-51.00922774639309z" style="fill:rgb(247,158,158)"/><path d="M-92.85152598373794,-54.7429196729733L-99.3259783446746,145.13287349603192L-82.34625587500845,-57.65585152366494z" style="fill:rgb(83,212,212)"/><path d="M-108.39188737157836,110.34434815733934L-91.52626185163196,-20.617858997268833L-95.44028979031819,-27.24214901145659zM-71.98310381674945,-33.587411277456575L-77.44264803790888,110.69824770721009L-68.19222924129356,-26.88447831338411zM-71.7244642510928,138.86457719559488L-55.77090246272653,-57.297022032160115L-59.39220829473498,-64.02060662257841z" style="fill:rgb(247,158,158)"/><path d="M-70.01932724015262,-61.07389275939547L-71.7244642510928,138.86457719559488L-59.39220829473498,-64.02060662257841z" style="fill:rgb(83,212,212)"/><path d="M-36.170787931803986,-70.45950474539217L-39.451619671898946,139.22247042865214L-32.67056201085125,-63.65761484298263z" style="fill:rgb(247,158,158)"/><path d="M-46.92188990580951,-67.47841247302014L-43.73421463911493,132.50799918785486L-36.170787931803986,-70.45950474539217z" style="fill:rgb(83,212,212)"/><path d="M-54.88181448476866,97.6915612512506L-44.58122369351446,-33.225479104322595L-48.24573052263484,-40.00846376594902zM-15.34695684233329,126.06127095538034L-9.301231197083416,-70.09226790871567L-12.677294501286285,-76.97383900087823z" style="fill:rgb(247,158,158)"/><path d="M-23.554556853365252,-73.95776441997891L-15.34695684233329,126.06127095538034L-12.677294501286285,-76.97383900087823z" style="fill:rgb(83,212,212)"/><path d="M-27.577732543155726,91.23533750965208L-20.68829004464819,-39.64219417305745L-24.223111177568693,-46.506673257368924zM13.445818552411033,119.52243897215178L14.341815477234846,-76.60229282834572L11.093083683823084,-83.56494894711926z" style="fill:rgb(247,158,158)"/><path d="M0.08742342854507376,-80.51327201725559L13.445818552411033,119.52243897215178L11.093083683823084,-83.56494894711926z" style="fill:rgb(83,212,212)"/><path d="M0.10245840787927789,84.69018005761446L3.491660019273279,-46.1359946634989L0.08991978636333602,-53.08344575441663zM35.145270825783314,-90.23420394296959L46.37542631432589,119.89583103637486L38.26341552815216,-83.18901173141586z" style="fill:rgb(247,158,158)"/><path d="M24.008925594599294,-87.14629052409825L42.65286360691437,112.88952744511745L35.145270825783314,-90.23420394296959z" style="fill:rgb(83,212,212)"/><path d="M28.166588450449023,78.0542435275014L27.96382511403955,-52.70827293544543L24.69866455819644,-59.74020948938229zM59.4843035435671,-96.98299722920774L75.80735166056677,113.26831006740822L62.468518501126525,-89.8537973780378zM-129.92673672720952,123.00699604213919L-118.62220678323665,-20.971347911443218L-134.61249592510205,116.54438006845088z" style="fill:rgb(247,158,158)"/><path d="M48.21493241827532,-93.85819804425846L72.28317819004448,106.16049055523462L59.4843035435671,-96.98299722920774z" style="fill:rgb(83,212,212)"/><path d="M56.62269660774469,71.32561459528787L52.73353894512208,-59.36045590663896L49.60854726274717,-66.47842845138602zM-91.52626185163196,-20.617858997268833L-108.39188737157836,110.34434815733934L-103.8593560052463,116.89358323664177zM74.82513736774698,-73.29961649012355L88.80291863514388,71.70978764032549L77.8062534744175,-66.09401922322525z" style="fill:rgb(247,158,158)"/><path d="M88.4165251236003,102.49662163225771L84.11534760215115,-103.81276021539864L72.71055679923386,-100.65040946842775z" style="fill:rgb(83,212,212)"/><path d="M102.34603493282007,99.3332234511393L86.9621966671393,-96.59804113754944L84.11534760215115,-103.81276021539864zM109.0436941611673,-110.72495835824498L135.95961294539885,99.72315490200131L111.74964531799283,-103.42317154851384zM-148.44064680144334,163.76476692463112L-127.47047812517867,-45.143684063207296L-153.39472842042824,157.41187303253213z" style="fill:rgb(247,158,158)"/><path d="M-153.39472842042824,157.41187303253213L-137.73825444037016,-42.296609644131294L-165.66243785874244,160.19786418623158zM118.71622340742344,95.6155621610438L109.0436941611673,-110.72495835824498L97.50101976591685,-107.52437693581005z" style="fill:rgb(83,212,212)"/><path d="M-77.44264803790888,110.69824770721009L-71.98310381674945,-33.587411277456575L-81.81739262073549,104.06064031050269zM114.74417842407632,57.582425532637075L103.18756716414623,-72.91045529077162L100.35412420085828,-80.20530526938482zM-121.7530235624951,157.75521276866397L-105.03751983706591,-51.36395719591724L-126.54679580221234,151.31471305400706zM-44.58122369351446,-33.225479104322595L-54.88181448476866,97.6915612512506L-50.66955389183456,104.41934170618684z" style="fill:rgb(247,158,158)"/><path d="M-126.54679580221234,151.31471305400706L-115.42301579069093,-48.484238665545405L-138.9840108881957,154.13920134975615z" style="fill:rgb(83,212,212)"/><path d="M126.20135992651812,-87.19709035848861L147.3567165849311,57.97755722620141L128.88321847668718,-79.81131403725001zM163.80783139913729,85.3752781191732L136.83617842688622,-110.3306448727204L134.27475406682697,-117.72108407171208z" style="fill:rgb(247,158,158)"/><path d="M122.59168457929586,-114.48157356405794L163.80783139913729,85.3752781191732L134.27475406682697,-117.72108407171208z" style="fill:rgb(83,212,212)"/><path d="M-94.69746379942819,151.66280372964883L-82.34625587500845,-57.65585152366494L-99.3259783446746,145.13287349603192zM-20.68829004464819,-39.64219417305745L-27.577732543155726,91.23533750965208L-23.532818188116863,98.05514117819584z" style="fill:rgb(247,158,158)"/><path d="M-99.3259783446746,145.13287349603192L-92.85152598373794,-54.7429196729733L-111.93625827212372,147.99666164305276z" style="fill:rgb(83,212,212)"/><path d="M-55.77090246272653,-57.297022032160115L-71.7244642510928,138.86457719559488L-67.26628319328843,145.48581364363207zM3.491660019273279,-46.1359946634989L0.10245840787927789,84.69018005761446L3.9750270931255263,91.60390802741686z" style="fill:rgb(247,158,158)"/><path d="M-71.7244642510928,138.86457719559488L-70.01932724015262,-61.07389275939547L-84.51143644906101,141.7684927356031zM-152.4179724352701,-41.60184082677703L175.81027830682442,10.862333967987343L152.8517402502603,-126.51245936591282z" style="fill:rgb(83,212,212)"/><path d="M-39.451619671898946,139.22247042865214L-36.170787931803986,-70.45950474539217L-43.73421463911493,132.50799918785486zM27.96382511403955,-52.70827293544543L28.166588450449023,78.0542435275014L31.861642493442762,85.06384954247345z" style="fill:rgb(247,158,158)"/><path d="M-43.73421463911493,132.50799918785486L-46.92188990580951,-67.47841247302014L-56.70162117023618,135.4529017564677z" style="fill:rgb(83,212,212)"/><path d="M-9.301231197083416,-70.09226790871567L-15.34695684233329,126.06127095538034L-11.245371683376757,132.87096012172188zM52.73353894512208,-59.36045590663896L56.62269660774469,71.32561459528787L60.134909980347835,78.4331070115862z" style="fill:rgb(247,158,158)"/><path d="M-15.34695684233329,126.06127095538034L-23.554556853365252,-73.95776441997891L-28.49863680678391,129.0480117796355z" style="fill:rgb(83,212,212)"/><path d="M-153.0362508801974,91.13428275568458L-143.8207573577949,126.26547100095856L-129.92673672720952,123.00699604213919zM-167.32580729937388,94.62238889915054L-154.54582289074992,121.25773651780625L-148.58718436307888,119.84878613238985z" style="fill:rgb(127,37,217)"/><path d="M14.341815477234846,-76.60229282834572L13.445818552411033,119.52243897215178L17.36078841060044,126.42938672148274zM175.81027830682442,10.862333967987343L164.99170737857477,-89.50865711181292L152.8517402502603,-126.51245936591282z" style="fill:rgb(247,158,158)"/><path d="M13.445818552411033,119.52243897215178L0.08742342854507376,-80.51327201725559L0.10590416209694975,122.55192762781031z" style="fill:rgb(83,212,212)"/><path d="M88.80291863514388,71.70978764032549L74.82513736774698,-73.29961649012355L85.47906238391131,64.50234395149312z" style="fill:rgb(247,158,158)"/><path d="M-126.21727833587285,84.58773384971362L-117.93859742937853,120.19549939918468L-103.8593560052463,116.89358323664177zM-122.55420416059738,113.6931202675023L-117.93859742937853,120.19549939918468L-126.21727833587285,84.58773384971362zM-140.70400484380932,88.12396382639496L-134.61249592510205,116.54438006845088L-122.55420416059738,113.6931202675023z" style="fill:rgb(127,37,217)"/><path d="M175.81027830682442,10.862333967987343L-152.4179724352701,-41.60184082677703L-173.41783727960734,96.10945779968638z" style="fill:rgb(83,212,212)"/><path d="M-143.8207573577949,126.26547100095856L-153.0362508801974,91.13428275568458L-167.32580729937388,94.62238889915054zM-154.54582289074992,121.25773651780625L-167.32580729937388,94.62238889915054L-173.41783727960734,96.10945779968638z" style="fill:rgb(127,37,217)"/><path d="M46.37542631432589,119.89583103637486L35.145270825783314,-90.23420394296959L42.65286360691437,112.88952744511745zM103.18756716414623,-72.91045529077162L114.74417842407632,57.582425532637075L117.8739982909068,64.8919437394744z" style="fill:rgb(247,158,158)"/><path d="M42.65286360691437,112.88952744511745L24.008925594599294,-87.14629052409825L29.120644281269836,115.9626883031247z" style="fill:rgb(83,212,212)"/><path d="M-99.02628377068442,77.9503654110814L-91.71085988711984,114.04447917765313L-77.44264803790888,110.69824770721009zM-99.02628377068442,77.9503654110814L-96.17114165653986,107.4546775905849L-91.71085988711984,114.04447917765313zM-113.71428005885059,81.53572859876002L-108.39188737157836,110.34434815733934L-96.17114165653986,107.4546775905849zM-134.61249592510205,116.54438006845088L-140.70400484380932,88.12396382639496L-153.0362508801974,91.13428275568458z" style="fill:rgb(127,37,217)"/><path d="M75.80735166056677,113.26831006740822L59.4843035435671,-96.98299722920774L72.28317819004448,106.16049055523462z" style="fill:rgb(247,158,158)"/><path d="M72.28317819004448,106.16049055523462L48.21493241827532,-93.85819804425846L58.554466249242836,109.27827481655085z" style="fill:rgb(83,212,212)"/><path d="M-153.39472842042824,157.41187303253213L-160.6359810315897,166.51092637487227L-148.44064680144334,163.76476692463112zM-126.21727833587285,84.58773384971362L-140.70400484380932,88.12396382639496L-122.55420416059738,113.6931202675023z" style="fill:rgb(127,37,217)"/><path d="M147.3567165849311,57.97755722620141L126.20135992651812,-87.19709035848861L144.42680485853242,50.5637808024564z" style="fill:rgb(247,158,158)"/><path d="M-71.45545122198607,71.22028084601874L-65.13055574702143,107.81077630114208L-50.66955389183456,104.41934170618684zM-160.6359810315897,166.51092637487227L-153.39472842042824,157.41187303253213L-165.66243785874244,160.19786418623158zM-69.43089847730518,101.1317772747163L-65.13055574702143,107.81077630114208L-71.45545122198607,71.22028084601874zM-86.34895679374351,74.85581304870853L-81.81739262073549,104.06064031050269L-69.43089847730518,101.1317772747163zM-108.39188737157836,110.34434815733934L-113.71428005885059,81.53572859876002L-126.21727833587285,84.58773384971362z" style="fill:rgb(127,37,217)"/><path d="M86.9621966671393,-96.59804113754944L102.34603493282007,99.3332234511393L105.66563459580047,106.54478131682058z" style="fill:rgb(247,158,158)"/><path d="M-126.54679580221234,151.31471305400706L-134.11565284290396,160.53904392520909L-121.7530235624951,157.75521276866397zM-96.17114165653986,107.4546775905849L-99.02628377068442,77.9503654110814L-113.71428005885059,81.53572859876002z" style="fill:rgb(127,37,217)"/><path d="M84.11534760215115,-103.81276021539864L88.4165251236003,102.49662163225771L102.34603493282007,99.3332234511393z" style="fill:rgb(83,212,212)"/><path d="M-43.49677882790571,64.39552854147692L-38.19054141107204,101.49272303341837L-23.532818188116863,98.05514117819584zM-134.11565284290396,160.53904392520909L-126.54679580221234,151.31471305400706L-138.9840108881957,154.13920134975615zM-42.326174474703556,94.72270328194817L-38.19054141107204,101.49272303341837L-43.49677882790571,64.39552854147692zM-58.60013509533442,68.0822797199561L-54.88181448476866,97.6915612512506L-42.326174474703556,94.72270328194817zM-81.81739262073549,104.06064031050269L-86.34895679374351,74.85581304870853L-99.02628377068442,77.9503654110814z" style="fill:rgb(127,37,217)"/><path d="M135.95961294539885,99.72315490200131L109.0436941611673,-110.72495835824498L132.8509806315541,92.40556518335536z" style="fill:rgb(247,158,158)"/><path d="M-99.3259783446746,145.13287349603192L-107.23085372031142,154.48508630752963L-94.69746379942819,151.66280372964883zM-71.45545122198607,71.22028084601874L-86.34895679374351,74.85581304870853L-69.43089847730518,101.1317772747163z" style="fill:rgb(127,37,217)"/><path d="M109.0436941611673,-110.72495835824498L118.71622340742344,95.6155621610438L132.8509806315541,92.40556518335536z" style="fill:rgb(83,212,212)"/><path d="M-15.142022754496683,57.474086333063596L-10.883462501696306,95.08857415499072L3.9750270931255263,91.60390802741686zM-107.23085372031142,154.48508630752963L-99.3259783446746,145.13287349603192L-111.93625827212372,147.99666164305276zM-14.849465099256378,88.22565476626059L-10.883462501696306,95.08857415499072L-15.142022754496683,57.474086333063596zM-30.45969313268556,61.21315748922465L-27.577732543155726,91.23533750965208L-14.849465099256378,88.22565476626059zM-54.88181448476866,97.6915612512506L-58.60013509533442,68.0822797199561L-71.45545122198607,71.22028084601874z" style="fill:rgb(127,37,217)"/><path d="M136.83617842688622,-110.3306448727204L163.80783139913729,85.3752781191732L166.69888558374166,92.80124364156745zM164.99170737857477,-89.50865711181292L175.81027830682442,10.862333967987343L188.8749431359246,48.24056409926608z" style="fill:rgb(247,158,158)"/><path d="M56.62269660774469,71.32561459528787L44.862311934970336,82.01488534185383L60.134909980347835,78.4331070115862z" style="fill:rgb(127,37,217)"/><path d="M163.80783139913729,85.3752781191732L122.59168457929586,-114.48157356405794L149.46326288241679,88.63292314742421z" style="fill:rgb(83,212,212)"/><path d="M-71.7244642510928,138.86457719559488L-79.97399744443392,148.34735147099798L-67.26628319328843,145.48581364363207zM-43.49677882790571,64.39552854147692L-58.60013509533442,68.0822797199561L-42.326174474703556,94.72270328194817zM13.617294195363446,50.453895498450564L16.798234548398604,88.59656807717936L31.861642493442762,85.06384954247345zM-79.97399744443392,148.34735147099798L-71.7244642510928,138.86457719559488L-84.51143644906101,141.7684927356031zM13.00694312707448,81.63883475455667L16.798234548398604,88.59656807717936L13.617294195363446,50.453895498450564zM-1.9192842496829259,54.24639719009623L0.10245840787927789,84.69018005761446L13.00694312707448,81.63883475455667zM-27.577732543155726,91.23533750965208L-30.45969313268556,61.21315748922465L-43.49677882790571,64.39552854147692zM-43.73421463911493,132.50799918785486L-52.337317397756934,142.12408741692994L-39.451619671898946,139.22247042865214zM-15.142022754496683,57.474086333063596L-30.45969313268556,61.21315748922465L-14.849465099256378,88.22565476626059zM-52.337317397756934,142.12408741692994L-43.73421463911493,132.50799918785486L-56.70162117023618,135.4529017564677zM41.25097547537931,74.96035389835941L44.862311934970336,82.01488534185383L42.78989253368423,43.33281669754287zM27.029679000212553,47.17991026186922L28.166588450449023,78.0542435275014L41.25097547537931,74.96035389835941zM42.78989253368423,43.33281669754287L44.862311934970336,82.01488534185383L56.62269660774469,71.32561459528787zM0.10245840787927789,84.69018005761446L-1.9192842496829259,54.24639719009623L-15.142022754496683,57.474086333063596zM114.74417842407632,57.582425532637075L102.16973773020617,68.5749569692002L117.8739982909068,64.8919437394744zM-15.34695684233329,126.06127095538034L-24.312824031834754,135.8135041899916L-11.245371683376757,132.87096012172188zM13.617294195363446,50.453895498450564L-1.9192842496829259,54.24639719009623L13.00694312707448,81.63883475455667zM72.38474817147709,36.10866775700745L73.31674507292833,75.34165989856699L88.80291863514388,71.70978764032549zM-24.312824031834754,135.8135041899916L-15.34695684233329,126.06127095538034L-28.49863680678391,129.0480117796355zM69.89077388038761,68.18829619610094L73.31674507292833,75.34165989856699L72.38474817147709,36.10866775700745zM56.39603332710093,40.011538153291326L56.62269660774469,71.32561459528787L69.89077388038761,68.18829619610094zM28.166588450449023,78.0542435275014L27.029679000212553,47.17991026186922L13.617294195363446,50.453895498450564zM144.42680485853242,50.5637808024564L131.4297293833853,61.71280503824862L147.3567165849311,57.97755722620141zM13.445818552411033,119.52243897215178L4.107712122240702,129.41372997745756L17.36078841060044,126.42938672148274zM42.78989253368423,43.33281669754287L27.029679000212553,47.17991026186922L41.25097547537931,74.96035389835941zM4.107712122240702,129.41372997745756L13.445818552411033,119.52243897215178L0.10590416209694975,122.55192762781031zM86.1888682745726,32.73906077152589L85.47906238391131,64.50234395149312L98.93471920736461,61.32066942617734zM102.41109291400156,28.77919167458799L102.16973773020617,68.5749569692002L114.74417842407632,57.582425532637075zM56.62269660774469,71.32561459528787L56.39603332710093,40.011538153291326L42.78989253368423,43.33281669754287zM42.65286360691437,112.88952744511745L32.93274125503487,122.92287047757162L46.37542631432589,119.89583103637486zM72.38474817147709,36.10866775700745L56.39603332710093,40.011538153291326L69.89077388038761,68.18829619610094zM32.93274125503487,122.92287047757162L42.65286360691437,112.88952744511745L29.120644281269836,115.9626883031247zM116.4175452655639,25.360190780224876L114.74417842407632,57.582425532637075L128.39143337757332,54.355448216128224zM132.8784195610081,21.342066364459747L131.4297293833853,61.71280503824862L144.42680485853242,50.5637808024564zM85.47906238391131,64.50234395149312L86.1888682745726,32.73906077152589L72.38474817147709,36.10866775700745zM102.16973773020617,68.5749569692002L102.41109291400156,28.77919167458799L86.1888682745726,32.73906077152589zM72.28317819004448,106.16049055523462L62.170965814576064,116.33896857067855L75.80735166056677,113.26831006740822zM62.170965814576064,116.33896857067855L72.28317819004448,106.16049055523462L58.554466249242836,109.27827481655085zM147.09170454910077,17.872582155487443L144.42680485853242,50.5637808024564L158.2697725321665,47.290525533692644zM175.81027830682442,10.862333967987343L161.105386733226,54.75317539577419L188.8749431359246,48.24056409926608zM114.74417842407632,57.582425532637075L116.4175452655639,25.360190780224876L102.41109291400156,28.77919167458799zM131.4297293833853,61.71280503824862L132.8784195610081,21.342066364459747L116.4175452655639,25.360190780224876zM102.34603493282007,99.3332234511393L91.83132506418553,109.66001993713539L105.66563459580047,106.54478131682058zM91.83132506418553,109.66001993713539L102.34603493282007,99.3332234511393L88.4165251236003,102.49662163225771zM144.42680485853242,50.5637808024564L147.09170454910077,17.872582155487443L132.8784195610081,21.342066364459747zM161.105386733226,54.75317539577419L175.81027830682442,10.862333967987343L147.09170454910077,17.872582155487443zM132.8509806315541,92.40556518335536L121.9230333704937,102.88392821672858L135.95961294539885,99.72315490200131zM121.9230333704937,102.88392821672858L132.8509806315541,92.40556518335536L118.71622340742344,95.6155621610438zM163.80783139913729,85.3752781191732L152.4555733777401,96.00856927122113L166.69888558374166,92.80124364156745zM152.4555733777401,96.00856927122113L163.80783139913729,85.3752781191732L149.46326288241679,88.63292314742421z" style="fill:rgb(127,37,217)"/></svg>
