solid JSxCAD
facet normal 0 1 0
outer loop
vertex -2.25 -3.075 0
vertex 2.25 -3.075 0.25
vertex 2.25 -3.075 0
endloop
endfacet
facet normal 0 1 0
outer loop
vertex 2.25 -3.075 0.25
vertex -2.25 -3.075 0
vertex -2.25 -3.075 0.25
endloop
endfacet
facet normal 0 -1 0
outer loop
vertex -2.25 -2.775 0.25
vertex 2.25 -2.775 0
vertex 2.25 -2.775 0.25
endloop
endfacet
facet normal 0 -1 0
outer loop
vertex 2.25 -2.775 0
vertex -2.25 -2.775 0.25
vertex -2.25 -2.775 0
endloop
endfacet
facet normal 0 0 -1
outer loop
vertex -2.25 3.425 0.25
vertex 2.25 3.725 0.25
vertex 2.25 3.425 0.25
endloop
endfacet
facet normal 0 0 -0.9999999999999999
outer loop
vertex 2.25 3.725 0.25
vertex -2.25 3.425 0.25
vertex -2.25 3.725 0.25
endloop
endfacet
facet normal 0 0 -1
outer loop
vertex -2.25 2.775 0.25
vertex 2.25 3.075 0.25
vertex 2.25 2.775 0.25
endloop
endfacet
facet normal 0 0 -1
outer loop
vertex 2.25 3.075 0.25
vertex -2.25 2.775 0.25
vertex -2.25 3.075 0.25
endloop
endfacet
facet normal 0 0 -1
outer loop
vertex 2.25 2.125 0.25
vertex -2.25 2.425 0.25
vertex 2.25 2.425 0.25
endloop
endfacet
facet normal 0 0 -1
outer loop
vertex -2.25 2.425 0.25
vertex 2.25 2.125 0.25
vertex -2.25 2.125 0.25
endloop
endfacet
facet normal 0 0 -1
outer loop
vertex 2.25 1.475 0.25
vertex -2.25 1.775 0.25
vertex 2.25 1.775 0.25
endloop
endfacet
facet normal 0 0 -1
outer loop
vertex -2.25 1.775 0.25
vertex 2.25 1.475 0.25
vertex -2.25 1.475 0.25
endloop
endfacet
facet normal 0 0 -1
outer loop
vertex 2.25 0.825 0.25
vertex -2.25 1.125 0.25
vertex 2.25 1.125 0.25
endloop
endfacet
facet normal 0 0 -1
outer loop
vertex -2.25 1.125 0.25
vertex 2.25 0.825 0.25
vertex -2.25 0.825 0.25
endloop
endfacet
facet normal 0 0 -1
outer loop
vertex 2.25 0.175 0.25
vertex -2.25 0.475 0.25
vertex 2.25 0.475 0.25
endloop
endfacet
facet normal 0 0 -1
outer loop
vertex -2.25 0.475 0.25
vertex 2.25 0.175 0.25
vertex -2.25 0.175 0.25
endloop
endfacet
facet normal 0 0 -1
outer loop
vertex 2.25 -0.475 0.25
vertex -2.25 -0.175 0.25
vertex 2.25 -0.175 0.25
endloop
endfacet
facet normal 0 0 -1
outer loop
vertex -2.25 -0.175 0.25
vertex 2.25 -0.475 0.25
vertex -2.25 -0.475 0.25
endloop
endfacet
facet normal 0 0 -1
outer loop
vertex 2.25 -1.125 0.25
vertex -2.25 -0.825 0.25
vertex 2.25 -0.825 0.25
endloop
endfacet
facet normal 0 0 -1
outer loop
vertex -2.25 -0.825 0.25
vertex 2.25 -1.125 0.25
vertex -2.25 -1.125 0.25
endloop
endfacet
facet normal 0 0 -1
outer loop
vertex 2.25 -1.775 0.25
vertex -2.25 -1.475 0.25
vertex 2.25 -1.475 0.25
endloop
endfacet
facet normal 0 0 -1
outer loop
vertex -2.25 -1.475 0.25
vertex 2.25 -1.775 0.25
vertex -2.25 -1.775 0.25
endloop
endfacet
facet normal 0 0 -1
outer loop
vertex 2.25 -2.425 0.25
vertex -2.25 -2.125 0.25
vertex 2.25 -2.125 0.25
endloop
endfacet
facet normal 0 0 -1
outer loop
vertex -2.25 -2.125 0.25
vertex 2.25 -2.425 0.25
vertex -2.25 -2.425 0.25
endloop
endfacet
facet normal 0 0 -1
outer loop
vertex -2.25 -3.075 0.25
vertex 2.25 -2.775 0.25
vertex 2.25 -3.075 0.25
endloop
endfacet
facet normal 0 0 -1
outer loop
vertex 2.25 -2.775 0.25
vertex -2.25 -3.075 0.25
vertex -2.25 -2.775 0.25
endloop
endfacet
facet normal 0 0 -1
outer loop
vertex 2.25 -3.725 0.25
vertex -2.25 -3.425 0.25
vertex 2.25 -3.425 0.25
endloop
endfacet
facet normal 0 0 -0.9999999999999999
outer loop
vertex -2.25 -3.425 0.25
vertex 2.25 -3.725 0.25
vertex -2.25 -3.725 0.25
endloop
endfacet
facet normal 0 1 0
outer loop
vertex 2.25 -2.425 0
vertex -2.25 -2.425 0.25
vertex 2.25 -2.425 0.25
endloop
endfacet
facet normal 0 1 0
outer loop
vertex -2.25 -2.425 0.25
vertex 2.25 -2.425 0
vertex -2.25 -2.425 0
endloop
endfacet
facet normal 0 -1 0
outer loop
vertex -2.25 -2.125 0.25
vertex 2.25 -2.125 0
vertex 2.25 -2.125 0.25
endloop
endfacet
facet normal 0 -1 0
outer loop
vertex 2.25 -2.125 0
vertex -2.25 -2.125 0.25
vertex -2.25 -2.125 0
endloop
endfacet
facet normal 0 1 0
outer loop
vertex 2.25 -1.775 0
vertex -2.25 -1.775 0.25
vertex 2.25 -1.775 0.25
endloop
endfacet
facet normal 0 1 0
outer loop
vertex -2.25 -1.775 0.25
vertex 2.25 -1.775 0
vertex -2.25 -1.775 0
endloop
endfacet
facet normal 0 -1 0
outer loop
vertex -2.25 -1.475 0.25
vertex 2.25 -1.475 0
vertex 2.25 -1.475 0.25
endloop
endfacet
facet normal 0 -1 0
outer loop
vertex 2.25 -1.475 0
vertex -2.25 -1.475 0.25
vertex -2.25 -1.475 0
endloop
endfacet
facet normal 0 1 0
outer loop
vertex 2.25 -1.125 0
vertex -2.25 -1.125 0.25
vertex 2.25 -1.125 0.25
endloop
endfacet
facet normal 0 1 0
outer loop
vertex -2.25 -1.125 0.25
vertex 2.25 -1.125 0
vertex -2.25 -1.125 0
endloop
endfacet
facet normal 0 -1 0
outer loop
vertex -2.25 -0.825 0.25
vertex 2.25 -0.825 0
vertex 2.25 -0.825 0.25
endloop
endfacet
facet normal 0 -1 0
outer loop
vertex 2.25 -0.825 0
vertex -2.25 -0.825 0.25
vertex -2.25 -0.825 0
endloop
endfacet
facet normal 0 1 0
outer loop
vertex 2.25 -0.475 0
vertex -2.25 -0.475 0.25
vertex 2.25 -0.475 0.25
endloop
endfacet
facet normal 0 1 0
outer loop
vertex -2.25 -0.475 0.25
vertex 2.25 -0.475 0
vertex -2.25 -0.475 0
endloop
endfacet
facet normal 0 -1 0
outer loop
vertex -2.25 -0.175 0.25
vertex 2.25 -0.175 0
vertex 2.25 -0.175 0.25
endloop
endfacet
facet normal 0 -1 0
outer loop
vertex 2.25 -0.175 0
vertex -2.25 -0.175 0.25
vertex -2.25 -0.175 0
endloop
endfacet
facet normal 0 1 0
outer loop
vertex 2.25 0.175 0
vertex -2.25 0.175 0.25
vertex 2.25 0.175 0.25
endloop
endfacet
facet normal 0 1 0
outer loop
vertex -2.25 0.175 0.25
vertex 2.25 0.175 0
vertex -2.25 0.175 0
endloop
endfacet
facet normal 0 -1 0
outer loop
vertex -2.25 0.475 0.25
vertex 2.25 0.475 0
vertex 2.25 0.475 0.25
endloop
endfacet
facet normal 0 -1 0
outer loop
vertex 2.25 0.475 0
vertex -2.25 0.475 0.25
vertex -2.25 0.475 0
endloop
endfacet
facet normal 0 1 0
outer loop
vertex 2.25 0.825 0
vertex -2.25 0.825 0.25
vertex 2.25 0.825 0.25
endloop
endfacet
facet normal 0 1 0
outer loop
vertex -2.25 0.825 0.25
vertex 2.25 0.825 0
vertex -2.25 0.825 0
endloop
endfacet
facet normal 0 -1 0
outer loop
vertex -2.25 1.125 0.25
vertex 2.25 1.125 0
vertex 2.25 1.125 0.25
endloop
endfacet
facet normal 0 -1 0
outer loop
vertex 2.25 1.125 0
vertex -2.25 1.125 0.25
vertex -2.25 1.125 0
endloop
endfacet
facet normal 0 1 0
outer loop
vertex 2.25 -3.725 0
vertex -2.25 -3.725 0.25
vertex 2.25 -3.725 0.25
endloop
endfacet
facet normal 0 1 0
outer loop
vertex -2.25 -3.725 0.25
vertex 2.25 -3.725 0
vertex -2.25 -3.725 0
endloop
endfacet
facet normal 0 -1 0
outer loop
vertex -2.25 -3.425 0.25
vertex 2.25 -3.425 0
vertex 2.25 -3.425 0.25
endloop
endfacet
facet normal 0 -1 0
outer loop
vertex 2.25 -3.425 0
vertex -2.25 -3.425 0.25
vertex -2.25 -3.425 0
endloop
endfacet
facet normal 0 1 0
outer loop
vertex 2.25 1.475 0
vertex -2.25 1.475 0.25
vertex 2.25 1.475 0.25
endloop
endfacet
facet normal 0 1 0
outer loop
vertex -2.25 1.475 0.25
vertex 2.25 1.475 0
vertex -2.25 1.475 0
endloop
endfacet
facet normal 0 -1 0
outer loop
vertex -2.25 1.775 0.25
vertex 2.25 1.775 0
vertex 2.25 1.775 0.25
endloop
endfacet
facet normal 0 -1 0
outer loop
vertex 2.25 1.775 0
vertex -2.25 1.775 0.25
vertex -2.25 1.775 0
endloop
endfacet
facet normal 0 1 0
outer loop
vertex 2.25 2.125 0
vertex -2.25 2.125 0.25
vertex 2.25 2.125 0.25
endloop
endfacet
facet normal 0 1 0
outer loop
vertex -2.25 2.125 0.25
vertex 2.25 2.125 0
vertex -2.25 2.125 0
endloop
endfacet
facet normal 0 -1 0
outer loop
vertex -2.25 2.425 0.25
vertex 2.25 2.425 0
vertex 2.25 2.425 0.25
endloop
endfacet
facet normal 0 -1 0
outer loop
vertex 2.25 2.425 0
vertex -2.25 2.425 0.25
vertex -2.25 2.425 0
endloop
endfacet
facet normal 0 1 0
outer loop
vertex 2.25 2.775 0
vertex -2.25 2.775 0.25
vertex 2.25 2.775 0.25
endloop
endfacet
facet normal 0 1 0
outer loop
vertex -2.25 2.775 0.25
vertex 2.25 2.775 0
vertex -2.25 2.775 0
endloop
endfacet
facet normal 0 -1 0
outer loop
vertex -2.25 3.075 0.25
vertex 2.25 3.075 0
vertex 2.25 3.075 0.25
endloop
endfacet
facet normal 0 -1 0
outer loop
vertex 2.25 3.075 0
vertex -2.25 3.075 0.25
vertex -2.25 3.075 0
endloop
endfacet
facet normal 0 1 0
outer loop
vertex 2.25 3.425 0
vertex -2.25 3.425 0.25
vertex 2.25 3.425 0.25
endloop
endfacet
facet normal 0 1 0
outer loop
vertex -2.25 3.425 0.25
vertex 2.25 3.425 0
vertex -2.25 3.425 0
endloop
endfacet
facet normal 0 -1 0
outer loop
vertex -2.25 3.725 0.25
vertex 2.25 3.725 0
vertex 2.25 3.725 0.25
endloop
endfacet
facet normal 0 -1 0
outer loop
vertex 2.25 3.725 0
vertex -2.25 3.725 0.25
vertex -2.25 3.725 0
endloop
endfacet
facet normal -1 0 0
outer loop
vertex -2.25 -3.95 0
vertex -2.25 -3.725 1.2
vertex -2.25 -3.725 0
endloop
endfacet
facet normal -1 0 0
outer loop
vertex -2.25 -3.725 1.2
vertex -2.25 -3.95 0
vertex -2.25 -3.95 1.2
endloop
endfacet
facet normal -1 0 0
outer loop
vertex -2.25 -3.725 0.25
vertex -2.25 -3.425 1.2
vertex -2.25 -3.425 0.25
endloop
endfacet
facet normal -1 0 0
outer loop
vertex -2.25 -3.425 1.2
vertex -2.25 -3.725 0.25
vertex -2.25 -3.725 1.2
endloop
endfacet
facet normal -1 0 0
outer loop
vertex -2.25 -3.425 0
vertex -2.25 -3.075 1.2
vertex -2.25 -3.075 0
endloop
endfacet
facet normal -1 0 0
outer loop
vertex -2.25 -3.425 0.25
vertex -2.25 -3.075 1.2
vertex -2.25 -3.425 0
endloop
endfacet
facet normal -1 0 0
outer loop
vertex -2.25 -3.075 1.2
vertex -2.25 -3.425 0.25
vertex -2.25 -3.425 1.2
endloop
endfacet
facet normal -1 0 0
outer loop
vertex -2.25 -3.075 0.25
vertex -2.25 -2.775 1.2
vertex -2.25 -2.775 0.25
endloop
endfacet
facet normal -1 0 0
outer loop
vertex -2.25 -2.775 1.2
vertex -2.25 -3.075 0.25
vertex -2.25 -3.075 1.2
endloop
endfacet
facet normal -1 0 0
outer loop
vertex -2.25 -2.775 0
vertex -2.25 -2.425 1.2
vertex -2.25 -2.425 0
endloop
endfacet
facet normal -1 0 0
outer loop
vertex -2.25 -2.775 0.25
vertex -2.25 -2.425 1.2
vertex -2.25 -2.775 0
endloop
endfacet
facet normal -1 0 0
outer loop
vertex -2.25 -2.425 1.2
vertex -2.25 -2.775 0.25
vertex -2.25 -2.775 1.2
endloop
endfacet
facet normal -1 0 0
outer loop
vertex -2.25 -2.425 0.25
vertex -2.25 -2.125 1.2
vertex -2.25 -2.125 0.25
endloop
endfacet
facet normal -1 0 0
outer loop
vertex -2.25 -2.125 1.2
vertex -2.25 -2.425 0.25
vertex -2.25 -2.425 1.2
endloop
endfacet
facet normal -1 0 0
outer loop
vertex -2.25 -1.775 0
vertex -2.25 -2.125 0
vertex -2.25 -1.775 0.25
endloop
endfacet
facet normal -1 0 0
outer loop
vertex -2.25 -2.125 0
vertex -2.25 -1.775 1.2
vertex -2.25 -1.775 0.25
endloop
endfacet
facet normal -1 0 0
outer loop
vertex -2.25 -2.125 0.25
vertex -2.25 -1.775 1.2
vertex -2.25 -2.125 0
endloop
endfacet
facet normal -1 0 0
outer loop
vertex -2.25 -1.775 1.2
vertex -2.25 -2.125 0.25
vertex -2.25 -2.125 1.2
endloop
endfacet
facet normal -1 0 0
outer loop
vertex -2.25 -1.475 0.25
vertex -2.25 -1.775 1.2
vertex -2.25 -1.475 1.2
endloop
endfacet
facet normal -1 0 0
outer loop
vertex -2.25 -1.775 1.2
vertex -2.25 -1.475 0.25
vertex -2.25 -1.775 0.25
endloop
endfacet
facet normal -1 0 0
outer loop
vertex -2.25 -1.125 0
vertex -2.25 -1.475 0
vertex -2.25 -1.125 0.25
endloop
endfacet
facet normal -1 0 0
outer loop
vertex -2.25 -0.475 0
vertex -2.25 -0.825 1.2
vertex -2.25 -0.475 0.25
endloop
endfacet
facet normal -1 0 0
outer loop
vertex -2.25 -0.825 0
vertex -2.25 -0.825 1.2
vertex -2.25 -0.475 0
endloop
endfacet
facet normal -1 0 0
outer loop
vertex -2.25 -0.825 0.25
vertex -2.25 -1.125 1.2
vertex -2.25 -0.825 1.2
endloop
endfacet
facet normal -1 0 0
outer loop
vertex -2.25 -1.125 1.2
vertex -2.25 -0.825 0.25
vertex -2.25 -1.125 0.25
endloop
endfacet
facet normal -1 0 0
outer loop
vertex -2.25 -1.475 0
vertex -2.25 -1.125 1.2
vertex -2.25 -1.125 0.25
endloop
endfacet
facet normal -1 0 0
outer loop
vertex -2.25 -1.475 0.25
vertex -2.25 -1.125 1.2
vertex -2.25 -1.475 0
endloop
endfacet
facet normal -1 0 0
outer loop
vertex -2.25 -1.125 1.2
vertex -2.25 -1.475 0.25
vertex -2.25 -1.475 1.2
endloop
endfacet
facet normal -1 0 0
outer loop
vertex -2.25 -0.475 1.2
vertex -2.25 -0.475 0.25
vertex -2.25 -0.825 1.2
endloop
endfacet
facet normal -1 0 0
outer loop
vertex -2.25 -0.175 0.25
vertex -2.25 -0.475 1.2
vertex -2.25 -0.175 1.2
endloop
endfacet
facet normal -1 0 0
outer loop
vertex -2.25 -0.475 1.2
vertex -2.25 -0.175 0.25
vertex -2.25 -0.475 0.25
endloop
endfacet
facet normal -1 0 0
outer loop
vertex -2.25 0.175 0
vertex -2.25 -0.175 0
vertex -2.25 0.175 0.25
endloop
endfacet
facet normal -1 0 0
outer loop
vertex -2.25 -0.175 0
vertex -2.25 0.175 1.2
vertex -2.25 0.175 0.25
endloop
endfacet
facet normal -1 0 0
outer loop
vertex -2.25 -0.175 0.25
vertex -2.25 0.175 1.2
vertex -2.25 -0.175 0
endloop
endfacet
facet normal -1 0 0
outer loop
vertex -2.25 0.175 1.2
vertex -2.25 -0.175 0.25
vertex -2.25 -0.175 1.2
endloop
endfacet
facet normal -1 0 0
outer loop
vertex -2.25 0.475 0.25
vertex -2.25 0.175 1.2
vertex -2.25 0.475 1.2
endloop
endfacet
facet normal -1 0 0
outer loop
vertex -2.25 0.175 1.2
vertex -2.25 0.475 0.25
vertex -2.25 0.175 0.25
endloop
endfacet
facet normal -1 0 0
outer loop
vertex -2.25 0.825 0
vertex -2.25 0.475 0
vertex -2.25 0.825 0.25
endloop
endfacet
facet normal -1 0 0
outer loop
vertex -2.25 0.475 0
vertex -2.25 0.825 1.2
vertex -2.25 0.825 0.25
endloop
endfacet
facet normal -1 0 0
outer loop
vertex -2.25 0.475 0.25
vertex -2.25 0.825 1.2
vertex -2.25 0.475 0
endloop
endfacet
facet normal -1 0 0
outer loop
vertex -2.25 0.825 1.2
vertex -2.25 0.475 0.25
vertex -2.25 0.475 1.2
endloop
endfacet
facet normal -1 0 0
outer loop
vertex -2.25 1.125 0.25
vertex -2.25 0.825 1.2
vertex -2.25 1.125 1.2
endloop
endfacet
facet normal -1 0 0
outer loop
vertex -2.25 0.825 1.2
vertex -2.25 1.125 0.25
vertex -2.25 0.825 0.25
endloop
endfacet
facet normal -1 0 0
outer loop
vertex -2.25 1.475 0
vertex -2.25 1.125 0
vertex -2.25 1.475 0.25
endloop
endfacet
facet normal -1 0 0
outer loop
vertex -2.25 1.125 0
vertex -2.25 1.475 1.2
vertex -2.25 1.475 0.25
endloop
endfacet
facet normal -1 0 0
outer loop
vertex -2.25 1.125 0.25
vertex -2.25 1.475 1.2
vertex -2.25 1.125 0
endloop
endfacet
facet normal -1 0 0
outer loop
vertex -2.25 1.475 1.2
vertex -2.25 1.125 0.25
vertex -2.25 1.125 1.2
endloop
endfacet
facet normal -1 0 0
outer loop
vertex -2.25 1.775 0.25
vertex -2.25 1.475 1.2
vertex -2.25 1.775 1.2
endloop
endfacet
facet normal -1 0 0
outer loop
vertex -2.25 1.475 1.2
vertex -2.25 1.775 0.25
vertex -2.25 1.475 0.25
endloop
endfacet
facet normal -1 0 0
outer loop
vertex -2.25 2.125 0
vertex -2.25 1.775 0
vertex -2.25 2.125 0.25
endloop
endfacet
facet normal -1 0 0
outer loop
vertex -2.25 1.775 0
vertex -2.25 2.125 1.2
vertex -2.25 2.125 0.25
endloop
endfacet
facet normal -1 0 0
outer loop
vertex -2.25 1.775 0.25
vertex -2.25 2.125 1.2
vertex -2.25 1.775 0
endloop
endfacet
facet normal -1 0 0
outer loop
vertex -2.25 2.125 1.2
vertex -2.25 1.775 0.25
vertex -2.25 1.775 1.2
endloop
endfacet
facet normal -1 0 0
outer loop
vertex -2.25 2.425 0.25
vertex -2.25 2.125 1.2
vertex -2.25 2.425 1.2
endloop
endfacet
facet normal -1 0 0
outer loop
vertex -2.25 2.125 1.2
vertex -2.25 2.425 0.25
vertex -2.25 2.125 0.25
endloop
endfacet
facet normal -1 0 0
outer loop
vertex -2.25 2.775 0
vertex -2.25 2.425 0
vertex -2.25 2.775 0.25
endloop
endfacet
facet normal -1 0 0
outer loop
vertex -2.25 2.425 0
vertex -2.25 2.775 1.2
vertex -2.25 2.775 0.25
endloop
endfacet
facet normal -1 0 0
outer loop
vertex -2.25 2.425 0.25
vertex -2.25 2.775 1.2
vertex -2.25 2.425 0
endloop
endfacet
facet normal -1 0 0
outer loop
vertex -2.25 2.775 1.2
vertex -2.25 2.425 0.25
vertex -2.25 2.425 1.2
endloop
endfacet
facet normal -1 0 0
outer loop
vertex -2.25 3.075 0.25
vertex -2.25 2.775 1.2
vertex -2.25 3.075 1.2
endloop
endfacet
facet normal -1 0 0
outer loop
vertex -2.25 2.775 1.2
vertex -2.25 3.075 0.25
vertex -2.25 2.775 0.25
endloop
endfacet
facet normal -0.9999999999999999 0 0
outer loop
vertex -2.25 3.425 0
vertex -2.25 3.075 0
vertex -2.25 3.425 0.25
endloop
endfacet
facet normal -1 0 0
outer loop
vertex -2.25 3.075 0
vertex -2.25 3.425 1.2
vertex -2.25 3.425 0.25
endloop
endfacet
facet normal -1 0 0
outer loop
vertex -2.25 3.075 0.25
vertex -2.25 3.425 1.2
vertex -2.25 3.075 0
endloop
endfacet
facet normal -1 0 0
outer loop
vertex -2.25 3.425 1.2
vertex -2.25 3.075 0.25
vertex -2.25 3.075 1.2
endloop
endfacet
facet normal -1 0 0
outer loop
vertex -2.25 3.725 0
vertex -2.25 3.95 1.2
vertex -2.25 3.95 0
endloop
endfacet
facet normal -1 0 0
outer loop
vertex -2.25 3.725 0.25
vertex -2.25 3.95 1.2
vertex -2.25 3.725 0
endloop
endfacet
facet normal -1 0 0
outer loop
vertex -2.25 3.95 1.2
vertex -2.25 3.725 0.25
vertex -2.25 3.725 1.2
endloop
endfacet
facet normal -1 0 0
outer loop
vertex -2.25 3.725 0.25
vertex -2.25 3.425 1.2
vertex -2.25 3.725 1.2
endloop
endfacet
facet normal -1 0 0
outer loop
vertex -2.25 3.425 1.2
vertex -2.25 3.725 0.25
vertex -2.25 3.425 0.25
endloop
endfacet
facet normal 1 0 0
outer loop
vertex 2.25 -3.95 1.2
vertex 2.25 -3.725 0.25
vertex 2.25 -3.725 1.2
endloop
endfacet
facet normal 1 0 0
outer loop
vertex 2.25 -3.95 0
vertex 2.25 -3.725 0.25
vertex 2.25 -3.95 1.2
endloop
endfacet
facet normal 1 0 0
outer loop
vertex 2.25 -3.725 0.25
vertex 2.25 -3.95 0
vertex 2.25 -3.725 0
endloop
endfacet
facet normal 1 0 0
outer loop
vertex 2.25 -3.425 0.25
vertex 2.25 -3.075 1.2
vertex 2.25 -3.425 1.2
endloop
endfacet
facet normal 1 0 0
outer loop
vertex 2.25 -3.425 0.25
vertex 2.25 -3.075 0.25
vertex 2.25 -3.075 1.2
endloop
endfacet
facet normal 0.9999999999999999 0 0
outer loop
vertex 2.25 -3.425 0
vertex 2.25 -3.075 0.25
vertex 2.25 -3.425 0.25
endloop
endfacet
facet normal 0.9999999999999999 0 0
outer loop
vertex 2.25 -3.075 0.25
vertex 2.25 -3.425 0
vertex 2.25 -3.075 0
endloop
endfacet
facet normal 1 0 0
outer loop
vertex 2.25 -3.725 0.25
vertex 2.25 -3.425 1.2
vertex 2.25 -3.725 1.2
endloop
endfacet
facet normal 1 0 0
outer loop
vertex 2.25 -3.425 1.2
vertex 2.25 -3.725 0.25
vertex 2.25 -3.425 0.25
endloop
endfacet
facet normal 1 0 0
outer loop
vertex 2.25 -2.775 0.25
vertex 2.25 -2.425 1.2
vertex 2.25 -2.775 1.2
endloop
endfacet
facet normal 1 0 0
outer loop
vertex 2.25 -2.775 0.25
vertex 2.25 -2.425 0.25
vertex 2.25 -2.425 1.2
endloop
endfacet
facet normal 1 0 0
outer loop
vertex 2.25 -2.775 0
vertex 2.25 -2.425 0.25
vertex 2.25 -2.775 0.25
endloop
endfacet
facet normal 1 0 0
outer loop
vertex 2.25 -2.425 0.25
vertex 2.25 -2.775 0
vertex 2.25 -2.425 0
endloop
endfacet
facet normal 1 0 0
outer loop
vertex 2.25 -3.075 0.25
vertex 2.25 -2.775 1.2
vertex 2.25 -3.075 1.2
endloop
endfacet
facet normal 1 0 0
outer loop
vertex 2.25 -2.775 1.2
vertex 2.25 -3.075 0.25
vertex 2.25 -2.775 0.25
endloop
endfacet
facet normal 1 0 0
outer loop
vertex 2.25 -2.125 0.25
vertex 2.25 -1.775 1.2
vertex 2.25 -2.125 1.2
endloop
endfacet
facet normal 1 0 0
outer loop
vertex 2.25 -2.125 0.25
vertex 2.25 -1.775 0.25
vertex 2.25 -1.775 1.2
endloop
endfacet
facet normal 1 0 0
outer loop
vertex 2.25 -2.125 0
vertex 2.25 -1.775 0.25
vertex 2.25 -2.125 0.25
endloop
endfacet
facet normal 1 0 0
outer loop
vertex 2.25 -1.775 0.25
vertex 2.25 -2.125 0
vertex 2.25 -1.775 0
endloop
endfacet
facet normal 1 0 0
outer loop
vertex 2.25 -2.425 0.25
vertex 2.25 -2.125 1.2
vertex 2.25 -2.425 1.2
endloop
endfacet
facet normal 1 0 0
outer loop
vertex 2.25 -2.125 1.2
vertex 2.25 -2.425 0.25
vertex 2.25 -2.125 0.25
endloop
endfacet
facet normal 1 0 0
outer loop
vertex 2.25 -1.475 0.25
vertex 2.25 -1.125 1.2
vertex 2.25 -1.475 1.2
endloop
endfacet
facet normal 1 0 0
outer loop
vertex 2.25 -1.475 0.25
vertex 2.25 -1.125 0.25
vertex 2.25 -1.125 1.2
endloop
endfacet
facet normal 1 0 0
outer loop
vertex 2.25 -1.475 0
vertex 2.25 -1.125 0.25
vertex 2.25 -1.475 0.25
endloop
endfacet
facet normal 1 0 0
outer loop
vertex 2.25 -1.125 0.25
vertex 2.25 -1.475 0
vertex 2.25 -1.125 0
endloop
endfacet
facet normal 1 0 0
outer loop
vertex 2.25 -1.775 0.25
vertex 2.25 -1.475 1.2
vertex 2.25 -1.775 1.2
endloop
endfacet
facet normal 1 0 0
outer loop
vertex 2.25 -1.475 1.2
vertex 2.25 -1.775 0.25
vertex 2.25 -1.475 0.25
endloop
endfacet
facet normal 1 0 0
outer loop
vertex 2.25 -0.825 0.25
vertex 2.25 -0.475 1.2
vertex 2.25 -0.825 1.2
endloop
endfacet
facet normal 1 0 0
outer loop
vertex 2.25 -0.825 0.25
vertex 2.25 -0.475 0.25
vertex 2.25 -0.475 1.2
endloop
endfacet
facet normal 1 0 0
outer loop
vertex 2.25 -0.825 0
vertex 2.25 -0.475 0.25
vertex 2.25 -0.825 0.25
endloop
endfacet
facet normal 1 0 0
outer loop
vertex 2.25 -0.475 0.25
vertex 2.25 -0.825 0
vertex 2.25 -0.475 0
endloop
endfacet
facet normal 1 0 0
outer loop
vertex 2.25 -1.125 0.25
vertex 2.25 -0.825 1.2
vertex 2.25 -1.125 1.2
endloop
endfacet
facet normal 1 0 0
outer loop
vertex 2.25 -0.825 1.2
vertex 2.25 -1.125 0.25
vertex 2.25 -0.825 0.25
endloop
endfacet
facet normal 1 0 0
outer loop
vertex 2.25 -0.175 0.25
vertex 2.25 0.175 1.2
vertex 2.25 -0.175 1.2
endloop
endfacet
facet normal 1 0 0
outer loop
vertex 2.25 -0.175 0.25
vertex 2.25 0.175 0.25
vertex 2.25 0.175 1.2
endloop
endfacet
facet normal 1 0 0
outer loop
vertex 2.25 -0.175 0
vertex 2.25 0.175 0.25
vertex 2.25 -0.175 0.25
endloop
endfacet
facet normal 1 0 0
outer loop
vertex 2.25 0.175 0.25
vertex 2.25 -0.175 0
vertex 2.25 0.175 0
endloop
endfacet
facet normal 1 0 0
outer loop
vertex 2.25 -0.475 0.25
vertex 2.25 -0.175 1.2
vertex 2.25 -0.475 1.2
endloop
endfacet
facet normal 1 0 0
outer loop
vertex 2.25 -0.175 1.2
vertex 2.25 -0.475 0.25
vertex 2.25 -0.175 0.25
endloop
endfacet
facet normal 1 0 0
outer loop
vertex 2.25 0.475 0.25
vertex 2.25 0.825 1.2
vertex 2.25 0.475 1.2
endloop
endfacet
facet normal 1 0 0
outer loop
vertex 2.25 0.475 0.25
vertex 2.25 0.825 0.25
vertex 2.25 0.825 1.2
endloop
endfacet
facet normal 1 0 0
outer loop
vertex 2.25 0.475 0
vertex 2.25 0.825 0.25
vertex 2.25 0.475 0.25
endloop
endfacet
facet normal 1 0 0
outer loop
vertex 2.25 0.825 0.25
vertex 2.25 0.475 0
vertex 2.25 0.825 0
endloop
endfacet
facet normal 1 0 0
outer loop
vertex 2.25 0.175 0.25
vertex 2.25 0.475 1.2
vertex 2.25 0.175 1.2
endloop
endfacet
facet normal 1 0 0
outer loop
vertex 2.25 0.475 1.2
vertex 2.25 0.175 0.25
vertex 2.25 0.475 0.25
endloop
endfacet
facet normal 1 0 0
outer loop
vertex 2.25 1.125 0.25
vertex 2.25 1.475 1.2
vertex 2.25 1.125 1.2
endloop
endfacet
facet normal 1 0 0
outer loop
vertex 2.25 1.125 0.25
vertex 2.25 1.475 0.25
vertex 2.25 1.475 1.2
endloop
endfacet
facet normal 1 0 0
outer loop
vertex 2.25 1.125 0
vertex 2.25 1.475 0.25
vertex 2.25 1.125 0.25
endloop
endfacet
facet normal 1 0 0
outer loop
vertex 2.25 1.475 0.25
vertex 2.25 1.125 0
vertex 2.25 1.475 0
endloop
endfacet
facet normal 1 0 0
outer loop
vertex 2.25 0.825 0.25
vertex 2.25 1.125 1.2
vertex 2.25 0.825 1.2
endloop
endfacet
facet normal 1 0 0
outer loop
vertex 2.25 1.125 1.2
vertex 2.25 0.825 0.25
vertex 2.25 1.125 0.25
endloop
endfacet
facet normal 1 0 0
outer loop
vertex 2.25 1.775 0.25
vertex 2.25 2.125 1.2
vertex 2.25 1.775 1.2
endloop
endfacet
facet normal 1 0 0
outer loop
vertex 2.25 1.775 0.25
vertex 2.25 2.125 0.25
vertex 2.25 2.125 1.2
endloop
endfacet
facet normal 1 0 0
outer loop
vertex 2.25 1.775 0
vertex 2.25 2.125 0.25
vertex 2.25 1.775 0.25
endloop
endfacet
facet normal 1 0 0
outer loop
vertex 2.25 2.125 0.25
vertex 2.25 1.775 0
vertex 2.25 2.125 0
endloop
endfacet
facet normal 1 0 0
outer loop
vertex 2.25 1.475 0.25
vertex 2.25 1.775 1.2
vertex 2.25 1.475 1.2
endloop
endfacet
facet normal 1 0 0
outer loop
vertex 2.25 1.775 1.2
vertex 2.25 1.475 0.25
vertex 2.25 1.775 0.25
endloop
endfacet
facet normal 1 0 0
outer loop
vertex 2.25 2.425 0.25
vertex 2.25 2.775 1.2
vertex 2.25 2.425 1.2
endloop
endfacet
facet normal 1 0 0
outer loop
vertex 2.25 2.425 0.25
vertex 2.25 2.775 0.25
vertex 2.25 2.775 1.2
endloop
endfacet
facet normal 1 0 0
outer loop
vertex 2.25 2.425 0
vertex 2.25 2.775 0.25
vertex 2.25 2.425 0.25
endloop
endfacet
facet normal 1 0 0
outer loop
vertex 2.25 2.775 0.25
vertex 2.25 2.425 0
vertex 2.25 2.775 0
endloop
endfacet
facet normal 1 0 0
outer loop
vertex 2.25 2.125 0.25
vertex 2.25 2.425 1.2
vertex 2.25 2.125 1.2
endloop
endfacet
facet normal 1 0 0
outer loop
vertex 2.25 2.425 1.2
vertex 2.25 2.125 0.25
vertex 2.25 2.425 0.25
endloop
endfacet
facet normal 1 0 0
outer loop
vertex 2.25 3.075 0.25
vertex 2.25 3.425 1.2
vertex 2.25 3.075 1.2
endloop
endfacet
facet normal 1 0 0
outer loop
vertex 2.25 3.075 0.25
vertex 2.25 3.425 0.25
vertex 2.25 3.425 1.2
endloop
endfacet
facet normal 0.9999999999999999 0 0
outer loop
vertex 2.25 3.075 0
vertex 2.25 3.425 0.25
vertex 2.25 3.075 0.25
endloop
endfacet
facet normal 0.9999999999999999 0 0
outer loop
vertex 2.25 3.425 0.25
vertex 2.25 3.075 0
vertex 2.25 3.425 0
endloop
endfacet
facet normal 1 0 0
outer loop
vertex 2.25 2.775 0.25
vertex 2.25 3.075 1.2
vertex 2.25 2.775 1.2
endloop
endfacet
facet normal 1 0 0
outer loop
vertex 2.25 3.075 1.2
vertex 2.25 2.775 0.25
vertex 2.25 3.075 0.25
endloop
endfacet
facet normal 1 0 0
outer loop
vertex 2.25 3.725 0.25
vertex 2.25 3.95 1.2
vertex 2.25 3.725 1.2
endloop
endfacet
facet normal 1 0 0
outer loop
vertex 2.25 3.725 0.25
vertex 2.25 3.95 0
vertex 2.25 3.95 1.2
endloop
endfacet
facet normal 1 0 0
outer loop
vertex 2.25 3.95 0
vertex 2.25 3.725 0.25
vertex 2.25 3.725 0
endloop
endfacet
facet normal 1 0 0
outer loop
vertex 2.25 3.425 0.25
vertex 2.25 3.725 1.2
vertex 2.25 3.425 1.2
endloop
endfacet
facet normal 1 0 0
outer loop
vertex 2.25 3.725 1.2
vertex 2.25 3.425 0.25
vertex 2.25 3.725 0.25
endloop
endfacet
facet normal 0 -1 0
outer loop
vertex -2.25 -3.95 1.2
vertex 2.25 -3.95 0
vertex 2.25 -3.95 1.2
endloop
endfacet
facet normal 0 -1 0
outer loop
vertex 2.25 -3.95 0
vertex -2.25 -3.95 1.2
vertex -2.25 -3.95 0
endloop
endfacet
facet normal 0 0 1
outer loop
vertex -2.25 2.125 1.2
vertex 2.25 3.95 1.2
vertex -2.25 3.95 1.2
endloop
endfacet
facet normal 0 0 1
outer loop
vertex -2.25 2.125 1.2
vertex 2.25 2.125 1.2
vertex 2.25 3.95 1.2
endloop
endfacet
facet normal 0 0 1
outer loop
vertex -2.25 2.125 1.2
vertex 2.25 0.175 1.2
vertex 2.25 2.125 1.2
endloop
endfacet
facet normal 0 0 1
outer loop
vertex -2.25 -0.175 1.2
vertex 2.25 0.175 1.2
vertex -2.25 2.125 1.2
endloop
endfacet
facet normal 0 0 0.9999999999999999
outer loop
vertex -2.25 -0.175 1.2
vertex 2.25 -0.175 1.2
vertex 2.25 0.175 1.2
endloop
endfacet
facet normal 0 0 1
outer loop
vertex -2.25 -0.475 1.2
vertex 2.25 -0.175 1.2
vertex -2.25 -0.175 1.2
endloop
endfacet
facet normal 7.04903507698512e-17 0 1
outer loop
vertex -2.25 -0.825 1.2
vertex 2.25 -0.175 1.2
vertex -2.25 -0.475 1.2
endloop
endfacet
facet normal 0 0 1
outer loop
vertex -2.25 -0.825 1.2
vertex 2.25 -0.825 1.2
vertex 2.25 -0.175 1.2
endloop
endfacet
facet normal 0 0 1
outer loop
vertex -2.25 -0.825 1.2
vertex 2.25 -1.125 1.2
vertex 2.25 -0.825 1.2
endloop
endfacet
facet normal 0 0 0.9999999999999999
outer loop
vertex -2.25 -1.475 1.2
vertex 2.25 -1.125 1.2
vertex -2.25 -0.825 1.2
endloop
endfacet
facet normal 0 0 1
outer loop
vertex -2.25 -1.475 1.2
vertex 2.25 -1.475 1.2
vertex 2.25 -1.125 1.2
endloop
endfacet
facet normal 0 0 1
outer loop
vertex -2.25 -1.775 1.2
vertex 2.25 -1.475 1.2
vertex -2.25 -1.475 1.2
endloop
endfacet
facet normal 0 0 1
outer loop
vertex -2.25 -1.775 1.2
vertex 2.25 -1.775 1.2
vertex 2.25 -1.475 1.2
endloop
endfacet
facet normal 0 0 0.9999999999999999
outer loop
vertex -2.25 -2.125 1.2
vertex 2.25 -1.775 1.2
vertex -2.25 -1.775 1.2
endloop
endfacet
facet normal 0 0 1
outer loop
vertex -2.25 -2.125 1.2
vertex 2.25 -2.125 1.2
vertex 2.25 -1.775 1.2
endloop
endfacet
facet normal 0 0 1
outer loop
vertex -2.25 -2.425 1.2
vertex 2.25 -2.125 1.2
vertex -2.25 -2.125 1.2
endloop
endfacet
facet normal 0 0 1
outer loop
vertex -2.25 -2.425 1.2
vertex 2.25 -2.425 1.2
vertex 2.25 -2.125 1.2
endloop
endfacet
facet normal 0 0 1
outer loop
vertex -2.25 -2.425 1.2
vertex 2.25 -2.775 1.2
vertex 2.25 -2.425 1.2
endloop
endfacet
facet normal -2.4671622769447922e-17 0 1
outer loop
vertex -2.25 -3.425 1.2
vertex 2.25 -2.775 1.2
vertex -2.25 -2.425 1.2
endloop
endfacet
facet normal 0 0 0.9999999999999999
outer loop
vertex -2.25 -3.425 1.2
vertex 2.25 -3.425 1.2
vertex 2.25 -2.775 1.2
endloop
endfacet
facet normal 0 0 1
outer loop
vertex -2.25 -3.725 1.2
vertex 2.25 -3.425 1.2
vertex -2.25 -3.425 1.2
endloop
endfacet
facet normal 0 0 0.9999999999999999
outer loop
vertex -2.25 -3.725 1.2
vertex 2.25 -3.725 1.2
vertex 2.25 -3.425 1.2
endloop
endfacet
facet normal 0 0 1
outer loop
vertex -2.25 -3.95 1.2
vertex 2.25 -3.725 1.2
vertex -2.25 -3.725 1.2
endloop
endfacet
facet normal 0 0 1
outer loop
vertex 2.25 -3.725 1.2
vertex -2.25 -3.95 1.2
vertex 2.25 -3.95 1.2
endloop
endfacet
facet normal 0 0 -1
outer loop
vertex 2.25 3.725 0
vertex -2.25 3.95 0
vertex 2.25 3.95 0
endloop
endfacet
facet normal 0 0 -1
outer loop
vertex -2.25 3.95 0
vertex 2.25 3.725 0
vertex -2.25 3.725 0
endloop
endfacet
facet normal 0 0 -1
outer loop
vertex -2.25 3.075 0
vertex 2.25 3.425 0
vertex 2.25 3.075 0
endloop
endfacet
facet normal 0 0 -1
outer loop
vertex 2.25 3.425 0
vertex -2.25 3.075 0
vertex -2.25 3.425 0
endloop
endfacet
facet normal 0 0 -1
outer loop
vertex -2.25 2.425 0
vertex 2.25 2.775 0
vertex 2.25 2.425 0
endloop
endfacet
facet normal 0 0 -1
outer loop
vertex 2.25 2.775 0
vertex -2.25 2.425 0
vertex -2.25 2.775 0
endloop
endfacet
facet normal 0 0 -0.9999999999999999
outer loop
vertex -2.25 1.775 0
vertex 2.25 2.125 0
vertex 2.25 1.775 0
endloop
endfacet
facet normal 0 0 -1
outer loop
vertex 2.25 2.125 0
vertex -2.25 1.775 0
vertex -2.25 2.125 0
endloop
endfacet
facet normal 0 0 -0.9999999999999999
outer loop
vertex -2.25 1.125 0
vertex 2.25 1.475 0
vertex 2.25 1.125 0
endloop
endfacet
facet normal 0 0 -1
outer loop
vertex 2.25 1.475 0
vertex -2.25 1.125 0
vertex -2.25 1.475 0
endloop
endfacet
facet normal 0 0 -1
outer loop
vertex -2.25 0.475 0
vertex 2.25 0.825 0
vertex 2.25 0.475 0
endloop
endfacet
facet normal 0 0 -1
outer loop
vertex 2.25 0.825 0
vertex -2.25 0.475 0
vertex -2.25 0.825 0
endloop
endfacet
facet normal 0 0 -0.9999999999999999
outer loop
vertex -2.25 -0.175 0
vertex 2.25 0.175 0
vertex 2.25 -0.175 0
endloop
endfacet
facet normal 0 0 -0.9999999999999999
outer loop
vertex 2.25 0.175 0
vertex -2.25 -0.175 0
vertex -2.25 0.175 0
endloop
endfacet
facet normal 0 0 -1
outer loop
vertex -2.25 -0.825 0
vertex 2.25 -0.475 0
vertex 2.25 -0.825 0
endloop
endfacet
facet normal 0 0 -1
outer loop
vertex 2.25 -0.475 0
vertex -2.25 -0.825 0
vertex -2.25 -0.475 0
endloop
endfacet
facet normal 0 0 -1
outer loop
vertex -2.25 -1.475 0
vertex 2.25 -1.125 0
vertex 2.25 -1.475 0
endloop
endfacet
facet normal 0 0 -0.9999999999999999
outer loop
vertex 2.25 -1.125 0
vertex -2.25 -1.475 0
vertex -2.25 -1.125 0
endloop
endfacet
facet normal 0 0 -1
outer loop
vertex -2.25 -2.125 0
vertex 2.25 -1.775 0
vertex 2.25 -2.125 0
endloop
endfacet
facet normal 0 0 -0.9999999999999999
outer loop
vertex 2.25 -1.775 0
vertex -2.25 -2.125 0
vertex -2.25 -1.775 0
endloop
endfacet
facet normal 0 0 -1
outer loop
vertex -2.25 -2.775 0
vertex 2.25 -2.425 0
vertex 2.25 -2.775 0
endloop
endfacet
facet normal 0 0 -1
outer loop
vertex 2.25 -2.425 0
vertex -2.25 -2.775 0
vertex -2.25 -2.425 0
endloop
endfacet
facet normal 0 0 -1
outer loop
vertex -2.25 -3.425 0
vertex 2.25 -3.075 0
vertex 2.25 -3.425 0
endloop
endfacet
facet normal 0 0 -1
outer loop
vertex 2.25 -3.075 0
vertex -2.25 -3.425 0
vertex -2.25 -3.075 0
endloop
endfacet
facet normal 0 0 -1
outer loop
vertex -2.25 -3.95 0
vertex 2.25 -3.725 0
vertex 2.25 -3.95 0
endloop
endfacet
facet normal 0 0 -1
outer loop
vertex 2.25 -3.725 0
vertex -2.25 -3.95 0
vertex -2.25 -3.725 0
endloop
endfacet
facet normal 0 1 0
outer loop
vertex -2.25 3.95 0
vertex 2.25 3.95 1.2
vertex 2.25 3.95 0
endloop
endfacet
facet normal 0 1 0
outer loop
vertex 2.25 3.95 1.2
vertex -2.25 3.95 0
vertex -2.25 3.95 1.2
endloop
endfacet
facet normal 0 -1 0
outer loop
vertex 2.25 -3.075 0.25
vertex 3.3 -3.075 0
vertex 3.3 -3.075 0.25
endloop
endfacet
facet normal 0 -1 0
outer loop
vertex -2.25 -3.075 0.25
vertex 3.3 -3.075 0
vertex 2.25 -3.075 0.25
endloop
endfacet
facet normal 0 -1 0
outer loop
vertex -2.25 -3.075 0.25
vertex -2.25 -3.075 0
vertex 3.3 -3.075 0
endloop
endfacet
facet normal 0 -1 0
outer loop
vertex -3.3 -3.075 0.25
vertex -2.25 -3.075 0
vertex -2.25 -3.075 0.25
endloop
endfacet
facet normal 0 -1 0
outer loop
vertex -2.25 -3.075 0
vertex -3.3 -3.075 0.25
vertex -3.3 -3.075 0
endloop
endfacet
facet normal -1 0 0
outer loop
vertex -3.3 -3.075 0
vertex -3.3 -2.775 0.25
vertex -3.3 -2.775 0
endloop
endfacet
facet normal -1 0 0
outer loop
vertex -3.3 -2.775 0.25
vertex -3.3 -3.075 0
vertex -3.3 -3.075 0.25
endloop
endfacet
facet normal 0 1 0
outer loop
vertex 2.25 -2.775 0
vertex 3.3 -2.775 0.25
vertex 3.3 -2.775 0
endloop
endfacet
facet normal 0 1 1.578983857244667e-15
outer loop
vertex -2.25 -2.775 0
vertex 3.3 -2.775 0.25
vertex 2.25 -2.775 0
endloop
endfacet
facet normal 0 1 0
outer loop
vertex -2.25 -2.775 0
vertex -2.25 -2.775 0.25
vertex 3.3 -2.775 0.25
endloop
endfacet
facet normal 0 1 0
outer loop
vertex -3.3 -2.775 0
vertex -2.25 -2.775 0.25
vertex -2.25 -2.775 0
endloop
endfacet
facet normal 0 1 0
outer loop
vertex -2.25 -2.775 0.25
vertex -3.3 -2.775 0
vertex -3.3 -2.775 0.25
endloop
endfacet
facet normal 1 0 0
outer loop
vertex 3.3 -3.075 0.25
vertex 3.3 -2.775 0
vertex 3.3 -2.775 0.25
endloop
endfacet
facet normal 1 0 0
outer loop
vertex 3.3 -2.775 0
vertex 3.3 -3.075 0.25
vertex 3.3 -3.075 0
endloop
endfacet
facet normal 0 0 1
outer loop
vertex 3.3 -2.775 0.25
vertex 2.25 -3.075 0.25
vertex 3.3 -3.075 0.25
endloop
endfacet
facet normal 0 0 1
outer loop
vertex -2.25 -2.775 0.25
vertex 2.25 -3.075 0.25
vertex 3.3 -2.775 0.25
endloop
endfacet
facet normal 0 0 1
outer loop
vertex -2.25 -2.775 0.25
vertex -2.25 -3.075 0.25
vertex 2.25 -3.075 0.25
endloop
endfacet
facet normal 0 0 1
outer loop
vertex -3.3 -2.775 0.25
vertex -2.25 -3.075 0.25
vertex -2.25 -2.775 0.25
endloop
endfacet
facet normal 0 0 1
outer loop
vertex -2.25 -3.075 0.25
vertex -3.3 -2.775 0.25
vertex -3.3 -3.075 0.25
endloop
endfacet
facet normal 0 0 -1
outer loop
vertex 3.3 -3.075 0
vertex 2.25 -2.775 0
vertex 3.3 -2.775 0
endloop
endfacet
facet normal 0 0 -1
outer loop
vertex -2.25 -3.075 0
vertex 2.25 -2.775 0
vertex 3.3 -3.075 0
endloop
endfacet
facet normal 0 0 -1
outer loop
vertex -2.25 -3.075 0
vertex -2.25 -2.775 0
vertex 2.25 -2.775 0
endloop
endfacet
facet normal 0 0 -1
outer loop
vertex -3.3 -3.075 0
vertex -2.25 -2.775 0
vertex -2.25 -3.075 0
endloop
endfacet
facet normal 0 0 -1
outer loop
vertex -2.25 -2.775 0
vertex -3.3 -3.075 0
vertex -3.3 -2.775 0
endloop
endfacet
facet normal 0 -1 0
outer loop
vertex -2.25 -2.425 0.25
vertex 3.3 -2.425 0
vertex 3.3 -2.425 0.25
endloop
endfacet
facet normal 0 -1 0
outer loop
vertex -2.25 -2.425 0.25
vertex -2.25 -2.425 0
vertex 3.3 -2.425 0
endloop
endfacet
facet normal 0 -1 0
outer loop
vertex -3.3 -2.425 0.25
vertex -2.25 -2.425 0
vertex -2.25 -2.425 0.25
endloop
endfacet
facet normal 0 -1 0
outer loop
vertex -2.25 -2.425 0
vertex -3.3 -2.425 0.25
vertex -3.3 -2.425 0
endloop
endfacet
facet normal -1 0 0
outer loop
vertex -3.3 -2.425 0
vertex -3.3 -2.125 0.25
vertex -3.3 -2.125 0
endloop
endfacet
facet normal -1 0 0
outer loop
vertex -3.3 -2.125 0.25
vertex -3.3 -2.425 0
vertex -3.3 -2.425 0.25
endloop
endfacet
facet normal 0 1 0
outer loop
vertex 2.25 -2.125 0
vertex 3.3 -2.125 0.25
vertex 3.3 -2.125 0
endloop
endfacet
facet normal 0 1 0
outer loop
vertex 2.25 -2.125 0
vertex 2.25 -2.125 0.25
vertex 3.3 -2.125 0.25
endloop
endfacet
facet normal 0 1 0
outer loop
vertex 2.25 -2.125 0
vertex -2.25 -2.125 0.25
vertex 2.25 -2.125 0.25
endloop
endfacet
facet normal 0 1 0
outer loop
vertex -2.25 -2.125 0
vertex -2.25 -2.125 0.25
vertex 2.25 -2.125 0
endloop
endfacet
facet normal 0 1 0
outer loop
vertex -3.3 -2.125 0
vertex -2.25 -2.125 0.25
vertex -2.25 -2.125 0
endloop
endfacet
facet normal 0 1 0
outer loop
vertex -2.25 -2.125 0.25
vertex -3.3 -2.125 0
vertex -3.3 -2.125 0.25
endloop
endfacet
facet normal 1 0 0
outer loop
vertex 3.3 -2.425 0.25
vertex 3.3 -2.125 0
vertex 3.3 -2.125 0.25
endloop
endfacet
facet normal 1 0 0
outer loop
vertex 3.3 -2.125 0
vertex 3.3 -2.425 0.25
vertex 3.3 -2.425 0
endloop
endfacet
facet normal 0 0 1
outer loop
vertex 2.25 -2.125 0.25
vertex 3.3 -2.425 0.25
vertex 3.3 -2.125 0.25
endloop
endfacet
facet normal 0 0 1
outer loop
vertex -2.25 -2.125 0.25
vertex 3.3 -2.425 0.25
vertex 2.25 -2.125 0.25
endloop
endfacet
facet normal 0 0 1
outer loop
vertex -2.25 -2.125 0.25
vertex -2.25 -2.425 0.25
vertex 3.3 -2.425 0.25
endloop
endfacet
facet normal 0 0 1
outer loop
vertex -3.3 -2.125 0.25
vertex -2.25 -2.425 0.25
vertex -2.25 -2.125 0.25
endloop
endfacet
facet normal 0 0 1
outer loop
vertex -2.25 -2.425 0.25
vertex -3.3 -2.125 0.25
vertex -3.3 -2.425 0.25
endloop
endfacet
facet normal 0 0 -1
outer loop
vertex 3.3 -2.425 0
vertex 2.25 -2.125 0
vertex 3.3 -2.125 0
endloop
endfacet
facet normal 0 0 -1
outer loop
vertex 3.3 -2.425 0
vertex -2.25 -2.125 0
vertex 2.25 -2.125 0
endloop
endfacet
facet normal 0 0 -1
outer loop
vertex -2.25 -2.425 0
vertex -2.25 -2.125 0
vertex 3.3 -2.425 0
endloop
endfacet
facet normal 0 0 -1
outer loop
vertex -3.3 -2.425 0
vertex -2.25 -2.125 0
vertex -2.25 -2.425 0
endloop
endfacet
facet normal 0 0 -1
outer loop
vertex -2.25 -2.125 0
vertex -3.3 -2.425 0
vertex -3.3 -2.125 0
endloop
endfacet
facet normal 0 -1 0
outer loop
vertex -2.25 -1.775 0.25
vertex 3.3 -1.775 0
vertex 3.3 -1.775 0.25
endloop
endfacet
facet normal 0 -1 0
outer loop
vertex -2.25 -1.775 0.25
vertex -2.25 -1.775 0
vertex 3.3 -1.775 0
endloop
endfacet
facet normal 0 -1 0
outer loop
vertex -3.3 -1.775 0.25
vertex -2.25 -1.775 0
vertex -2.25 -1.775 0.25
endloop
endfacet
facet normal 0 -1 0
outer loop
vertex -2.25 -1.775 0
vertex -3.3 -1.775 0.25
vertex -3.3 -1.775 0
endloop
endfacet
facet normal -1 0 0
outer loop
vertex -3.3 -1.775 0
vertex -3.3 -1.475 0.25
vertex -3.3 -1.475 0
endloop
endfacet
facet normal -1 0 0
outer loop
vertex -3.3 -1.475 0.25
vertex -3.3 -1.775 0
vertex -3.3 -1.775 0.25
endloop
endfacet
facet normal 0 1 0
outer loop
vertex 2.25 -1.475 0
vertex 3.3 -1.475 0.25
vertex 3.3 -1.475 0
endloop
endfacet
facet normal 0 1 0
outer loop
vertex 2.25 -1.475 0
vertex 2.25 -1.475 0.25
vertex 3.3 -1.475 0.25
endloop
endfacet
facet normal 0 1 0
outer loop
vertex 2.25 -1.475 0
vertex -2.25 -1.475 0.25
vertex 2.25 -1.475 0.25
endloop
endfacet
facet normal 0 1 0
outer loop
vertex -2.25 -1.475 0
vertex -2.25 -1.475 0.25
vertex 2.25 -1.475 0
endloop
endfacet
facet normal 0 1 0
outer loop
vertex -3.3 -1.475 0
vertex -2.25 -1.475 0.25
vertex -2.25 -1.475 0
endloop
endfacet
facet normal 0 1 0
outer loop
vertex -2.25 -1.475 0.25
vertex -3.3 -1.475 0
vertex -3.3 -1.475 0.25
endloop
endfacet
facet normal 1 0 0
outer loop
vertex 3.3 -1.775 0.25
vertex 3.3 -1.475 0
vertex 3.3 -1.475 0.25
endloop
endfacet
facet normal 1 0 0
outer loop
vertex 3.3 -1.475 0
vertex 3.3 -1.775 0.25
vertex 3.3 -1.775 0
endloop
endfacet
facet normal 0 0 1
outer loop
vertex -3.3 -1.475 0.25
vertex 3.3 -1.475 0.25
vertex 2.25 -1.475 0.25
endloop
endfacet
facet normal 0 0 1
outer loop
vertex -3.3 -1.775 0.25
vertex 3.3 -1.475 0.25
vertex -3.3 -1.475 0.25
endloop
endfacet
facet normal 0 0 1
outer loop
vertex -2.25 -1.775 0.25
vertex 3.3 -1.475 0.25
vertex -3.3 -1.775 0.25
endloop
endfacet
facet normal 0 0 1
outer loop
vertex 3.3 -1.475 0.25
vertex -2.25 -1.775 0.25
vertex 3.3 -1.775 0.25
endloop
endfacet
facet normal 0 0 -1
outer loop
vertex 3.3 -1.775 0
vertex 2.25 -1.475 0
vertex 3.3 -1.475 0
endloop
endfacet
facet normal 0 0 -1
outer loop
vertex 3.3 -1.775 0
vertex -2.25 -1.475 0
vertex 2.25 -1.475 0
endloop
endfacet
facet normal 0 0 -1
outer loop
vertex -2.25 -1.775 0
vertex -2.25 -1.475 0
vertex 3.3 -1.775 0
endloop
endfacet
facet normal 0 0 -1
outer loop
vertex -3.3 -1.775 0
vertex -2.25 -1.475 0
vertex -2.25 -1.775 0
endloop
endfacet
facet normal 0 0 -1
outer loop
vertex -2.25 -1.475 0
vertex -3.3 -1.775 0
vertex -3.3 -1.475 0
endloop
endfacet
facet normal 0 -1 0
outer loop
vertex -2.25 -1.125 0.25
vertex 3.3 -1.125 0
vertex 3.3 -1.125 0.25
endloop
endfacet
facet normal 0 -1 0
outer loop
vertex -2.25 -1.125 0.25
vertex -2.25 -1.125 0
vertex 3.3 -1.125 0
endloop
endfacet
facet normal 0 -1 0
outer loop
vertex -3.3 -1.125 0.25
vertex -2.25 -1.125 0
vertex -2.25 -1.125 0.25
endloop
endfacet
facet normal 0 -1 0
outer loop
vertex -2.25 -1.125 0
vertex -3.3 -1.125 0.25
vertex -3.3 -1.125 0
endloop
endfacet
facet normal -1 0 0
outer loop
vertex -3.3 -1.125 0
vertex -3.3 -0.825 0.25
vertex -3.3 -0.825 0
endloop
endfacet
facet normal -1 0 0
outer loop
vertex -3.3 -0.825 0.25
vertex -3.3 -1.125 0
vertex -3.3 -1.125 0.25
endloop
endfacet
facet normal 0 1 0
outer loop
vertex 2.25 -0.825 0
vertex 3.3 -0.825 0.25
vertex 3.3 -0.825 0
endloop
endfacet
facet normal 0 1 0
outer loop
vertex 2.25 -0.825 0
vertex 2.25 -0.825 0.25
vertex 3.3 -0.825 0.25
endloop
endfacet
facet normal 0 1 0
outer loop
vertex 2.25 -0.825 0
vertex -2.25 -0.825 0.25
vertex 2.25 -0.825 0.25
endloop
endfacet
facet normal 0 1 0
outer loop
vertex -2.25 -0.825 0
vertex -2.25 -0.825 0.25
vertex 2.25 -0.825 0
endloop
endfacet
facet normal 0 1 0
outer loop
vertex -3.3 -0.825 0
vertex -2.25 -0.825 0.25
vertex -2.25 -0.825 0
endloop
endfacet
facet normal 0 1 0
outer loop
vertex -2.25 -0.825 0.25
vertex -3.3 -0.825 0
vertex -3.3 -0.825 0.25
endloop
endfacet
facet normal 1 0 0
outer loop
vertex 3.3 -1.125 0.25
vertex 3.3 -0.825 0
vertex 3.3 -0.825 0.25
endloop
endfacet
facet normal 1 0 0
outer loop
vertex 3.3 -0.825 0
vertex 3.3 -1.125 0.25
vertex 3.3 -1.125 0
endloop
endfacet
facet normal 0 0 -1
outer loop
vertex -2.25 -0.825 0.25
vertex 3.3 -0.825 0.25
vertex 2.25 -0.825 0.25
endloop
endfacet
facet normal 0 0 1
outer loop
vertex -3.3 -1.125 0.25
vertex -2.25 -0.825 0.25
vertex -3.3 -0.825 0.25
endloop
endfacet
facet normal 0 0 1
outer loop
vertex -3.3 -1.125 0.25
vertex 3.3 -0.825 0.25
vertex -2.25 -0.825 0.25
endloop
endfacet
facet normal 0 0 1
outer loop
vertex -2.25 -1.125 0.25
vertex 3.3 -0.825 0.25
vertex -3.3 -1.125 0.25
endloop
endfacet
facet normal 0 0 1
outer loop
vertex 3.3 -0.825 0.25
vertex -2.25 -1.125 0.25
vertex 3.3 -1.125 0.25
endloop
endfacet
facet normal 0 0 -1
outer loop
vertex 3.3 -1.125 0
vertex 2.25 -0.825 0
vertex 3.3 -0.825 0
endloop
endfacet
facet normal 0 0 -1
outer loop
vertex 3.3 -1.125 0
vertex -2.25 -0.825 0
vertex 2.25 -0.825 0
endloop
endfacet
facet normal 0 0 -1
outer loop
vertex -2.25 -1.125 0
vertex -2.25 -0.825 0
vertex 3.3 -1.125 0
endloop
endfacet
facet normal 0 0 -1
outer loop
vertex -3.3 -1.125 0
vertex -2.25 -0.825 0
vertex -2.25 -1.125 0
endloop
endfacet
facet normal 0 0 -1
outer loop
vertex -2.25 -0.825 0
vertex -3.3 -1.125 0
vertex -3.3 -0.825 0
endloop
endfacet
facet normal 0 -1 0
outer loop
vertex -2.25 -0.475 0.25
vertex 3.3 -0.475 0
vertex 3.3 -0.475 0.25
endloop
endfacet
facet normal 0 -1 0
outer loop
vertex -2.25 -0.475 0.25
vertex -2.25 -0.475 0
vertex 3.3 -0.475 0
endloop
endfacet
facet normal 0 -1 0
outer loop
vertex -3.3 -0.475 0.25
vertex -2.25 -0.475 0
vertex -2.25 -0.475 0.25
endloop
endfacet
facet normal 0 -1 0
outer loop
vertex -2.25 -0.475 0
vertex -3.3 -0.475 0.25
vertex -3.3 -0.475 0
endloop
endfacet
facet normal -1 0 0
outer loop
vertex -3.3 -0.475 0
vertex -3.3 -0.175 0.25
vertex -3.3 -0.175 0
endloop
endfacet
facet normal -1 0 0
outer loop
vertex -3.3 -0.175 0.25
vertex -3.3 -0.475 0
vertex -3.3 -0.475 0.25
endloop
endfacet
facet normal 0 1 0
outer loop
vertex 2.25 -0.175 0
vertex 3.3 -0.175 0.25
vertex 3.3 -0.175 0
endloop
endfacet
facet normal 0 1 0
outer loop
vertex 2.25 -0.175 0
vertex 2.25 -0.175 0.25
vertex 3.3 -0.175 0.25
endloop
endfacet
facet normal 0 1 0
outer loop
vertex 2.25 -0.175 0
vertex -2.25 -0.175 0.25
vertex 2.25 -0.175 0.25
endloop
endfacet
facet normal 0 1 0
outer loop
vertex -2.25 -0.175 0
vertex -2.25 -0.175 0.25
vertex 2.25 -0.175 0
endloop
endfacet
facet normal 0 1 0
outer loop
vertex -3.3 -0.175 0
vertex -2.25 -0.175 0.25
vertex -2.25 -0.175 0
endloop
endfacet
facet normal 0 1 0
outer loop
vertex -2.25 -0.175 0.25
vertex -3.3 -0.175 0
vertex -3.3 -0.175 0.25
endloop
endfacet
facet normal 1 0 0
outer loop
vertex 3.3 -0.475 0.25
vertex 3.3 -0.175 0
vertex 3.3 -0.175 0.25
endloop
endfacet
facet normal 1 0 0
outer loop
vertex 3.3 -0.175 0
vertex 3.3 -0.475 0.25
vertex 3.3 -0.475 0
endloop
endfacet
facet normal 0 0 -1
outer loop
vertex -3.3 -0.175 0.25
vertex 3.3 -0.175 0.25
vertex -2.25 -0.175 0.25
endloop
endfacet
facet normal 0 0 1
outer loop
vertex -3.3 -0.475 0.25
vertex 3.3 -0.175 0.25
vertex -3.3 -0.175 0.25
endloop
endfacet
facet normal 0 0 1
outer loop
vertex -2.25 -0.475 0.25
vertex 3.3 -0.175 0.25
vertex -3.3 -0.475 0.25
endloop
endfacet
facet normal 0 0 0.9999999999999999
outer loop
vertex 3.3 -0.175 0.25
vertex -2.25 -0.475 0.25
vertex 3.3 -0.475 0.25
endloop
endfacet
facet normal 0 0 -1
outer loop
vertex 3.3 -0.475 0
vertex 2.25 -0.175 0
vertex 3.3 -0.175 0
endloop
endfacet
facet normal 0 0 -1
outer loop
vertex 3.3 -0.475 0
vertex -2.25 -0.175 0
vertex 2.25 -0.175 0
endloop
endfacet
facet normal 0 0 -0.9999999999999999
outer loop
vertex -2.25 -0.475 0
vertex -2.25 -0.175 0
vertex 3.3 -0.475 0
endloop
endfacet
facet normal 0 0 -1
outer loop
vertex -3.3 -0.475 0
vertex -2.25 -0.175 0
vertex -2.25 -0.475 0
endloop
endfacet
facet normal 0 0 -1
outer loop
vertex -2.25 -0.175 0
vertex -3.3 -0.475 0
vertex -3.3 -0.175 0
endloop
endfacet
facet normal 0 -1 0
outer loop
vertex -2.25 0.175 0.25
vertex 3.3 0.175 0
vertex 3.3 0.175 0.25
endloop
endfacet
facet normal 0 -1 0
outer loop
vertex -2.25 0.175 0.25
vertex -2.25 0.175 0
vertex 3.3 0.175 0
endloop
endfacet
facet normal 0 -1 0
outer loop
vertex -3.3 0.175 0.25
vertex -2.25 0.175 0
vertex -2.25 0.175 0.25
endloop
endfacet
facet normal 0 -1 0
outer loop
vertex -2.25 0.175 0
vertex -3.3 0.175 0.25
vertex -3.3 0.175 0
endloop
endfacet
facet normal -1 0 0
outer loop
vertex -3.3 0.175 0
vertex -3.3 0.475 0.25
vertex -3.3 0.475 0
endloop
endfacet
facet normal -1 0 0
outer loop
vertex -3.3 0.475 0.25
vertex -3.3 0.175 0
vertex -3.3 0.175 0.25
endloop
endfacet
facet normal 0 1 0
outer loop
vertex 2.25 0.475 0
vertex 3.3 0.475 0.25
vertex 3.3 0.475 0
endloop
endfacet
facet normal 0 1 0
outer loop
vertex 2.25 0.475 0
vertex 2.25 0.475 0.25
vertex 3.3 0.475 0.25
endloop
endfacet
facet normal 0 1 0
outer loop
vertex 2.25 0.475 0
vertex -2.25 0.475 0.25
vertex 2.25 0.475 0.25
endloop
endfacet
facet normal 0 1 0
outer loop
vertex -2.25 0.475 0
vertex -2.25 0.475 0.25
vertex 2.25 0.475 0
endloop
endfacet
facet normal 0 1 0
outer loop
vertex -3.3 0.475 0
vertex -2.25 0.475 0.25
vertex -2.25 0.475 0
endloop
endfacet
facet normal 0 1 0
outer loop
vertex -2.25 0.475 0.25
vertex -3.3 0.475 0
vertex -3.3 0.475 0.25
endloop
endfacet
facet normal 1 0 0
outer loop
vertex 3.3 0.175 0.25
vertex 3.3 0.475 0
vertex 3.3 0.475 0.25
endloop
endfacet
facet normal 1 0 0
outer loop
vertex 3.3 0.475 0
vertex 3.3 0.175 0.25
vertex 3.3 0.175 0
endloop
endfacet
facet normal 0 0 -1
outer loop
vertex -2.25 0.475 0.25
vertex 3.3 0.475 0.25
vertex 2.25 0.475 0.25
endloop
endfacet
facet normal 0 0 1
outer loop
vertex -3.3 0.175 0.25
vertex 3.3 0.475 0.25
vertex -3.3 0.475 0.25
endloop
endfacet
facet normal 0 0 1
outer loop
vertex -2.25 0.175 0.25
vertex 3.3 0.475 0.25
vertex -3.3 0.175 0.25
endloop
endfacet
facet normal 0 0 1
outer loop
vertex 3.3 0.475 0.25
vertex -2.25 0.175 0.25
vertex 3.3 0.175 0.25
endloop
endfacet
facet normal 0 0 -1
outer loop
vertex 3.3 0.175 0
vertex 2.25 0.475 0
vertex 3.3 0.475 0
endloop
endfacet
facet normal 0 0 -1
outer loop
vertex 3.3 0.175 0
vertex -2.25 0.475 0
vertex 2.25 0.475 0
endloop
endfacet
facet normal 0 0 -1
outer loop
vertex -2.25 0.175 0
vertex -2.25 0.475 0
vertex 3.3 0.175 0
endloop
endfacet
facet normal 0 0 -1
outer loop
vertex -3.3 0.175 0
vertex -2.25 0.475 0
vertex -2.25 0.175 0
endloop
endfacet
facet normal 0 0 -1
outer loop
vertex -2.25 0.475 0
vertex -3.3 0.175 0
vertex -3.3 0.475 0
endloop
endfacet
facet normal 0 -1 0
outer loop
vertex -2.25 0.825 0.25
vertex 3.3 0.825 0
vertex 3.3 0.825 0.25
endloop
endfacet
facet normal 0 -1 0
outer loop
vertex -2.25 0.825 0.25
vertex -2.25 0.825 0
vertex 3.3 0.825 0
endloop
endfacet
facet normal 0 -1 0
outer loop
vertex -3.3 0.825 0.25
vertex -2.25 0.825 0
vertex -2.25 0.825 0.25
endloop
endfacet
facet normal 0 -1 0
outer loop
vertex -2.25 0.825 0
vertex -3.3 0.825 0.25
vertex -3.3 0.825 0
endloop
endfacet
facet normal -1 0 0
outer loop
vertex -3.3 0.825 0
vertex -3.3 1.125 0.25
vertex -3.3 1.125 0
endloop
endfacet
facet normal -1 0 0
outer loop
vertex -3.3 1.125 0.25
vertex -3.3 0.825 0
vertex -3.3 0.825 0.25
endloop
endfacet
facet normal 0 1 0
outer loop
vertex 2.25 1.125 0
vertex 3.3 1.125 0.25
vertex 3.3 1.125 0
endloop
endfacet
facet normal 0 1 0
outer loop
vertex 2.25 1.125 0
vertex 2.25 1.125 0.25
vertex 3.3 1.125 0.25
endloop
endfacet
facet normal 0 1 0
outer loop
vertex 2.25 1.125 0
vertex -2.25 1.125 0.25
vertex 2.25 1.125 0.25
endloop
endfacet
facet normal 0 1 0
outer loop
vertex -2.25 1.125 0
vertex -2.25 1.125 0.25
vertex 2.25 1.125 0
endloop
endfacet
facet normal 0 1 0
outer loop
vertex -3.3 1.125 0
vertex -2.25 1.125 0.25
vertex -2.25 1.125 0
endloop
endfacet
facet normal 0 1 0
outer loop
vertex -2.25 1.125 0.25
vertex -3.3 1.125 0
vertex -3.3 1.125 0.25
endloop
endfacet
facet normal 1 0 0
outer loop
vertex 3.3 0.825 0.25
vertex 3.3 1.125 0
vertex 3.3 1.125 0.25
endloop
endfacet
facet normal 1 0 0
outer loop
vertex 3.3 1.125 0
vertex 3.3 0.825 0.25
vertex 3.3 0.825 0
endloop
endfacet
facet normal 0 0 -1
outer loop
vertex -3.3 1.125 0.25
vertex 3.3 1.125 0.25
vertex 2.25 1.125 0.25
endloop
endfacet
facet normal 0 0 1
outer loop
vertex -3.3 0.825 0.25
vertex 3.3 1.125 0.25
vertex -3.3 1.125 0.25
endloop
endfacet
facet normal 0 0 1
outer loop
vertex -2.25 0.825 0.25
vertex 3.3 1.125 0.25
vertex -3.3 0.825 0.25
endloop
endfacet
facet normal 0 0 1
outer loop
vertex 3.3 1.125 0.25
vertex -2.25 0.825 0.25
vertex 3.3 0.825 0.25
endloop
endfacet
facet normal 0 0 -1
outer loop
vertex 3.3 0.825 0
vertex 2.25 1.125 0
vertex 3.3 1.125 0
endloop
endfacet
facet normal 0 0 -1
outer loop
vertex 3.3 0.825 0
vertex -2.25 1.125 0
vertex 2.25 1.125 0
endloop
endfacet
facet normal 0 0 -1
outer loop
vertex -2.25 0.825 0
vertex -2.25 1.125 0
vertex 3.3 0.825 0
endloop
endfacet
facet normal 0 0 -1
outer loop
vertex -3.3 0.825 0
vertex -2.25 1.125 0
vertex -2.25 0.825 0
endloop
endfacet
facet normal 0 0 -1
outer loop
vertex -2.25 1.125 0
vertex -3.3 0.825 0
vertex -3.3 1.125 0
endloop
endfacet
facet normal 0 -1 0
outer loop
vertex -2.25 -3.725 0.25
vertex 3.3 -3.725 0
vertex 3.3 -3.725 0.25
endloop
endfacet
facet normal 0 -1 0
outer loop
vertex -2.25 -3.725 0.25
vertex -2.25 -3.725 0
vertex 3.3 -3.725 0
endloop
endfacet
facet normal 0 -1 0
outer loop
vertex -3.3 -3.725 0.25
vertex -2.25 -3.725 0
vertex -2.25 -3.725 0.25
endloop
endfacet
facet normal 0 -1 0
outer loop
vertex -2.25 -3.725 0
vertex -3.3 -3.725 0.25
vertex -3.3 -3.725 0
endloop
endfacet
facet normal -1 0 0
outer loop
vertex -3.3 -3.425 0
vertex -3.3 -3.725 0.25
vertex -3.3 -3.425 0.25
endloop
endfacet
facet normal -1 0 0
outer loop
vertex -3.3 -3.725 0.25
vertex -3.3 -3.425 0
vertex -3.3 -3.725 0
endloop
endfacet
facet normal 0 1 0
outer loop
vertex 2.25 -3.425 0
vertex 3.3 -3.425 0.25
vertex 3.3 -3.425 0
endloop
endfacet
facet normal 0 1 0
outer loop
vertex 2.25 -3.425 0
vertex 2.25 -3.425 0.25
vertex 3.3 -3.425 0.25
endloop
endfacet
facet normal 0 1 0
outer loop
vertex 2.25 -3.425 0
vertex -2.25 -3.425 0.25
vertex 2.25 -3.425 0.25
endloop
endfacet
facet normal 0 1 0
outer loop
vertex -2.25 -3.425 0
vertex -2.25 -3.425 0.25
vertex 2.25 -3.425 0
endloop
endfacet
facet normal 0 1 0
outer loop
vertex -3.3 -3.425 0
vertex -2.25 -3.425 0.25
vertex -2.25 -3.425 0
endloop
endfacet
facet normal 0 1 0
outer loop
vertex -2.25 -3.425 0.25
vertex -3.3 -3.425 0
vertex -3.3 -3.425 0.25
endloop
endfacet
facet normal 1 0 0
outer loop
vertex 3.3 -3.725 0
vertex 3.3 -3.425 0.25
vertex 3.3 -3.725 0.25
endloop
endfacet
facet normal 1 0 0
outer loop
vertex 3.3 -3.425 0.25
vertex 3.3 -3.725 0
vertex 3.3 -3.425 0
endloop
endfacet
facet normal 0 0 1
outer loop
vertex 2.25 -3.425 0.25
vertex 3.3 -3.725 0.25
vertex 3.3 -3.425 0.25
endloop
endfacet
facet normal 0 0 1
outer loop
vertex -2.25 -3.425 0.25
vertex 3.3 -3.725 0.25
vertex 2.25 -3.425 0.25
endloop
endfacet
facet normal 0 0 1
outer loop
vertex -2.25 -3.425 0.25
vertex -2.25 -3.725 0.25
vertex 3.3 -3.725 0.25
endloop
endfacet
facet normal 0 0 1
outer loop
vertex -3.3 -3.425 0.25
vertex -2.25 -3.725 0.25
vertex -2.25 -3.425 0.25
endloop
endfacet
facet normal 0 0 1
outer loop
vertex -2.25 -3.725 0.25
vertex -3.3 -3.425 0.25
vertex -3.3 -3.725 0.25
endloop
endfacet
facet normal 0 0 -1
outer loop
vertex 3.3 -3.725 0
vertex 2.25 -3.425 0
vertex 3.3 -3.425 0
endloop
endfacet
facet normal 0 0 -1
outer loop
vertex 3.3 -3.725 0
vertex -2.25 -3.425 0
vertex 2.25 -3.425 0
endloop
endfacet
facet normal 0 0 -1
outer loop
vertex -2.25 -3.725 0
vertex -2.25 -3.425 0
vertex 3.3 -3.725 0
endloop
endfacet
facet normal 0 0 -1
outer loop
vertex -2.25 -3.725 0
vertex -3.3 -3.425 0
vertex -2.25 -3.425 0
endloop
endfacet
facet normal 0 0 -1
outer loop
vertex -3.3 -3.425 0
vertex -2.25 -3.725 0
vertex -3.3 -3.725 0
endloop
endfacet
facet normal 0 -1 0
outer loop
vertex -2.25 1.475 0.25
vertex 3.3 1.475 0
vertex 3.3 1.475 0.25
endloop
endfacet
facet normal 0 -1 0
outer loop
vertex -2.25 1.475 0.25
vertex -2.25 1.475 0
vertex 3.3 1.475 0
endloop
endfacet
facet normal 0 -1 0
outer loop
vertex -3.3 1.475 0.25
vertex -2.25 1.475 0
vertex -2.25 1.475 0.25
endloop
endfacet
facet normal 0 -1 0
outer loop
vertex -2.25 1.475 0
vertex -3.3 1.475 0.25
vertex -3.3 1.475 0
endloop
endfacet
facet normal -1 0 0
outer loop
vertex -3.3 1.475 0
vertex -3.3 1.775 0.25
vertex -3.3 1.775 0
endloop
endfacet
facet normal -1 0 0
outer loop
vertex -3.3 1.775 0.25
vertex -3.3 1.475 0
vertex -3.3 1.475 0.25
endloop
endfacet
facet normal 0 1 0
outer loop
vertex 2.25 1.775 0
vertex 3.3 1.775 0.25
vertex 3.3 1.775 0
endloop
endfacet
facet normal 0 1 0
outer loop
vertex 2.25 1.775 0
vertex 2.25 1.775 0.25
vertex 3.3 1.775 0.25
endloop
endfacet
facet normal 0 1 0
outer loop
vertex 2.25 1.775 0
vertex -2.25 1.775 0.25
vertex 2.25 1.775 0.25
endloop
endfacet
facet normal 0 1 0
outer loop
vertex -2.25 1.775 0
vertex -2.25 1.775 0.25
vertex 2.25 1.775 0
endloop
endfacet
facet normal 0 1 0
outer loop
vertex -3.3 1.775 0
vertex -2.25 1.775 0.25
vertex -2.25 1.775 0
endloop
endfacet
facet normal 0 1 0
outer loop
vertex -2.25 1.775 0.25
vertex -3.3 1.775 0
vertex -3.3 1.775 0.25
endloop
endfacet
facet normal 1 0 0
outer loop
vertex 3.3 1.475 0.25
vertex 3.3 1.775 0
vertex 3.3 1.775 0.25
endloop
endfacet
facet normal 1 0 0
outer loop
vertex 3.3 1.775 0
vertex 3.3 1.475 0.25
vertex 3.3 1.475 0
endloop
endfacet
facet normal 0 0 1
outer loop
vertex -3.3 1.475 0.25
vertex 3.3 1.775 0.25
vertex -3.3 1.775 0.25
endloop
endfacet
facet normal 0 0 1
outer loop
vertex -2.25 1.475 0.25
vertex 3.3 1.775 0.25
vertex -3.3 1.475 0.25
endloop
endfacet
facet normal 0 0 1
outer loop
vertex 3.3 1.775 0.25
vertex -2.25 1.475 0.25
vertex 3.3 1.475 0.25
endloop
endfacet
facet normal 0 0 -1
outer loop
vertex 3.3 1.475 0
vertex 2.25 1.775 0
vertex 3.3 1.775 0
endloop
endfacet
facet normal 0 0 -1
outer loop
vertex 3.3 1.475 0
vertex -2.25 1.775 0
vertex 2.25 1.775 0
endloop
endfacet
facet normal 0 0 -1
outer loop
vertex -2.25 1.475 0
vertex -2.25 1.775 0
vertex 3.3 1.475 0
endloop
endfacet
facet normal 0 0 -1
outer loop
vertex -3.3 1.475 0
vertex -2.25 1.775 0
vertex -2.25 1.475 0
endloop
endfacet
facet normal 0 0 -1
outer loop
vertex -2.25 1.775 0
vertex -3.3 1.475 0
vertex -3.3 1.775 0
endloop
endfacet
facet normal 0 -1 0
outer loop
vertex -2.25 2.125 0.25
vertex 3.3 2.125 0
vertex 3.3 2.125 0.25
endloop
endfacet
facet normal 0 -1 0
outer loop
vertex -2.25 2.125 0.25
vertex -2.25 2.125 0
vertex 3.3 2.125 0
endloop
endfacet
facet normal 0 -1 0
outer loop
vertex -3.3 2.125 0.25
vertex -2.25 2.125 0
vertex -2.25 2.125 0.25
endloop
endfacet
facet normal 0 -1 0
outer loop
vertex -2.25 2.125 0
vertex -3.3 2.125 0.25
vertex -3.3 2.125 0
endloop
endfacet
facet normal -1 0 0
outer loop
vertex -3.3 2.125 0
vertex -3.3 2.425 0.25
vertex -3.3 2.425 0
endloop
endfacet
facet normal -1 0 0
outer loop
vertex -3.3 2.425 0.25
vertex -3.3 2.125 0
vertex -3.3 2.125 0.25
endloop
endfacet
facet normal 0 1 0
outer loop
vertex 2.25 2.425 0
vertex 3.3 2.425 0.25
vertex 3.3 2.425 0
endloop
endfacet
facet normal 0 1 0
outer loop
vertex 2.25 2.425 0
vertex 2.25 2.425 0.25
vertex 3.3 2.425 0.25
endloop
endfacet
facet normal 0 1 0
outer loop
vertex 2.25 2.425 0
vertex -2.25 2.425 0.25
vertex 2.25 2.425 0.25
endloop
endfacet
facet normal 0 1 0
outer loop
vertex -2.25 2.425 0
vertex -2.25 2.425 0.25
vertex 2.25 2.425 0
endloop
endfacet
facet normal 0 1 0
outer loop
vertex -3.3 2.425 0
vertex -2.25 2.425 0.25
vertex -2.25 2.425 0
endloop
endfacet
facet normal 0 1 0
outer loop
vertex -2.25 2.425 0.25
vertex -3.3 2.425 0
vertex -3.3 2.425 0.25
endloop
endfacet
facet normal 1 0 0
outer loop
vertex 3.3 2.125 0.25
vertex 3.3 2.425 0
vertex 3.3 2.425 0.25
endloop
endfacet
facet normal 1 0 0
outer loop
vertex 3.3 2.425 0
vertex 3.3 2.125 0.25
vertex 3.3 2.125 0
endloop
endfacet
facet normal 0 0 1
outer loop
vertex -3.3 2.125 0.25
vertex 3.3 2.425 0.25
vertex -3.3 2.425 0.25
endloop
endfacet
facet normal 0 0 1
outer loop
vertex -2.25 2.125 0.25
vertex 3.3 2.425 0.25
vertex -3.3 2.125 0.25
endloop
endfacet
facet normal 0 0 1
outer loop
vertex 3.3 2.425 0.25
vertex -2.25 2.125 0.25
vertex 3.3 2.125 0.25
endloop
endfacet
facet normal 0 0 -1
outer loop
vertex 3.3 2.125 0
vertex 2.25 2.425 0
vertex 3.3 2.425 0
endloop
endfacet
facet normal 0 0 -1
outer loop
vertex 3.3 2.125 0
vertex -2.25 2.425 0
vertex 2.25 2.425 0
endloop
endfacet
facet normal 0 0 -1
outer loop
vertex -2.25 2.125 0
vertex -2.25 2.425 0
vertex 3.3 2.125 0
endloop
endfacet
facet normal 0 0 -1
outer loop
vertex -3.3 2.125 0
vertex -2.25 2.425 0
vertex -2.25 2.125 0
endloop
endfacet
facet normal 0 0 -1
outer loop
vertex -2.25 2.425 0
vertex -3.3 2.125 0
vertex -3.3 2.425 0
endloop
endfacet
facet normal 0 -1 0
outer loop
vertex 3.3 2.775 0.25
vertex 2.25 2.775 0
vertex 3.3 2.775 0
endloop
endfacet
facet normal 0 -1 0
outer loop
vertex 2.25 2.775 0.25
vertex 2.25 2.775 0
vertex 3.3 2.775 0.25
endloop
endfacet
facet normal 0 -1 0
outer loop
vertex -2.25 2.775 0.25
vertex 2.25 2.775 0
vertex 2.25 2.775 0.25
endloop
endfacet
facet normal 0 -1 0
outer loop
vertex -2.25 2.775 0.25
vertex -2.25 2.775 0
vertex 2.25 2.775 0
endloop
endfacet
facet normal 0 -1 0
outer loop
vertex -3.3 2.775 0.25
vertex -2.25 2.775 0
vertex -2.25 2.775 0.25
endloop
endfacet
facet normal 0 -1 0
outer loop
vertex -2.25 2.775 0
vertex -3.3 2.775 0.25
vertex -3.3 2.775 0
endloop
endfacet
facet normal -1 0 0
outer loop
vertex -3.3 2.775 0
vertex -3.3 3.075 0.25
vertex -3.3 3.075 0
endloop
endfacet
facet normal -1 0 0
outer loop
vertex -3.3 3.075 0.25
vertex -3.3 2.775 0
vertex -3.3 2.775 0.25
endloop
endfacet
facet normal 0 1 0
outer loop
vertex 2.25 3.075 0
vertex 3.3 3.075 0.25
vertex 3.3 3.075 0
endloop
endfacet
facet normal 0 1 0
outer loop
vertex 2.25 3.075 0
vertex 2.25 3.075 0.25
vertex 3.3 3.075 0.25
endloop
endfacet
facet normal 0 1 0
outer loop
vertex 2.25 3.075 0
vertex -2.25 3.075 0.25
vertex 2.25 3.075 0.25
endloop
endfacet
facet normal 0 1 0
outer loop
vertex -2.25 3.075 0
vertex -2.25 3.075 0.25
vertex 2.25 3.075 0
endloop
endfacet
facet normal 0 1 0
outer loop
vertex -3.3 3.075 0
vertex -2.25 3.075 0.25
vertex -2.25 3.075 0
endloop
endfacet
facet normal 0 1 0
outer loop
vertex -2.25 3.075 0.25
vertex -3.3 3.075 0
vertex -3.3 3.075 0.25
endloop
endfacet
facet normal 1 0 0
outer loop
vertex 3.3 2.775 0.25
vertex 3.3 3.075 0
vertex 3.3 3.075 0.25
endloop
endfacet
facet normal 1 0 0
outer loop
vertex 3.3 3.075 0
vertex 3.3 2.775 0.25
vertex 3.3 2.775 0
endloop
endfacet
facet normal 0 0 1
outer loop
vertex -3.3 2.775 0.25
vertex 3.3 3.075 0.25
vertex -3.3 3.075 0.25
endloop
endfacet
facet normal 0 0 1
outer loop
vertex -2.25 2.775 0.25
vertex 3.3 3.075 0.25
vertex -3.3 2.775 0.25
endloop
endfacet
facet normal 0 0 1
outer loop
vertex 2.25 2.775 0.25
vertex 3.3 3.075 0.25
vertex -2.25 2.775 0.25
endloop
endfacet
facet normal 0 0 1
outer loop
vertex 3.3 3.075 0.25
vertex 2.25 2.775 0.25
vertex 3.3 2.775 0.25
endloop
endfacet
facet normal 0 0 -1
outer loop
vertex 3.3 2.775 0
vertex 2.25 3.075 0
vertex 3.3 3.075 0
endloop
endfacet
facet normal 0 0 -1
outer loop
vertex 2.25 2.775 0
vertex 2.25 3.075 0
vertex 3.3 2.775 0
endloop
endfacet
facet normal 0 0 -1
outer loop
vertex -2.25 2.775 0
vertex 2.25 3.075 0
vertex 2.25 2.775 0
endloop
endfacet
facet normal 0 0 -1
outer loop
vertex -2.25 2.775 0
vertex -2.25 3.075 0
vertex 2.25 3.075 0
endloop
endfacet
facet normal 0 0 -1
outer loop
vertex -3.3 2.775 0
vertex -2.25 3.075 0
vertex -2.25 2.775 0
endloop
endfacet
facet normal 0 0 -1
outer loop
vertex -2.25 3.075 0
vertex -3.3 2.775 0
vertex -3.3 3.075 0
endloop
endfacet
facet normal 0 -1 0
outer loop
vertex 3.3 3.425 0.25
vertex 2.25 3.425 0
vertex 3.3 3.425 0
endloop
endfacet
facet normal 0 -1 0
outer loop
vertex 2.25 3.425 0.25
vertex 2.25 3.425 0
vertex 3.3 3.425 0.25
endloop
endfacet
facet normal 0 -1 0
outer loop
vertex -2.25 3.425 0.25
vertex 2.25 3.425 0
vertex 2.25 3.425 0.25
endloop
endfacet
facet normal 0 -1 0
outer loop
vertex -2.25 3.425 0.25
vertex -2.25 3.425 0
vertex 2.25 3.425 0
endloop
endfacet
facet normal 0 -1 0
outer loop
vertex -3.3 3.425 0.25
vertex -2.25 3.425 0
vertex -2.25 3.425 0.25
endloop
endfacet
facet normal 0 -1 0
outer loop
vertex -2.25 3.425 0
vertex -3.3 3.425 0.25
vertex -3.3 3.425 0
endloop
endfacet
facet normal -1 0 0
outer loop
vertex -3.3 3.725 0
vertex -3.3 3.425 0.25
vertex -3.3 3.725 0.25
endloop
endfacet
facet normal -1 0 0
outer loop
vertex -3.3 3.425 0.25
vertex -3.3 3.725 0
vertex -3.3 3.425 0
endloop
endfacet
facet normal 0 1 0
outer loop
vertex -3.3 3.725 0
vertex 3.3 3.725 0.25
vertex 3.3 3.725 0
endloop
endfacet
facet normal 0 1 0
outer loop
vertex 3.3 3.725 0.25
vertex -3.3 3.725 0
vertex -3.3 3.725 0.25
endloop
endfacet
facet normal 1 0 0
outer loop
vertex 3.3 3.425 0
vertex 3.3 3.725 0.25
vertex 3.3 3.425 0.25
endloop
endfacet
facet normal 1 0 0
outer loop
vertex 3.3 3.725 0.25
vertex 3.3 3.425 0
vertex 3.3 3.725 0
endloop
endfacet
facet normal 0 0 1
outer loop
vertex -3.3 3.425 0.25
vertex 3.3 3.725 0.25
vertex -3.3 3.725 0.25
endloop
endfacet
facet normal 0 0 1
outer loop
vertex -2.25 3.425 0.25
vertex 3.3 3.725 0.25
vertex -3.3 3.425 0.25
endloop
endfacet
facet normal 0 0 1
outer loop
vertex 2.25 3.425 0.25
vertex 3.3 3.725 0.25
vertex -2.25 3.425 0.25
endloop
endfacet
facet normal 0 0 1
outer loop
vertex 3.3 3.725 0.25
vertex 2.25 3.425 0.25
vertex 3.3 3.425 0.25
endloop
endfacet
facet normal 0 0 -1
outer loop
vertex 2.25 3.425 0
vertex 3.3 3.725 0
vertex 3.3 3.425 0
endloop
endfacet
facet normal 0 0 -1
outer loop
vertex -2.25 3.425 0
vertex 3.3 3.725 0
vertex 2.25 3.425 0
endloop
endfacet
facet normal 0 0 -1
outer loop
vertex -2.25 3.425 0
vertex -3.3 3.725 0
vertex 3.3 3.725 0
endloop
endfacet
facet normal 0 0 -1
outer loop
vertex -3.3 3.725 0
vertex -2.25 3.425 0
vertex -3.3 3.425 0
endloop
endfacet
endsolid JSxCAD
