<?xml version="1.0" encoding="UTF-8"?>
<!-- Generated by jsxcad -->
<!DOCTYPE svg PUBLIC "-//W3C//DTD SVG 1.1 Tiny//EN" "http://www.w3.org/Graphics/SVG/1.1/DTD/svg11-tiny.dtd">
<svg viewBox="-250 -250 500 500" width="500" height="500" xmlns="http://www.w3.org/2000/svg"><path d="M-133.22322118286533,-17.9270695516186L-146.58556398888976,128.69079340712122L-129.0425373363266,-11.309104590802464zM-143.8793702441017,157.70832976208845L-115.10244043987854,-42.16134456984996L-119.09428661524663,-48.80479667100318z" style="fill:rgb(247,158,158)"/><path d="M-129.5819259069865,-45.8931784034425L-143.8793702441017,157.70832976208845L-119.09428661524663,-48.80479667100318z" style="fill:rgb(83,212,212)"/><path d="M-116.33431039711073,151.47020735848986L-92.30272021134176,-48.44612218006727L-96.17728226796451,-55.167092703128546z" style="fill:rgb(247,158,158)"/><path d="M-106.78750850499532,-52.22144672782436L-116.33431039711073,151.47020735848986L-96.17728226796451,-55.167092703128546z" style="fill:rgb(83,212,212)"/><path d="M-124.94317627412678,115.90733173460731L-105.74782145527321,-17.56972268713844L-109.80622963317464,-24.266878078928414zM-72.9912509892944,-61.6040796905555L-83.7420388108265,151.82640021760224L-69.23701343786749,-54.80422591788079z" style="fill:rgb(247,158,158)"/><path d="M-101.34067973937145,148.07459741999347L-72.9912509892944,-61.6040796905555L-83.72622506699643,-58.62380079625155z" style="fill:rgb(83,212,212)"/><path d="M-98.05867580941128,109.56162793669127L-82.17441849051991,-23.90524124800286L-86.10728691283403,-30.683017005748553zM-60.06097078085527,138.72598223358543L-45.90063246547501,-61.23694148756982L-49.53143597974591,-68.11707081091726z" style="fill:rgb(247,158,158)"/><path d="M-60.39337095410883,-65.10154461409526L-60.06097078085527,138.72598223358543L-49.53143597974591,-68.11707081091726z" style="fill:rgb(83,212,212)"/><path d="M-70.80301320120527,103.12831659603206L-58.31727804126295,-30.317013707409565L-62.121279690364965,-37.17687440922603zM-31.315641039600433,132.21602613251324L-22.288782333354227,-67.74558532517032L-25.792961471897325,-74.7074296405889z" style="fill:rgb(247,158,158)"/><path d="M-36.784123050604855,-71.6560271134146L-31.315641039600433,132.21602613251324L-25.792961471897325,-74.7074296405889z" style="fill:rgb(83,212,212)"/><path d="M-43.168451480100615,96.6055818422499L-34.171258163771235,-36.80642474198416L-37.84296243611247,-43.749870590493025zM-2.152748522783369,125.61150424638178L1.603440957215985,-74.33151919659149L-1.770831636237194,-81.37653818805228z" style="fill:rgb(247,158,158)"/><path d="M-12.893539647159049,-78.28860984475585L-2.152748522783369,125.61150424638178L-1.770831636237194,-81.37653818805228z" style="fill:rgb(83,212,212)"/><path d="M-15.147032950013486,89.99151850698476L-9.731078371387127,-43.37489613386506L-13.266958699040893,-50.40346449795469zM27.436873264825508,118.91035251486414L25.781061277699308,-80.99612251563777L22.540069261535184,-88.12581563058401z" style="fill:rgb(247,158,158)"/><path d="M11.283440057979645,-85.00070328073306L27.436873264825508,118.91035251486414L22.540069261535184,-88.12581563058401z" style="fill:rgb(83,212,212)"/><path d="M13.269426009794568,83.28422241266526L15.008670255324724,-50.02387393131157L11.612243617247373,-57.139139282891314zM47.1449834747952,-94.95670828592439L61.16127931980615,119.29307526093883L50.249222835066234,-87.74080525959396zM-146.58556398888976,128.69079340712122L-133.22322118286533,-17.9270695516186L-151.46403406322415,122.16720526382115z" style="fill:rgb(247,158,158)"/><path d="M35.751997346182,-91.7937498857754L57.46266332298181,112.11040985086412L47.1449834747952,-94.95670828592439z" style="fill:rgb(83,212,212)"/><path d="M42.08933846494828,76.48169211741897L40.053529504697174,-56.75485717943866L36.80029004968958,-63.95843385331912zM-105.74782145527321,-17.56972268713844L-124.94317627412678,115.90733173460731L-120.22117325786668,122.51973978597952zM87.93432792661503,105.20949002902897L75.013192165554,-94.56703803303552L72.04926864104324,-101.87072417737501z" style="fill:rgb(247,158,158)"/><path d="M60.51743410076458,-98.6692182060481L87.93432792661503,105.20949002902897L72.04926864104324,-101.87072417737501z" style="fill:rgb(83,212,212)"/><path d="M71.32135253172218,69.5818957469161L65.40917594697204,-63.569367127689766L62.302962198410626,-70.86290947250131zM-82.17441849051991,-23.90524124800286L-98.05867580941128,109.56162793669127L-93.49790671379829,116.2646822727046zM118.86187875821204,98.20533153192801L100.0783685881131,-101.47629908421598L97.25842639752527,-108.86937949705757z" style="fill:rgb(247,158,158)"/><path d="M85.58519008408729,-105.62861746202006L118.86187875821204,98.20533153192801L97.25842639752527,-108.86937949705757z" style="fill:rgb(83,212,212)"/><path d="M100.97437475036713,62.582720300500995L91.08143365523544,-70.46896388844131L88.12619640062731,-77.85416787526478zM-115.10244043987854,-42.16134456984996L-143.8793702441017,157.70832976208845L-138.88066261045734,164.2059770099497zM122.77809515441623,-115.95423900880286L153.3040140001413,98.60542240811252L125.45028540444622,-108.47011200231972zM-58.31727804126295,-30.317013707409565L-70.80301320120527,103.12831659603206L-66.40836486379844,109.92389402008908z" style="fill:rgb(247,158,158)"/><path d="M-143.8793702441017,157.70832976208845L-129.5819259069865,-45.8931784034425L-156.46267278685778,160.55807891163784zM135.70760859603627,94.39027656845772L122.77809515441623,-115.95423900880286L110.96083937947516,-112.67349342220965z" style="fill:rgb(83,212,212)"/><path d="M131.05757300475346,55.48201545560589L117.0762748533895,-77.45526082068055L114.27607922390162,-84.93386493990756zM-92.30272021134176,-48.44612218006727L-116.33431039711073,151.47020735848986L-111.50449421509768,158.059558479328zM-34.171258163771235,-36.80642474198416L-43.168451480100615,96.6055818422499L-38.94497921264276,103.49561124930908z" style="fill:rgb(247,158,158)"/><path d="M-116.33431039711073,151.47020735848986L-106.78750850499532,-52.22144672782436L-129.0955787082976,154.3602500074065z" style="fill:rgb(83,212,212)"/><path d="M182.12619570024023,83.87786045448496L151.13460409123107,-115.55003938385185L148.61404216062803,-123.12690479203252z" style="fill:rgb(247,158,158)"/><path d="M136.65008488060917,-119.8054212912791L182.12619570024023,83.87786045448496L148.61404216062803,-123.12690479203252z" style="fill:rgb(83,212,212)"/><path d="M161.58037022690874,48.27754384755181L143.39981231770614,-84.52989697196239L140.75884384820097,-92.10368512879117zM-83.7420388108265,151.82640021760224L-72.9912509892944,-61.6040796905555L-88.39764408623007,145.14338993180908zM-9.731078371387127,-43.37489613386506L-15.147032950013486,89.99151850698476L-11.099954484331413,96.97798849269958z" style="fill:rgb(247,158,158)"/><path d="M-72.9912509892944,-61.6040796905555L-101.34067973937145,148.07459741999347L-88.39764408623007,145.14338993180908z" style="fill:rgb(83,212,212)"/><path d="M-45.90063246547501,-61.23694148756982L-60.06097078085527,138.72598223358543L-55.58505584887657,145.50466359816957zM15.008670255324724,-50.02387393131157L13.269426009794568,83.28422241266526L17.134720118556675,90.36916075982147z" style="fill:rgb(247,158,158)"/><path d="M-151.46403406322415,122.16720526382115L-155.629394043792,130.80765871007685L-146.58556398888976,128.69079340712122z" style="fill:rgb(127,37,217)"/><path d="M-60.06097078085527,138.72598223358543L-60.39337095410883,-65.10154461409526L-73.18968510220314,141.69924036120577zM-157.80387515744528,-41.567927957736394L175.9324924870605,11.996228461952843L152.54350241827873,-128.00774373506033z" style="fill:rgb(83,212,212)"/><path d="M-22.288782333354227,-67.74558532517032L-31.315641039600433,132.21602613251324L-27.025072327083183,139.09244619644412z" style="fill:rgb(247,158,158)"/><path d="M-124.94317627412678,115.90733173460731L-134.46151763333418,125.85294737191327L-120.22117325786668,122.51973978597952z" style="fill:rgb(127,37,217)"/><path d="M40.053529504697174,-56.75485717943866L42.08933846494828,76.48169211741897L45.76728111602004,83.66720114383718z" style="fill:rgb(247,158,158)"/><path d="M-31.315641039600433,132.21602613251324L-36.784123050604855,-71.6560271134146L-44.634058518465785,135.2322463254739z" style="fill:rgb(83,212,212)"/><path d="M1.603440957215985,-74.33151919659149L-2.152748522783369,125.61150424638178L1.9466225732063915,132.5877930532083z" style="fill:rgb(247,158,158)"/><path d="M-170.65589585147632,96.50347448121789L-155.629394043792,130.80765871007685L-151.46403406322415,122.16720526382115zM-98.05867580941128,109.56162793669127L-107.93239101054074,119.6433342850439L-93.49790671379829,116.2646822727046z" style="fill:rgb(127,37,217)"/><path d="M65.40917594697204,-63.569367127689766L71.32135253172218,69.5818957469161L74.80619604275172,76.87013211931276z" style="fill:rgb(247,158,158)"/><path d="M-2.152748522783369,125.61150424638178L-12.893539647159049,-78.28860984475585L-15.665010646388984,128.671635175929z" style="fill:rgb(83,212,212)"/><path d="M175.9324924870605,11.996228461952843L164.9053673005895,-90.30966097286348L152.54350241827873,-128.00774373506033z" style="fill:rgb(247,158,158)"/><path d="M-158.18044975482306,93.46163854083291L-151.46403406322415,122.16720526382115L-139.26834738258285,119.2885892483543zM-143.5238736928923,89.88798170741099L-134.46151763333418,125.85294737191327L-124.94317627412678,115.90733173460731z" style="fill:rgb(127,37,217)"/><path d="M25.781061277699308,-80.99612251563777L27.436873264825508,118.91035251486414L31.33899698567646,125.98870153644867z" style="fill:rgb(247,158,158)"/><path d="M-155.629394043792,130.80765871007685L-170.65589585147632,96.50347448121789L-179.96006816696,98.77206975985408z" style="fill:rgb(127,37,217)"/><path d="M175.9324924870605,11.996228461952843L-157.80387515744528,-41.567927957736394L-179.96006816696,98.77206975985408z" style="fill:rgb(83,212,212)"/><path d="M91.08143365523544,-70.46896388844131L100.97437475036713,62.582720300500995L104.26017951445021,69.97590284284077z" style="fill:rgb(247,158,158)"/><path d="M27.436873264825508,118.91035251486414L11.283440057979645,-85.00070328073306L13.726504593171153,122.01533678338615z" style="fill:rgb(83,212,212)"/><path d="M-116.00930991729129,83.17921562944437L-112.58058207706105,112.98931947109115L-107.93239101054074,119.6433342850439zM-130.8728675741083,86.80333968327835L-124.94317627412678,115.90733173460731L-112.58058207706105,112.98931947109115zM-116.00930991729129,83.17921562944437L-107.93239101054074,119.6433342850439L-98.05867580941128,109.56162793669127zM-151.46403406322415,122.16720526382115L-158.18044975482306,93.46163854083291L-170.65589585147632,96.50347448121789zM-134.46151763333418,125.85294737191327L-143.5238736928923,89.88798170741099L-158.18044975482306,93.46163854083291zM-43.168451480100615,96.6055818422499L-53.77987681010422,106.96797461133946L-38.94497921264276,103.49561124930908z" style="fill:rgb(127,37,217)"/><path d="M61.16127931980615,119.29307526093883L47.1449834747952,-94.95670828592439L57.46266332298181,112.11040985086412zM117.0762748533895,-77.45526082068055L131.05757300475346,55.48201545560589L134.13820145252672,62.98242165836308z" style="fill:rgb(247,158,158)"/><path d="M57.46266332298181,112.11040985086412L35.751997346182,-91.7937498857754L43.54979681148691,115.26125485490053z" style="fill:rgb(83,212,212)"/><path d="M-88.10406094560312,76.37519428701339L-81.04100313246836,113.34892650170431L-66.40836486379844,109.92389402008908zM-85.52572427583141,106.60340526295353L-81.04100313246836,113.34892650170431L-88.10406094560312,76.37519428701339zM-103.17901162409706,80.05085752694399L-98.05867580941128,109.56162793669127L-85.52572427583141,106.60340526295353zM-124.94317627412678,115.90733173460731L-130.8728675741083,86.80333968327835L-143.5238736928923,89.88798170741099z" style="fill:rgb(127,37,217)"/><path d="M75.013192165554,-94.56703803303552L87.93432792661503,105.20949002902897L91.4229694637432,112.49879504519313z" style="fill:rgb(247,158,158)"/><path d="M-15.147032950013486,89.99151850698476L-26.141331332416936,100.49868168904865L-11.099954484331413,96.97798849269958z" style="fill:rgb(127,37,217)"/><path d="M143.39981231770614,-84.52989697196239L161.58037022690874,48.27754384755181L164.44947907508507,55.887535019388295z" style="fill:rgb(247,158,158)"/><path d="M87.93432792661503,105.20949002902897L60.51743410076458,-98.6692182060481L73.81444517611672,108.40721799346181z" style="fill:rgb(83,212,212)"/><path d="M-143.8793702441017,157.70832976208845L-151.38775150366965,167.01404558039093L-138.88066261045734,164.2059770099497zM-112.58058207706105,112.98931947109115L-116.00930991729129,83.17921562944437L-130.8728675741083,86.80333968327835zM-151.38775150366965,167.01404558039093L-143.8793702441017,157.70832976208845L-156.46267278685778,160.55807891163784zM-58.096158761819964,100.12904685775361L-53.77987681010422,106.96797461133946L-59.799741495187135,69.47386389172325zM-75.09063234377273,73.20218457839471L-70.80301320120527,103.12831659603206L-58.096158761819964,100.12904685775361zM-59.799741495187135,69.47386389172325L-53.77987681010422,106.96797461133946L-43.168451480100615,96.6055818422499zM-98.05867580941128,109.56162793669127L-103.17901162409706,80.05085752694399L-116.00930991729129,83.17921562944437z" style="fill:rgb(127,37,217)"/><path d="M100.0783685881131,-101.47629908421598L118.86187875821204,98.20533153192801L122.13385362064133,105.60366289484706z" style="fill:rgb(247,158,158)"/><path d="M118.86187875821204,98.20533153192801L85.58519008408729,-105.62861746202006L104.53032471043956,101.4509907800043z" style="fill:rgb(83,212,212)"/><path d="M-116.33431039711073,151.47020735848986L-124.18715900699132,160.90703660950757L-111.50449421509768,158.059558479328zM-88.10406094560312,76.37519428701339L-103.17901162409706,80.05085752694399L-85.52572427583141,106.60340526295353zM-124.18715900699132,160.90703660950757L-116.33431039711073,151.47020735848986L-129.0955787082976,154.3602500074065zM-30.28404903139021,93.56439323041592L-26.141331332416936,100.49868168904865L-31.087725814796723,62.47313291647568zM-46.59923271340798,66.25523888658307L-43.168451480100615,96.6055818422499L-30.28404903139021,93.56439323041592zM-31.087725814796723,62.47313291647568L-26.141331332416936,100.49868168904865L-15.147032950013486,89.99151850698476zM-70.80301320120527,103.12831659603206L-75.09063234377273,73.20218457839471L-88.10406094560312,76.37519428701339z" style="fill:rgb(127,37,217)"/><path d="M153.3040140001413,98.60542240811252L122.77809515441623,-115.95423900880286L150.25562964088593,91.09558816433383z" style="fill:rgb(247,158,158)"/><path d="M-88.39764408623007,145.14338993180908L-96.60400752647087,154.7141339588805L-83.7420388108265,151.82640021760224zM-59.799741495187135,69.47386389172325L-75.09063234377273,73.20218457839471L-58.096158761819964,100.12904685775361z" style="fill:rgb(127,37,217)"/><path d="M122.77809515441623,-115.95423900880286L135.70760859603627,94.39027656845772L150.25562964088593,91.09558816433383z" style="fill:rgb(83,212,212)"/><path d="M164.9053673005895,-90.30966097286348L175.9324924870605,11.996228461952843L189.25442512065524,50.08149735025218z" style="fill:rgb(247,158,158)"/><path d="M-1.9591440492791832,55.37082668552942L1.8825227734314776,93.93921140212444L17.134720118556675,90.36916075982147zM-96.60400752647087,154.7141339588805L-88.39764408623007,145.14338993180908L-101.34067973937145,148.07459741999347zM-2.081335236639608,86.90754873773628L1.8825227734314776,93.93921140212444L-1.9591440492791832,55.37082668552942zM-17.696073894025854,59.20789657037148L-15.147032950013486,89.99151850698476L-2.081335236639608,86.90754873773628zM-43.168451480100615,96.6055818422499L-46.59923271340798,66.25523888658307L-59.799741495187135,69.47386389172325z" style="fill:rgb(127,37,217)"/><path d="M151.13460409123107,-115.55003938385185L182.12619570024023,83.87786045448496L184.94382473571756,91.50173133812676z" style="fill:rgb(247,158,158)"/><path d="M182.12619570024023,83.87786045448496L136.65008488060917,-119.8054212912791L167.35676408602512,87.22269623936845z" style="fill:rgb(83,212,212)"/><path d="M-60.06097078085527,138.72598223358543L-68.63014625467449,148.43351188573777L-55.58505584887657,145.50466359816957zM-31.087725814796723,62.47313291647568L-46.59923271340798,66.25523888658307L-30.28404903139021,93.56439323041592zM27.595134770479685,48.16472662533039L30.29980004398278,87.28764282804939L45.76728111602004,83.66720114383718zM-68.63014625467449,148.43351188573777L-60.06097078085527,138.72598223358543L-73.18968510220314,141.69924036120577zM26.520271251294957,80.15655136859532L30.29980004398278,87.28764282804939L27.595134770479685,48.16472662533039zM11.627832718922695,52.05797074054032L13.269426009794568,83.28422241266526L26.520271251294957,80.15655136859532zM-15.147032950013486,89.99151850698476L-17.696073894025854,59.20789657037148L-31.087725814796723,62.47313291647568zM100.97437475036713,62.582720300500995L88.34823072871157,73.70037515483436L104.26017951445021,69.97590284284077zM-31.315641039600433,132.21602613251324L-40.25722971704308,142.0632949989939L-27.025072327083183,139.09244619644412zM-1.9591440492791832,55.37082668552942L-17.696073894025854,59.20789657037148L-2.081335236639608,86.90754873773628zM57.58451214556088,40.85253890329735L59.118843092212224,80.54203329012707L74.80619604275172,76.87013211931276zM-40.25722971704308,142.0632949989939L-31.315641039600433,132.21602613251324L-44.634058518465785,135.2322463254739zM55.529297394694325,73.3093833610008L59.118843092212224,80.54203329012707L57.58451214556088,40.85253890329735zM41.38174182342194,44.80319340644208L42.08933846494828,76.48169211741897L55.529297394694325,73.3093833610008zM13.269426009794568,83.28422241266526L11.627832718922695,52.05797074054032L-1.9591440492791832,55.37082668552942zM-2.152748522783369,125.61150424638178L-11.476654113461958,135.6015621323051L1.9466225732063915,132.5877930532083zM27.595134770479685,48.16472662533039L11.627832718922695,52.05797074054032L26.520271251294957,80.15655136859532zM-11.476654113461958,135.6015621323051L-2.152748522783369,125.61150424638178L-15.665010646388984,128.671635175929zM84.95450140651074,66.36398161951381L88.34823072871157,73.70037515483436L88.0186645259755,33.43190278954987zM71.57518074002788,37.44124956892297L71.32135253172218,69.5818957469161L84.95450140651074,66.36398161951381zM88.0186645259755,33.43190278954987L88.34823072871157,73.70037515483436L100.97437475036713,62.582720300500995zM42.08933846494828,76.48169211741897L41.38174182342194,44.80319340644208L27.595134770479685,48.16472662533039zM161.58037022690874,48.27754384755181L148.07361586331055,59.7205928370023L164.44947907508507,55.887535019388295zM27.436873264825508,118.91035251486414L17.720429645583863,129.04630534092377L31.33899698567646,125.98870153644867zM57.58451214556088,40.85253890329735L41.38174182342194,44.80319340644208L55.529297394694325,73.3093833610008zM118.90756359486552,25.900384682394225L117.9967920143664,66.76060712052679L134.13820145252672,62.98242165836308zM17.720429645583863,129.04630534092377L27.436873264825508,118.91035251486414L13.726504593171153,122.01533678338615zM114.80490908806621,59.31822182035337L117.9967920143664,66.76060712052679L118.90756359486552,25.900384682394225zM102.2179653786818,29.969744920007294L100.97437475036713,62.582720300500995L114.80490908806621,59.31822182035337zM71.32135253172218,69.5818957469161L71.57518074002788,37.44124956892297L57.58451214556088,40.85253890329735zM57.46266332298181,112.11040985086412L47.34312889089663,122.39548968199658L61.16127931980615,119.29307526093883zM88.0186645259755,33.43190278954987L71.57518074002788,37.44124956892297L84.95450140651074,66.36398161951381zM47.34312889089663,122.39548968199658L57.46266332298181,112.11040985086412L43.54979681148691,115.26125485490053zM150.2614842443519,18.255486623995218L145.08981087100256,52.16990201739179L148.07361586331055,59.7205928370023zM133.32018649075061,22.386214870673914L131.05757300475346,55.48201545560589L145.08981087100256,52.16990201739179zM150.2614842443519,18.255486623995218L148.07361586331055,59.7205928370023L161.58037022690874,48.27754384755181zM100.97437475036713,62.582720300500995L102.2179653786818,29.969744920007294L88.0186645259755,33.43190278954987zM87.93432792661503,105.20949002902897L77.40081592419001,115.64701172279054L91.4229694637432,112.49879504519313zM118.90756359486552,25.900384682394225L102.2179653786818,29.969744920007294L114.80490908806621,59.31822182035337zM175.9324924870605,11.996228461952843L178.5880425542583,52.578155589081604L189.25442512065524,50.08149735025218zM77.40081592419001,115.64701172279054L87.93432792661503,105.20949002902897L73.81444517611672,108.40721799346181zM164.8922789572682,14.688119387886406L161.58037022690874,48.27754384755181L175.81875646369838,44.91677489130233zM131.05757300475346,55.48201545560589L133.32018649075061,22.386214870673914L118.90756359486552,25.900384682394225zM118.86187875821204,98.20533153192801L107.90314571510112,108.79870366534102L122.13385362064133,105.60366289484706zM145.08981087100256,52.16990201739179L150.2614842443519,18.255486623995218L133.32018649075061,22.386214870673914zM107.90314571510112,108.79870366534102L118.86187875821204,98.20533153192801L104.53032471043956,101.4509907800043zM161.58037022690874,48.27754384755181L164.8922789572682,14.688119387886406L150.2614842443519,18.255486623995218zM178.5880425542583,52.578155589081604L175.9324924870605,11.996228461952843L164.8922789572682,14.688119387886406zM150.25562964088593,91.09558816433383L138.86006405612594,101.84834559600645L153.3040140001413,98.60542240811252zM138.86006405612594,101.84834559600645L150.25562964088593,91.09558816433383L135.70760859603627,94.39027656845772zM182.12619570024023,83.87786045448496L170.28180161614574,94.79361428354403L184.94382473571756,91.50173133812676zM170.28180161614574,94.79361428354403L182.12619570024023,83.87786045448496L167.35676408602512,87.22269623936845z" style="fill:rgb(127,37,217)"/></svg>
