solid JSxCAD
facet normal 0 1 0
outer loop
vertex -2.25 -3.45 0
vertex 2.25 -3.45 0.25
vertex 2.25 -3.45 0
endloop
endfacet
facet normal 0 1 0
outer loop
vertex 2.25 -3.45 0.25
vertex -2.25 -3.45 0
vertex -2.25 -3.45 0.25
endloop
endfacet
facet normal 0 -1 0
outer loop
vertex -2.25 -3.15 0.25
vertex 2.25 -3.15 0
vertex 2.25 -3.15 0.25
endloop
endfacet
facet normal 0 -1 0
outer loop
vertex 2.25 -3.15 0
vertex -2.25 -3.15 0.25
vertex -2.25 -3.15 0
endloop
endfacet
facet normal 0 0 -1
outer loop
vertex 2.25 3.05 0.25
vertex -2.25 3.35 0.25
vertex 2.25 3.35 0.25
endloop
endfacet
facet normal 0 0 -1
outer loop
vertex -2.25 3.35 0.25
vertex 2.25 3.05 0.25
vertex -2.25 3.05 0.25
endloop
endfacet
facet normal 0 0 -1
outer loop
vertex 2.25 2.4 0.25
vertex -2.25 2.7 0.25
vertex 2.25 2.7 0.25
endloop
endfacet
facet normal 0 0 -1
outer loop
vertex -2.25 2.7 0.25
vertex 2.25 2.4 0.25
vertex -2.25 2.4 0.25
endloop
endfacet
facet normal 0 0 -1
outer loop
vertex -2.25 1.75 0.25
vertex 2.25 2.05 0.25
vertex 2.25 1.75 0.25
endloop
endfacet
facet normal 0 0 -1
outer loop
vertex 2.25 2.05 0.25
vertex -2.25 1.75 0.25
vertex -2.25 2.05 0.25
endloop
endfacet
facet normal 0 0 -1
outer loop
vertex -2.25 1.1 0.25
vertex 2.25 1.4 0.25
vertex 2.25 1.1 0.25
endloop
endfacet
facet normal 0 0 -1
outer loop
vertex 2.25 1.4 0.25
vertex -2.25 1.1 0.25
vertex -2.25 1.4 0.25
endloop
endfacet
facet normal 0 0 -1
outer loop
vertex -2.25 0.45 0.25
vertex 2.25 0.75 0.25
vertex 2.25 0.45 0.25
endloop
endfacet
facet normal 0 0 -1
outer loop
vertex 2.25 0.75 0.25
vertex -2.25 0.45 0.25
vertex -2.25 0.75 0.25
endloop
endfacet
facet normal 0 0 -1
outer loop
vertex -2.25 -0.2 0.25
vertex 2.25 0.1 0.25
vertex 2.25 -0.2 0.25
endloop
endfacet
facet normal 0 0 -1
outer loop
vertex 2.25 0.1 0.25
vertex -2.25 -0.2 0.25
vertex -2.25 0.1 0.25
endloop
endfacet
facet normal 0 0 -1
outer loop
vertex -2.25 -0.85 0.25
vertex 2.25 -0.55 0.25
vertex 2.25 -0.85 0.25
endloop
endfacet
facet normal 0 0 -1
outer loop
vertex 2.25 -0.55 0.25
vertex -2.25 -0.85 0.25
vertex -2.25 -0.55 0.25
endloop
endfacet
facet normal 0 0 -1
outer loop
vertex -2.25 -1.5 0.25
vertex 2.25 -1.2 0.25
vertex 2.25 -1.5 0.25
endloop
endfacet
facet normal 0 0 -1
outer loop
vertex 2.25 -1.2 0.25
vertex -2.25 -1.5 0.25
vertex -2.25 -1.2 0.25
endloop
endfacet
facet normal 0 0 -1
outer loop
vertex -2.25 -2.15 0.25
vertex 2.25 -1.85 0.25
vertex 2.25 -2.15 0.25
endloop
endfacet
facet normal 0 0 -1
outer loop
vertex 2.25 -1.85 0.25
vertex -2.25 -2.15 0.25
vertex -2.25 -1.85 0.25
endloop
endfacet
facet normal 0 0 -1
outer loop
vertex -2.25 -2.8 0.25
vertex 2.25 -2.5 0.25
vertex 2.25 -2.8 0.25
endloop
endfacet
facet normal 0 0 -1
outer loop
vertex 2.25 -2.5 0.25
vertex -2.25 -2.8 0.25
vertex -2.25 -2.5 0.25
endloop
endfacet
facet normal 0 0 -1
outer loop
vertex 2.25 -3.45 0.25
vertex -2.25 -3.15 0.25
vertex 2.25 -3.15 0.25
endloop
endfacet
facet normal 0 0 -1
outer loop
vertex -2.25 -3.15 0.25
vertex 2.25 -3.45 0.25
vertex -2.25 -3.45 0.25
endloop
endfacet
facet normal 0 0 -1
outer loop
vertex -2.25 -3.95 0.25
vertex 2.25 -3.8 0.25
vertex 2.25 -3.95 0.25
endloop
endfacet
facet normal 0 0 -1
outer loop
vertex 2.25 -3.8 0.25
vertex -2.25 -3.95 0.25
vertex -2.25 -3.8 0.25
endloop
endfacet
facet normal 0 1 0
outer loop
vertex -2.25 -2.8 0
vertex 2.25 -2.8 0.25
vertex 2.25 -2.8 0
endloop
endfacet
facet normal 0 1 0
outer loop
vertex 2.25 -2.8 0.25
vertex -2.25 -2.8 0
vertex -2.25 -2.8 0.25
endloop
endfacet
facet normal 0 -1 0
outer loop
vertex -2.25 -2.5 0.25
vertex 2.25 -2.5 0
vertex 2.25 -2.5 0.25
endloop
endfacet
facet normal 0 -1 0
outer loop
vertex 2.25 -2.5 0
vertex -2.25 -2.5 0.25
vertex -2.25 -2.5 0
endloop
endfacet
facet normal 0 1 0
outer loop
vertex -2.25 -2.15 0
vertex 2.25 -2.15 0.25
vertex 2.25 -2.15 0
endloop
endfacet
facet normal 0 1 0
outer loop
vertex 2.25 -2.15 0.25
vertex -2.25 -2.15 0
vertex -2.25 -2.15 0.25
endloop
endfacet
facet normal 0 -1 0
outer loop
vertex -2.25 -1.85 0.25
vertex 2.25 -1.85 0
vertex 2.25 -1.85 0.25
endloop
endfacet
facet normal 0 -1 0
outer loop
vertex 2.25 -1.85 0
vertex -2.25 -1.85 0.25
vertex -2.25 -1.85 0
endloop
endfacet
facet normal 0 1 0
outer loop
vertex -2.25 -1.5 0
vertex 2.25 -1.5 0.25
vertex 2.25 -1.5 0
endloop
endfacet
facet normal 0 1 0
outer loop
vertex 2.25 -1.5 0.25
vertex -2.25 -1.5 0
vertex -2.25 -1.5 0.25
endloop
endfacet
facet normal 0 -1 0
outer loop
vertex -2.25 -1.2 0.25
vertex 2.25 -1.2 0
vertex 2.25 -1.2 0.25
endloop
endfacet
facet normal 0 -1 0
outer loop
vertex 2.25 -1.2 0
vertex -2.25 -1.2 0.25
vertex -2.25 -1.2 0
endloop
endfacet
facet normal 0 1 0
outer loop
vertex -2.25 -0.85 0
vertex 2.25 -0.85 0.25
vertex 2.25 -0.85 0
endloop
endfacet
facet normal 0 1 0
outer loop
vertex 2.25 -0.85 0.25
vertex -2.25 -0.85 0
vertex -2.25 -0.85 0.25
endloop
endfacet
facet normal 0 -1 0
outer loop
vertex -2.25 -0.55 0.25
vertex 2.25 -0.55 0
vertex 2.25 -0.55 0.25
endloop
endfacet
facet normal 0 -1 0
outer loop
vertex 2.25 -0.55 0
vertex -2.25 -0.55 0.25
vertex -2.25 -0.55 0
endloop
endfacet
facet normal 0 1 0
outer loop
vertex -2.25 -0.2 0
vertex 2.25 -0.2 0.25
vertex 2.25 -0.2 0
endloop
endfacet
facet normal 0 1 0
outer loop
vertex 2.25 -0.2 0.25
vertex -2.25 -0.2 0
vertex -2.25 -0.2 0.25
endloop
endfacet
facet normal 0 -1 0
outer loop
vertex -2.25 0.1 0.25
vertex 2.25 0.1 0
vertex 2.25 0.1 0.25
endloop
endfacet
facet normal 0 -1 0
outer loop
vertex 2.25 0.1 0
vertex -2.25 0.1 0.25
vertex -2.25 0.1 0
endloop
endfacet
facet normal 0 1 0
outer loop
vertex -2.25 0.45 0
vertex 2.25 0.45 0.25
vertex 2.25 0.45 0
endloop
endfacet
facet normal 0 1 0
outer loop
vertex 2.25 0.45 0.25
vertex -2.25 0.45 0
vertex -2.25 0.45 0.25
endloop
endfacet
facet normal 0 -1 0
outer loop
vertex -2.25 0.75 0.25
vertex 2.25 0.75 0
vertex 2.25 0.75 0.25
endloop
endfacet
facet normal 0 -1 0
outer loop
vertex 2.25 0.75 0
vertex -2.25 0.75 0.25
vertex -2.25 0.75 0
endloop
endfacet
facet normal 0 -1 0
outer loop
vertex -2.25 -3.8 0.25
vertex 2.25 -3.8 0
vertex 2.25 -3.8 0.25
endloop
endfacet
facet normal 0 -1 0
outer loop
vertex 2.25 -3.8 0
vertex -2.25 -3.8 0.25
vertex -2.25 -3.8 0
endloop
endfacet
facet normal 0 1 0
outer loop
vertex -2.25 1.1 0
vertex 2.25 1.1 0.25
vertex 2.25 1.1 0
endloop
endfacet
facet normal 0 1 0
outer loop
vertex 2.25 1.1 0.25
vertex -2.25 1.1 0
vertex -2.25 1.1 0.25
endloop
endfacet
facet normal 0 -1 0
outer loop
vertex -2.25 1.4 0.25
vertex 2.25 1.4 0
vertex 2.25 1.4 0.25
endloop
endfacet
facet normal 0 -1 0
outer loop
vertex 2.25 1.4 0
vertex -2.25 1.4 0.25
vertex -2.25 1.4 0
endloop
endfacet
facet normal 0 1 0
outer loop
vertex -2.25 1.75 0
vertex 2.25 1.75 0.25
vertex 2.25 1.75 0
endloop
endfacet
facet normal 0 1 0
outer loop
vertex 2.25 1.75 0.25
vertex -2.25 1.75 0
vertex -2.25 1.75 0.25
endloop
endfacet
facet normal 0 -1 0
outer loop
vertex -2.25 2.05 0.25
vertex 2.25 2.05 0
vertex 2.25 2.05 0.25
endloop
endfacet
facet normal 0 -1 0
outer loop
vertex 2.25 2.05 0
vertex -2.25 2.05 0.25
vertex -2.25 2.05 0
endloop
endfacet
facet normal 0 1 0
outer loop
vertex -2.25 2.4 0
vertex 2.25 2.4 0.25
vertex 2.25 2.4 0
endloop
endfacet
facet normal 0 1 0
outer loop
vertex 2.25 2.4 0.25
vertex -2.25 2.4 0
vertex -2.25 2.4 0.25
endloop
endfacet
facet normal 0 -1 0
outer loop
vertex -2.25 2.7 0.25
vertex 2.25 2.7 0
vertex 2.25 2.7 0.25
endloop
endfacet
facet normal 0 -1 0
outer loop
vertex 2.25 2.7 0
vertex -2.25 2.7 0.25
vertex -2.25 2.7 0
endloop
endfacet
facet normal 0 1 0
outer loop
vertex -2.25 3.05 0
vertex 2.25 3.05 0.25
vertex 2.25 3.05 0
endloop
endfacet
facet normal 0 1 0
outer loop
vertex 2.25 3.05 0.25
vertex -2.25 3.05 0
vertex -2.25 3.05 0.25
endloop
endfacet
facet normal 0 -1 0
outer loop
vertex -2.25 3.35 0.25
vertex 2.25 3.35 0
vertex 2.25 3.35 0.25
endloop
endfacet
facet normal 0 -1 0
outer loop
vertex 2.25 3.35 0
vertex -2.25 3.35 0.25
vertex -2.25 3.35 0
endloop
endfacet
facet normal -1 0 0
outer loop
vertex -2.25 -3.95 0.25
vertex -2.25 -3.8 1.2
vertex -2.25 -3.8 0.25
endloop
endfacet
facet normal -1 0 0
outer loop
vertex -2.25 -3.8 1.2
vertex -2.25 -3.95 0.25
vertex -2.25 -3.95 1.2
endloop
endfacet
facet normal -1 0 0
outer loop
vertex -2.25 -3.8 0
vertex -2.25 -3.45 1.2
vertex -2.25 -3.45 0
endloop
endfacet
facet normal -1 0 0
outer loop
vertex -2.25 -3.8 0.25
vertex -2.25 -3.45 1.2
vertex -2.25 -3.8 0
endloop
endfacet
facet normal -1 0 0
outer loop
vertex -2.25 -3.45 1.2
vertex -2.25 -3.8 0.25
vertex -2.25 -3.8 1.2
endloop
endfacet
facet normal -1 0 0
outer loop
vertex -2.25 -3.45 0.25
vertex -2.25 -3.15 1.2
vertex -2.25 -3.15 0.25
endloop
endfacet
facet normal -1 0 0
outer loop
vertex -2.25 -3.15 1.2
vertex -2.25 -3.45 0.25
vertex -2.25 -3.45 1.2
endloop
endfacet
facet normal -1 0 0
outer loop
vertex -2.25 -3.15 0
vertex -2.25 -2.8 1.2
vertex -2.25 -2.8 0
endloop
endfacet
facet normal -1 0 0
outer loop
vertex -2.25 -3.15 0.25
vertex -2.25 -2.8 1.2
vertex -2.25 -3.15 0
endloop
endfacet
facet normal -1 0 0
outer loop
vertex -2.25 -2.8 1.2
vertex -2.25 -3.15 0.25
vertex -2.25 -3.15 1.2
endloop
endfacet
facet normal -1 0 0
outer loop
vertex -2.25 -2.8 0.25
vertex -2.25 -2.5 1.2
vertex -2.25 -2.5 0.25
endloop
endfacet
facet normal -1 0 0
outer loop
vertex -2.25 -2.5 1.2
vertex -2.25 -2.8 0.25
vertex -2.25 -2.8 1.2
endloop
endfacet
facet normal -1 0 0
outer loop
vertex -2.25 -2.5 0
vertex -2.25 -2.15 1.2
vertex -2.25 -2.15 0
endloop
endfacet
facet normal -1 0 0
outer loop
vertex -2.25 -2.5 0.25
vertex -2.25 -2.15 1.2
vertex -2.25 -2.5 0
endloop
endfacet
facet normal -1 0 0
outer loop
vertex -2.25 -2.15 1.2
vertex -2.25 -2.5 0.25
vertex -2.25 -2.5 1.2
endloop
endfacet
facet normal -1 0 0
outer loop
vertex -2.25 -1.5 0
vertex -2.25 -1.85 1.2
vertex -2.25 -1.5 0.25
endloop
endfacet
facet normal -1 0 0
outer loop
vertex -2.25 -1.85 0
vertex -2.25 -1.85 1.2
vertex -2.25 -1.5 0
endloop
endfacet
facet normal -1 0 0
outer loop
vertex -2.25 -2.15 0.25
vertex -2.25 -1.85 1.2
vertex -2.25 -1.85 0.25
endloop
endfacet
facet normal -1 0 0
outer loop
vertex -2.25 -1.85 1.2
vertex -2.25 -2.15 0.25
vertex -2.25 -2.15 1.2
endloop
endfacet
facet normal -1 0 0
outer loop
vertex -2.25 -1.5 1.2
vertex -2.25 -1.5 0.25
vertex -2.25 -1.85 1.2
endloop
endfacet
facet normal -1 0 0
outer loop
vertex -2.25 -1.2 0.25
vertex -2.25 -1.5 1.2
vertex -2.25 -1.2 1.2
endloop
endfacet
facet normal -1 0 0
outer loop
vertex -2.25 -1.5 1.2
vertex -2.25 -1.2 0.25
vertex -2.25 -1.5 0.25
endloop
endfacet
facet normal -1 0 0
outer loop
vertex -2.25 -0.85 0
vertex -2.25 -1.2 0
vertex -2.25 -0.85 0.25
endloop
endfacet
facet normal -1 0 0
outer loop
vertex -2.25 -1.2 0
vertex -2.25 -0.85 1.2
vertex -2.25 -0.85 0.25
endloop
endfacet
facet normal -1 0 0
outer loop
vertex -2.25 -1.2 0.25
vertex -2.25 -0.85 1.2
vertex -2.25 -1.2 0
endloop
endfacet
facet normal -1 0 0
outer loop
vertex -2.25 -0.85 1.2
vertex -2.25 -1.2 0.25
vertex -2.25 -1.2 1.2
endloop
endfacet
facet normal -1 0 0
outer loop
vertex -2.25 -0.55 0.25
vertex -2.25 -0.85 1.2
vertex -2.25 -0.55 1.2
endloop
endfacet
facet normal -1 0 0
outer loop
vertex -2.25 -0.85 1.2
vertex -2.25 -0.55 0.25
vertex -2.25 -0.85 0.25
endloop
endfacet
facet normal -1 0 0
outer loop
vertex -2.25 -0.2 0
vertex -2.25 -0.55 0
vertex -2.25 -0.2 0.25
endloop
endfacet
facet normal -1 0 0
outer loop
vertex -2.25 -0.55 0
vertex -2.25 -0.2 1.2
vertex -2.25 -0.2 0.25
endloop
endfacet
facet normal -1 0 0
outer loop
vertex -2.25 -0.55 0.25
vertex -2.25 -0.2 1.2
vertex -2.25 -0.55 0
endloop
endfacet
facet normal -1 0 0
outer loop
vertex -2.25 -0.2 1.2
vertex -2.25 -0.55 0.25
vertex -2.25 -0.55 1.2
endloop
endfacet
facet normal -1 0 0
outer loop
vertex -2.25 0.1 0.25
vertex -2.25 -0.2 1.2
vertex -2.25 0.1 1.2
endloop
endfacet
facet normal -1 0 0
outer loop
vertex -2.25 -0.2 1.2
vertex -2.25 0.1 0.25
vertex -2.25 -0.2 0.25
endloop
endfacet
facet normal -1 0 0
outer loop
vertex -2.25 0.45 0
vertex -2.25 0.1 0
vertex -2.25 0.45 0.25
endloop
endfacet
facet normal -1 0 0
outer loop
vertex -2.25 0.1 0
vertex -2.25 0.45 1.2
vertex -2.25 0.45 0.25
endloop
endfacet
facet normal -1 0 0
outer loop
vertex -2.25 0.1 0.25
vertex -2.25 0.45 1.2
vertex -2.25 0.1 0
endloop
endfacet
facet normal -1 0 0
outer loop
vertex -2.25 0.45 1.2
vertex -2.25 0.1 0.25
vertex -2.25 0.1 1.2
endloop
endfacet
facet normal -1 0 0
outer loop
vertex -2.25 0.75 0.25
vertex -2.25 0.45 1.2
vertex -2.25 0.75 1.2
endloop
endfacet
facet normal -1 0 0
outer loop
vertex -2.25 0.45 1.2
vertex -2.25 0.75 0.25
vertex -2.25 0.45 0.25
endloop
endfacet
facet normal -1 0 0
outer loop
vertex -2.25 1.1 0
vertex -2.25 0.75 0
vertex -2.25 1.1 0.25
endloop
endfacet
facet normal -1 0 0
outer loop
vertex -2.25 0.75 0
vertex -2.25 1.1 1.2
vertex -2.25 1.1 0.25
endloop
endfacet
facet normal -1 0 0
outer loop
vertex -2.25 0.75 0.25
vertex -2.25 1.1 1.2
vertex -2.25 0.75 0
endloop
endfacet
facet normal -1 0 0
outer loop
vertex -2.25 1.1 1.2
vertex -2.25 0.75 0.25
vertex -2.25 0.75 1.2
endloop
endfacet
facet normal -1 0 0
outer loop
vertex -2.25 1.4 0.25
vertex -2.25 1.1 1.2
vertex -2.25 1.4 1.2
endloop
endfacet
facet normal -1 0 0
outer loop
vertex -2.25 1.1 1.2
vertex -2.25 1.4 0.25
vertex -2.25 1.1 0.25
endloop
endfacet
facet normal -1 0 0
outer loop
vertex -2.25 1.75 0
vertex -2.25 1.4 0
vertex -2.25 1.75 0.25
endloop
endfacet
facet normal -1 0 0
outer loop
vertex -2.25 1.4 0
vertex -2.25 1.75 1.2
vertex -2.25 1.75 0.25
endloop
endfacet
facet normal -1 0 0
outer loop
vertex -2.25 1.4 0.25
vertex -2.25 1.75 1.2
vertex -2.25 1.4 0
endloop
endfacet
facet normal -1 0 0
outer loop
vertex -2.25 1.75 1.2
vertex -2.25 1.4 0.25
vertex -2.25 1.4 1.2
endloop
endfacet
facet normal -1 0 0
outer loop
vertex -2.25 2.05 0.25
vertex -2.25 1.75 1.2
vertex -2.25 2.05 1.2
endloop
endfacet
facet normal -1 0 0
outer loop
vertex -2.25 1.75 1.2
vertex -2.25 2.05 0.25
vertex -2.25 1.75 0.25
endloop
endfacet
facet normal -1 0 0
outer loop
vertex -2.25 2.05 0
vertex -2.25 2.4 1.2
vertex -2.25 2.4 0
endloop
endfacet
facet normal -1 0 0
outer loop
vertex -2.25 2.05 0.25
vertex -2.25 2.4 1.2
vertex -2.25 2.05 0
endloop
endfacet
facet normal -1 0 0
outer loop
vertex -2.25 2.4 1.2
vertex -2.25 2.05 0.25
vertex -2.25 2.05 1.2
endloop
endfacet
facet normal -1 0 0
outer loop
vertex -2.25 2.4 0.25
vertex -2.25 2.7 1.2
vertex -2.25 2.7 0.25
endloop
endfacet
facet normal -1 0 0
outer loop
vertex -2.25 2.7 1.2
vertex -2.25 2.4 0.25
vertex -2.25 2.4 1.2
endloop
endfacet
facet normal -0.9999999999999999 0 0
outer loop
vertex -2.25 3.05 0
vertex -2.25 2.7 0
vertex -2.25 3.05 0.25
endloop
endfacet
facet normal -1 0 0
outer loop
vertex -2.25 2.7 0
vertex -2.25 3.05 1.2
vertex -2.25 3.05 0.25
endloop
endfacet
facet normal -1 0 0
outer loop
vertex -2.25 2.7 0.25
vertex -2.25 3.05 1.2
vertex -2.25 2.7 0
endloop
endfacet
facet normal -1 0 0
outer loop
vertex -2.25 3.05 1.2
vertex -2.25 2.7 0.25
vertex -2.25 2.7 1.2
endloop
endfacet
facet normal -0.9999999999999999 0 0
outer loop
vertex -2.25 3.35 0
vertex -2.25 3.95 1.2
vertex -2.25 3.95 0
endloop
endfacet
facet normal -1 0 0
outer loop
vertex -2.25 3.35 0.25
vertex -2.25 3.95 1.2
vertex -2.25 3.35 0
endloop
endfacet
facet normal -1 0 0
outer loop
vertex -2.25 3.95 1.2
vertex -2.25 3.35 0.25
vertex -2.25 3.35 1.2
endloop
endfacet
facet normal -1 0 0
outer loop
vertex -2.25 3.35 0.25
vertex -2.25 3.05 1.2
vertex -2.25 3.35 1.2
endloop
endfacet
facet normal -1 0 0
outer loop
vertex -2.25 3.05 1.2
vertex -2.25 3.35 0.25
vertex -2.25 3.05 0.25
endloop
endfacet
facet normal 1 0 0
outer loop
vertex 2.25 -3.8 0.25
vertex 2.25 -3.45 1.2
vertex 2.25 -3.8 1.2
endloop
endfacet
facet normal 1 0 0
outer loop
vertex 2.25 -3.8 0.25
vertex 2.25 -3.45 0.25
vertex 2.25 -3.45 1.2
endloop
endfacet
facet normal 0.9999999999999999 0 0
outer loop
vertex 2.25 -3.8 0
vertex 2.25 -3.45 0.25
vertex 2.25 -3.8 0.25
endloop
endfacet
facet normal 0.9999999999999999 0 0
outer loop
vertex 2.25 -3.45 0.25
vertex 2.25 -3.8 0
vertex 2.25 -3.45 0
endloop
endfacet
facet normal 1 0 0
outer loop
vertex 2.25 -3.95 0.25
vertex 2.25 -3.8 1.2
vertex 2.25 -3.95 1.2
endloop
endfacet
facet normal 1 0 0
outer loop
vertex 2.25 -3.8 1.2
vertex 2.25 -3.95 0.25
vertex 2.25 -3.8 0.25
endloop
endfacet
facet normal 1 0 0
outer loop
vertex 2.25 -3.15 0.25
vertex 2.25 -2.8 1.2
vertex 2.25 -3.15 1.2
endloop
endfacet
facet normal 1 0 0
outer loop
vertex 2.25 -3.15 0.25
vertex 2.25 -2.8 0.25
vertex 2.25 -2.8 1.2
endloop
endfacet
facet normal 1 0 0
outer loop
vertex 2.25 -3.15 0
vertex 2.25 -2.8 0.25
vertex 2.25 -3.15 0.25
endloop
endfacet
facet normal 1 0 0
outer loop
vertex 2.25 -2.8 0.25
vertex 2.25 -3.15 0
vertex 2.25 -2.8 0
endloop
endfacet
facet normal 1 0 0
outer loop
vertex 2.25 -3.45 0.25
vertex 2.25 -3.15 1.2
vertex 2.25 -3.45 1.2
endloop
endfacet
facet normal 1 0 0
outer loop
vertex 2.25 -3.15 1.2
vertex 2.25 -3.45 0.25
vertex 2.25 -3.15 0.25
endloop
endfacet
facet normal 1 0 0
outer loop
vertex 2.25 -2.5 0.25
vertex 2.25 -2.15 1.2
vertex 2.25 -2.5 1.2
endloop
endfacet
facet normal 1 0 0
outer loop
vertex 2.25 -2.5 0.25
vertex 2.25 -2.15 0.25
vertex 2.25 -2.15 1.2
endloop
endfacet
facet normal 1 0 0
outer loop
vertex 2.25 -2.5 0
vertex 2.25 -2.15 0.25
vertex 2.25 -2.5 0.25
endloop
endfacet
facet normal 1 0 0
outer loop
vertex 2.25 -2.15 0.25
vertex 2.25 -2.5 0
vertex 2.25 -2.15 0
endloop
endfacet
facet normal 1 0 0
outer loop
vertex 2.25 -2.8 0.25
vertex 2.25 -2.5 1.2
vertex 2.25 -2.8 1.2
endloop
endfacet
facet normal 1 0 0
outer loop
vertex 2.25 -2.5 1.2
vertex 2.25 -2.8 0.25
vertex 2.25 -2.5 0.25
endloop
endfacet
facet normal 1 0 0
outer loop
vertex 2.25 -1.85 0.25
vertex 2.25 -1.5 1.2
vertex 2.25 -1.85 1.2
endloop
endfacet
facet normal 1 0 0
outer loop
vertex 2.25 -1.85 0.25
vertex 2.25 -1.5 0.25
vertex 2.25 -1.5 1.2
endloop
endfacet
facet normal 1 0 0
outer loop
vertex 2.25 -1.85 0
vertex 2.25 -1.5 0.25
vertex 2.25 -1.85 0.25
endloop
endfacet
facet normal 1 0 0
outer loop
vertex 2.25 -1.5 0.25
vertex 2.25 -1.85 0
vertex 2.25 -1.5 0
endloop
endfacet
facet normal 1 0 0
outer loop
vertex 2.25 -2.15 0.25
vertex 2.25 -1.85 1.2
vertex 2.25 -2.15 1.2
endloop
endfacet
facet normal 1 0 0
outer loop
vertex 2.25 -1.85 1.2
vertex 2.25 -2.15 0.25
vertex 2.25 -1.85 0.25
endloop
endfacet
facet normal 1 0 0
outer loop
vertex 2.25 -1.2 0.25
vertex 2.25 -0.85 1.2
vertex 2.25 -1.2 1.2
endloop
endfacet
facet normal 1 0 0
outer loop
vertex 2.25 -1.2 0.25
vertex 2.25 -0.85 0.25
vertex 2.25 -0.85 1.2
endloop
endfacet
facet normal 1 0 0
outer loop
vertex 2.25 -1.2 0
vertex 2.25 -0.85 0.25
vertex 2.25 -1.2 0.25
endloop
endfacet
facet normal 1 0 0
outer loop
vertex 2.25 -0.85 0.25
vertex 2.25 -1.2 0
vertex 2.25 -0.85 0
endloop
endfacet
facet normal 1 0 0
outer loop
vertex 2.25 -1.5 0.25
vertex 2.25 -1.2 1.2
vertex 2.25 -1.5 1.2
endloop
endfacet
facet normal 1 0 0
outer loop
vertex 2.25 -1.2 1.2
vertex 2.25 -1.5 0.25
vertex 2.25 -1.2 0.25
endloop
endfacet
facet normal 1 0 0
outer loop
vertex 2.25 -0.55 0.25
vertex 2.25 -0.2 1.2
vertex 2.25 -0.55 1.2
endloop
endfacet
facet normal 1 0 0
outer loop
vertex 2.25 -0.55 0.25
vertex 2.25 -0.2 0.25
vertex 2.25 -0.2 1.2
endloop
endfacet
facet normal 1 0 0
outer loop
vertex 2.25 -0.55 0
vertex 2.25 -0.2 0.25
vertex 2.25 -0.55 0.25
endloop
endfacet
facet normal 1 0 0
outer loop
vertex 2.25 -0.2 0.25
vertex 2.25 -0.55 0
vertex 2.25 -0.2 0
endloop
endfacet
facet normal 1 0 0
outer loop
vertex 2.25 -0.85 0.25
vertex 2.25 -0.55 1.2
vertex 2.25 -0.85 1.2
endloop
endfacet
facet normal 1 0 0
outer loop
vertex 2.25 -0.55 1.2
vertex 2.25 -0.85 0.25
vertex 2.25 -0.55 0.25
endloop
endfacet
facet normal 1 0 0
outer loop
vertex 2.25 0.1 0.25
vertex 2.25 0.45 1.2
vertex 2.25 0.1 1.2
endloop
endfacet
facet normal 1 0 0
outer loop
vertex 2.25 0.1 0.25
vertex 2.25 0.45 0.25
vertex 2.25 0.45 1.2
endloop
endfacet
facet normal 1 0 0
outer loop
vertex 2.25 0.1 0
vertex 2.25 0.45 0.25
vertex 2.25 0.1 0.25
endloop
endfacet
facet normal 1 0 0
outer loop
vertex 2.25 0.45 0.25
vertex 2.25 0.1 0
vertex 2.25 0.45 0
endloop
endfacet
facet normal 1 0 0
outer loop
vertex 2.25 -0.2 0.25
vertex 2.25 0.1 1.2
vertex 2.25 -0.2 1.2
endloop
endfacet
facet normal 1 0 0
outer loop
vertex 2.25 0.1 1.2
vertex 2.25 -0.2 0.25
vertex 2.25 0.1 0.25
endloop
endfacet
facet normal 1 0 0
outer loop
vertex 2.25 0.75 0.25
vertex 2.25 1.1 1.2
vertex 2.25 0.75 1.2
endloop
endfacet
facet normal 1 0 0
outer loop
vertex 2.25 0.75 0.25
vertex 2.25 1.1 0.25
vertex 2.25 1.1 1.2
endloop
endfacet
facet normal 1 0 0
outer loop
vertex 2.25 0.75 0
vertex 2.25 1.1 0.25
vertex 2.25 0.75 0.25
endloop
endfacet
facet normal 1 0 0
outer loop
vertex 2.25 1.1 0.25
vertex 2.25 0.75 0
vertex 2.25 1.1 0
endloop
endfacet
facet normal 1 0 0
outer loop
vertex 2.25 0.45 0.25
vertex 2.25 0.75 1.2
vertex 2.25 0.45 1.2
endloop
endfacet
facet normal 1 0 0
outer loop
vertex 2.25 0.75 1.2
vertex 2.25 0.45 0.25
vertex 2.25 0.75 0.25
endloop
endfacet
facet normal 1 0 0
outer loop
vertex 2.25 1.4 0.25
vertex 2.25 1.75 1.2
vertex 2.25 1.4 1.2
endloop
endfacet
facet normal 1 0 0
outer loop
vertex 2.25 1.4 0.25
vertex 2.25 1.75 0.25
vertex 2.25 1.75 1.2
endloop
endfacet
facet normal 1 0 0
outer loop
vertex 2.25 1.4 0
vertex 2.25 1.75 0.25
vertex 2.25 1.4 0.25
endloop
endfacet
facet normal 1 0 0
outer loop
vertex 2.25 1.75 0.25
vertex 2.25 1.4 0
vertex 2.25 1.75 0
endloop
endfacet
facet normal 1 0 0
outer loop
vertex 2.25 1.1 0.25
vertex 2.25 1.4 1.2
vertex 2.25 1.1 1.2
endloop
endfacet
facet normal 1 0 0
outer loop
vertex 2.25 1.4 1.2
vertex 2.25 1.1 0.25
vertex 2.25 1.4 0.25
endloop
endfacet
facet normal 1 0 0
outer loop
vertex 2.25 2.05 0.25
vertex 2.25 2.4 1.2
vertex 2.25 2.05 1.2
endloop
endfacet
facet normal 1 0 0
outer loop
vertex 2.25 2.05 0.25
vertex 2.25 2.4 0.25
vertex 2.25 2.4 1.2
endloop
endfacet
facet normal 1 0 0
outer loop
vertex 2.25 2.05 0
vertex 2.25 2.4 0.25
vertex 2.25 2.05 0.25
endloop
endfacet
facet normal 1 0 0
outer loop
vertex 2.25 2.4 0.25
vertex 2.25 2.05 0
vertex 2.25 2.4 0
endloop
endfacet
facet normal 1 0 0
outer loop
vertex 2.25 1.75 0.25
vertex 2.25 2.05 1.2
vertex 2.25 1.75 1.2
endloop
endfacet
facet normal 1 0 0
outer loop
vertex 2.25 2.05 1.2
vertex 2.25 1.75 0.25
vertex 2.25 2.05 0.25
endloop
endfacet
facet normal 1 0 0
outer loop
vertex 2.25 2.7 0.25
vertex 2.25 3.05 1.2
vertex 2.25 2.7 1.2
endloop
endfacet
facet normal 1 0 0
outer loop
vertex 2.25 2.7 0.25
vertex 2.25 3.05 0.25
vertex 2.25 3.05 1.2
endloop
endfacet
facet normal 0.9999999999999999 0 0
outer loop
vertex 2.25 2.7 0
vertex 2.25 3.05 0.25
vertex 2.25 2.7 0.25
endloop
endfacet
facet normal 0.9999999999999999 0 0
outer loop
vertex 2.25 3.05 0.25
vertex 2.25 2.7 0
vertex 2.25 3.05 0
endloop
endfacet
facet normal 1 0 0
outer loop
vertex 2.25 2.4 0.25
vertex 2.25 2.7 1.2
vertex 2.25 2.4 1.2
endloop
endfacet
facet normal 1 0 0
outer loop
vertex 2.25 2.7 1.2
vertex 2.25 2.4 0.25
vertex 2.25 2.7 0.25
endloop
endfacet
facet normal 1 0 0
outer loop
vertex 2.25 3.35 0.25
vertex 2.25 3.95 1.2
vertex 2.25 3.35 1.2
endloop
endfacet
facet normal 1 0 0
outer loop
vertex 2.25 3.35 0
vertex 2.25 3.95 1.2
vertex 2.25 3.35 0.25
endloop
endfacet
facet normal 0.9999999999999999 0 0
outer loop
vertex 2.25 3.95 1.2
vertex 2.25 3.35 0
vertex 2.25 3.95 0
endloop
endfacet
facet normal 1 0 0
outer loop
vertex 2.25 3.05 0.25
vertex 2.25 3.35 1.2
vertex 2.25 3.05 1.2
endloop
endfacet
facet normal 1 0 0
outer loop
vertex 2.25 3.35 1.2
vertex 2.25 3.05 0.25
vertex 2.25 3.35 0.25
endloop
endfacet
facet normal 0 0 1
outer loop
vertex -2.25 3.35 1.2
vertex 2.25 3.95 1.2
vertex -2.25 3.95 1.2
endloop
endfacet
facet normal 0 0 1
outer loop
vertex -2.25 3.35 1.2
vertex 2.25 3.35 1.2
vertex 2.25 3.95 1.2
endloop
endfacet
facet normal 0 0 1
outer loop
vertex -2.25 3.05 1.2
vertex 2.25 3.35 1.2
vertex -2.25 3.35 1.2
endloop
endfacet
facet normal 0 0 1
outer loop
vertex -2.25 3.05 1.2
vertex 2.25 3.05 1.2
vertex 2.25 3.35 1.2
endloop
endfacet
facet normal 0 0 1
outer loop
vertex -2.25 2.7 1.2
vertex 2.25 3.05 1.2
vertex -2.25 3.05 1.2
endloop
endfacet
facet normal 0 0 1
outer loop
vertex -2.25 2.7 1.2
vertex 2.25 2.7 1.2
vertex 2.25 3.05 1.2
endloop
endfacet
facet normal 0 0 1
outer loop
vertex -2.25 2.4 1.2
vertex 2.25 2.7 1.2
vertex -2.25 2.7 1.2
endloop
endfacet
facet normal 0 0 1
outer loop
vertex -2.25 2.4 1.2
vertex 2.25 2.4 1.2
vertex 2.25 2.7 1.2
endloop
endfacet
facet normal 0 0 1
outer loop
vertex -2.25 2.05 1.2
vertex 2.25 2.4 1.2
vertex -2.25 2.4 1.2
endloop
endfacet
facet normal 0 0 1
outer loop
vertex -2.25 2.05 1.2
vertex 2.25 2.05 1.2
vertex 2.25 2.4 1.2
endloop
endfacet
facet normal 0 0 1
outer loop
vertex -2.25 1.75 1.2
vertex 2.25 2.05 1.2
vertex -2.25 2.05 1.2
endloop
endfacet
facet normal 0 0 1
outer loop
vertex -2.25 1.75 1.2
vertex 2.25 1.75 1.2
vertex 2.25 2.05 1.2
endloop
endfacet
facet normal 0 0 0.9999999999999999
outer loop
vertex -2.25 1.4 1.2
vertex 2.25 1.75 1.2
vertex -2.25 1.75 1.2
endloop
endfacet
facet normal 0 0 1
outer loop
vertex -2.25 1.4 1.2
vertex 2.25 1.4 1.2
vertex 2.25 1.75 1.2
endloop
endfacet
facet normal 0 0 1
outer loop
vertex -2.25 1.1 1.2
vertex 2.25 1.4 1.2
vertex -2.25 1.4 1.2
endloop
endfacet
facet normal 0 0 1
outer loop
vertex -2.25 1.1 1.2
vertex 2.25 1.1 1.2
vertex 2.25 1.4 1.2
endloop
endfacet
facet normal 0 0 1
outer loop
vertex -2.25 0.75 1.2
vertex 2.25 1.1 1.2
vertex -2.25 1.1 1.2
endloop
endfacet
facet normal 0 0 0.9999999999999999
outer loop
vertex -2.25 0.75 1.2
vertex 2.25 0.75 1.2
vertex 2.25 1.1 1.2
endloop
endfacet
facet normal 0 0 1
outer loop
vertex -2.25 0.45 1.2
vertex 2.25 0.75 1.2
vertex -2.25 0.75 1.2
endloop
endfacet
facet normal 0 0 1
outer loop
vertex -2.25 0.45 1.2
vertex 2.25 0.45 1.2
vertex 2.25 0.75 1.2
endloop
endfacet
facet normal 0 0 1
outer loop
vertex -2.25 0.1 1.2
vertex 2.25 0.45 1.2
vertex -2.25 0.45 1.2
endloop
endfacet
facet normal 0 0 1
outer loop
vertex -2.25 0.1 1.2
vertex 2.25 0.1 1.2
vertex 2.25 0.45 1.2
endloop
endfacet
facet normal 0 0 1
outer loop
vertex -2.25 -0.2 1.2
vertex 2.25 0.1 1.2
vertex -2.25 0.1 1.2
endloop
endfacet
facet normal 0 0 1
outer loop
vertex -2.25 -0.2 1.2
vertex 2.25 -0.2 1.2
vertex 2.25 0.1 1.2
endloop
endfacet
facet normal 0 0 0.9999999999999999
outer loop
vertex -2.25 -0.55 1.2
vertex 2.25 -0.2 1.2
vertex -2.25 -0.2 1.2
endloop
endfacet
facet normal 0 0 1
outer loop
vertex -2.25 -0.55 1.2
vertex 2.25 -0.55 1.2
vertex 2.25 -0.2 1.2
endloop
endfacet
facet normal 0 0 1
outer loop
vertex -2.25 -0.85 1.2
vertex 2.25 -0.55 1.2
vertex -2.25 -0.55 1.2
endloop
endfacet
facet normal 0 0 1
outer loop
vertex -2.25 -0.85 1.2
vertex 2.25 -0.85 1.2
vertex 2.25 -0.55 1.2
endloop
endfacet
facet normal 0 0 1
outer loop
vertex -2.25 -1.2 1.2
vertex 2.25 -0.85 1.2
vertex -2.25 -0.85 1.2
endloop
endfacet
facet normal 0 0 1
outer loop
vertex -2.25 -1.2 1.2
vertex 2.25 -1.2 1.2
vertex 2.25 -0.85 1.2
endloop
endfacet
facet normal 0 0 1
outer loop
vertex -2.25 -1.5 1.2
vertex 2.25 -1.2 1.2
vertex -2.25 -1.2 1.2
endloop
endfacet
facet normal 0 0 1
outer loop
vertex -2.25 -1.5 1.2
vertex 2.25 -1.5 1.2
vertex 2.25 -1.2 1.2
endloop
endfacet
facet normal 0 0 0.9999999999999999
outer loop
vertex -2.25 -1.85 1.2
vertex 2.25 -1.5 1.2
vertex -2.25 -1.5 1.2
endloop
endfacet
facet normal 0 0 0.9999999999999999
outer loop
vertex -2.25 -1.85 1.2
vertex 2.25 -1.85 1.2
vertex 2.25 -1.5 1.2
endloop
endfacet
facet normal 0 0 1
outer loop
vertex -2.25 -2.15 1.2
vertex 2.25 -1.85 1.2
vertex -2.25 -1.85 1.2
endloop
endfacet
facet normal 0 0 1
outer loop
vertex -2.25 -2.15 1.2
vertex 2.25 -2.15 1.2
vertex 2.25 -1.85 1.2
endloop
endfacet
facet normal 0 0 1
outer loop
vertex -2.25 -2.5 1.2
vertex 2.25 -2.15 1.2
vertex -2.25 -2.15 1.2
endloop
endfacet
facet normal 0 0 1
outer loop
vertex -2.25 -2.5 1.2
vertex 2.25 -2.5 1.2
vertex 2.25 -2.15 1.2
endloop
endfacet
facet normal 0 0 1
outer loop
vertex -2.25 -2.8 1.2
vertex 2.25 -2.5 1.2
vertex -2.25 -2.5 1.2
endloop
endfacet
facet normal 0 0 1
outer loop
vertex -2.25 -2.8 1.2
vertex 2.25 -2.8 1.2
vertex 2.25 -2.5 1.2
endloop
endfacet
facet normal 0 0 1
outer loop
vertex -2.25 -3.15 1.2
vertex 2.25 -2.8 1.2
vertex -2.25 -2.8 1.2
endloop
endfacet
facet normal 0 0 1
outer loop
vertex -2.25 -3.15 1.2
vertex 2.25 -3.15 1.2
vertex 2.25 -2.8 1.2
endloop
endfacet
facet normal 0 0 1
outer loop
vertex -2.25 -3.45 1.2
vertex 2.25 -3.15 1.2
vertex -2.25 -3.15 1.2
endloop
endfacet
facet normal 0 0 1
outer loop
vertex -2.25 -3.45 1.2
vertex 2.25 -3.45 1.2
vertex 2.25 -3.15 1.2
endloop
endfacet
facet normal 0 0 1
outer loop
vertex -2.25 -3.8 1.2
vertex 2.25 -3.45 1.2
vertex -2.25 -3.45 1.2
endloop
endfacet
facet normal 0 0 1
outer loop
vertex -2.25 -3.8 1.2
vertex 2.25 -3.8 1.2
vertex 2.25 -3.45 1.2
endloop
endfacet
facet normal 0 0 1
outer loop
vertex -2.25 -3.95 1.2
vertex 2.25 -3.8 1.2
vertex -2.25 -3.8 1.2
endloop
endfacet
facet normal 0 0 1
outer loop
vertex 2.25 -3.8 1.2
vertex -2.25 -3.95 1.2
vertex 2.25 -3.95 1.2
endloop
endfacet
facet normal 0 0 -1
outer loop
vertex -2.25 3.35 0
vertex 2.25 3.95 0
vertex 2.25 3.35 0
endloop
endfacet
facet normal 0 0 -1
outer loop
vertex 2.25 3.95 0
vertex -2.25 3.35 0
vertex -2.25 3.95 0
endloop
endfacet
facet normal 0 0 -1
outer loop
vertex -2.25 2.7 0
vertex 2.25 3.05 0
vertex 2.25 2.7 0
endloop
endfacet
facet normal 0 0 -1
outer loop
vertex 2.25 3.05 0
vertex -2.25 2.7 0
vertex -2.25 3.05 0
endloop
endfacet
facet normal 0 0 -1
outer loop
vertex -2.25 2.05 0
vertex 2.25 2.4 0
vertex 2.25 2.05 0
endloop
endfacet
facet normal 0 0 -1
outer loop
vertex 2.25 2.4 0
vertex -2.25 2.05 0
vertex -2.25 2.4 0
endloop
endfacet
facet normal 0 0 -1
outer loop
vertex -2.25 1.4 0
vertex 2.25 1.75 0
vertex 2.25 1.4 0
endloop
endfacet
facet normal 0 0 -0.9999999999999999
outer loop
vertex 2.25 1.75 0
vertex -2.25 1.4 0
vertex -2.25 1.75 0
endloop
endfacet
facet normal 0 0 -0.9999999999999999
outer loop
vertex -2.25 0.75 0
vertex 2.25 1.1 0
vertex 2.25 0.75 0
endloop
endfacet
facet normal 0 0 -1
outer loop
vertex 2.25 1.1 0
vertex -2.25 0.75 0
vertex -2.25 1.1 0
endloop
endfacet
facet normal 0 0 -1
outer loop
vertex -2.25 0.1 0
vertex 2.25 0.45 0
vertex 2.25 0.1 0
endloop
endfacet
facet normal 0 0 -1
outer loop
vertex 2.25 0.45 0
vertex -2.25 0.1 0
vertex -2.25 0.45 0
endloop
endfacet
facet normal 0 0 -1
outer loop
vertex -2.25 -0.55 0
vertex 2.25 -0.2 0
vertex 2.25 -0.55 0
endloop
endfacet
facet normal 0 0 -0.9999999999999999
outer loop
vertex 2.25 -0.2 0
vertex -2.25 -0.55 0
vertex -2.25 -0.2 0
endloop
endfacet
facet normal 0 0 -1
outer loop
vertex -2.25 -1.2 0
vertex 2.25 -0.85 0
vertex 2.25 -1.2 0
endloop
endfacet
facet normal 0 0 -1
outer loop
vertex 2.25 -0.85 0
vertex -2.25 -1.2 0
vertex -2.25 -0.85 0
endloop
endfacet
facet normal 0 0 -0.9999999999999999
outer loop
vertex -2.25 -1.85 0
vertex 2.25 -1.5 0
vertex 2.25 -1.85 0
endloop
endfacet
facet normal 0 0 -0.9999999999999999
outer loop
vertex 2.25 -1.5 0
vertex -2.25 -1.85 0
vertex -2.25 -1.5 0
endloop
endfacet
facet normal 0 0 -1
outer loop
vertex 2.25 -2.5 0
vertex -2.25 -2.15 0
vertex 2.25 -2.15 0
endloop
endfacet
facet normal 0 0 -1
outer loop
vertex -2.25 -2.15 0
vertex 2.25 -2.5 0
vertex -2.25 -2.5 0
endloop
endfacet
facet normal 0 0 -1
outer loop
vertex 2.25 -3.15 0
vertex -2.25 -2.8 0
vertex 2.25 -2.8 0
endloop
endfacet
facet normal 0 0 -1
outer loop
vertex -2.25 -2.8 0
vertex 2.25 -3.15 0
vertex -2.25 -3.15 0
endloop
endfacet
facet normal 0 0 -1
outer loop
vertex 2.25 -3.8 0
vertex -2.25 -3.45 0
vertex 2.25 -3.45 0
endloop
endfacet
facet normal 0 0 -1
outer loop
vertex -2.25 -3.45 0
vertex 2.25 -3.8 0
vertex -2.25 -3.8 0
endloop
endfacet
facet normal 0 -1 0
outer loop
vertex -2.25 -3.95 1.2
vertex 2.25 -3.95 0.25
vertex 2.25 -3.95 1.2
endloop
endfacet
facet normal 0 -1 0
outer loop
vertex 2.25 -3.95 0.25
vertex -2.25 -3.95 1.2
vertex -2.25 -3.95 0.25
endloop
endfacet
facet normal 0 1 0
outer loop
vertex -2.25 3.95 0
vertex 2.25 3.95 1.2
vertex 2.25 3.95 0
endloop
endfacet
facet normal 0 1 0
outer loop
vertex 2.25 3.95 1.2
vertex -2.25 3.95 0
vertex -2.25 3.95 1.2
endloop
endfacet
facet normal 0 -1 0
outer loop
vertex 2.25 -3.45 0.25
vertex 3.3 -3.45 0
vertex 3.3 -3.45 0.25
endloop
endfacet
facet normal 0 -1 0
outer loop
vertex 2.25 -3.45 0.25
vertex 2.25 -3.45 0
vertex 3.3 -3.45 0
endloop
endfacet
facet normal 0 -1 0
outer loop
vertex 2.25 -3.45 0.25
vertex -2.25 -3.45 0
vertex 2.25 -3.45 0
endloop
endfacet
facet normal 0 -1 0
outer loop
vertex -2.25 -3.45 0.25
vertex -2.25 -3.45 0
vertex 2.25 -3.45 0.25
endloop
endfacet
facet normal 0 -1 0
outer loop
vertex -3.3 -3.45 0.25
vertex -2.25 -3.45 0
vertex -2.25 -3.45 0.25
endloop
endfacet
facet normal 0 -1 0
outer loop
vertex -2.25 -3.45 0
vertex -3.3 -3.45 0.25
vertex -3.3 -3.45 0
endloop
endfacet
facet normal -1 0 0
outer loop
vertex -3.3 -3.45 0
vertex -3.3 -3.15 0.25
vertex -3.3 -3.15 0
endloop
endfacet
facet normal -1 0 0
outer loop
vertex -3.3 -3.15 0.25
vertex -3.3 -3.45 0
vertex -3.3 -3.45 0.25
endloop
endfacet
facet normal 0 1 0
outer loop
vertex 2.25 -3.15 0
vertex 3.3 -3.15 0.25
vertex 3.3 -3.15 0
endloop
endfacet
facet normal 0 1 0
outer loop
vertex 2.25 -3.15 0
vertex 2.25 -3.15 0.25
vertex 3.3 -3.15 0.25
endloop
endfacet
facet normal 0 1 0
outer loop
vertex 2.25 -3.15 0
vertex -2.25 -3.15 0.25
vertex 2.25 -3.15 0.25
endloop
endfacet
facet normal 0 1 0
outer loop
vertex -2.25 -3.15 0
vertex -2.25 -3.15 0.25
vertex 2.25 -3.15 0
endloop
endfacet
facet normal 0 1 0
outer loop
vertex -3.3 -3.15 0
vertex -2.25 -3.15 0.25
vertex -2.25 -3.15 0
endloop
endfacet
facet normal 0 1 0
outer loop
vertex -2.25 -3.15 0.25
vertex -3.3 -3.15 0
vertex -3.3 -3.15 0.25
endloop
endfacet
facet normal 1 0 0
outer loop
vertex 3.3 -3.45 0.25
vertex 3.3 -3.15 0
vertex 3.3 -3.15 0.25
endloop
endfacet
facet normal 1 0 0
outer loop
vertex 3.3 -3.15 0
vertex 3.3 -3.45 0.25
vertex 3.3 -3.45 0
endloop
endfacet
facet normal 0 0 1
outer loop
vertex 2.25 -3.15 0.25
vertex 3.3 -3.45 0.25
vertex 3.3 -3.15 0.25
endloop
endfacet
facet normal 0 0 1
outer loop
vertex 2.25 -3.15 0.25
vertex 2.25 -3.45 0.25
vertex 3.3 -3.45 0.25
endloop
endfacet
facet normal 0 0 1
outer loop
vertex -2.25 -3.15 0.25
vertex 2.25 -3.45 0.25
vertex 2.25 -3.15 0.25
endloop
endfacet
facet normal 0 0 1
outer loop
vertex -2.25 -3.15 0.25
vertex -2.25 -3.45 0.25
vertex 2.25 -3.45 0.25
endloop
endfacet
facet normal 0 0 1
outer loop
vertex -3.3 -3.15 0.25
vertex -2.25 -3.45 0.25
vertex -2.25 -3.15 0.25
endloop
endfacet
facet normal 0 0 1
outer loop
vertex -2.25 -3.45 0.25
vertex -3.3 -3.15 0.25
vertex -3.3 -3.45 0.25
endloop
endfacet
facet normal 0 0 -1
outer loop
vertex 2.25 -3.45 0
vertex 3.3 -3.15 0
vertex 3.3 -3.45 0
endloop
endfacet
facet normal 0 0 -1
outer loop
vertex 2.25 -3.45 0
vertex 2.25 -3.15 0
vertex 3.3 -3.15 0
endloop
endfacet
facet normal 0 0 -1
outer loop
vertex -2.25 -3.45 0
vertex 2.25 -3.15 0
vertex 2.25 -3.45 0
endloop
endfacet
facet normal 0 0 -1
outer loop
vertex -2.25 -3.45 0
vertex -2.25 -3.15 0
vertex 2.25 -3.15 0
endloop
endfacet
facet normal 0 0 -1
outer loop
vertex -3.3 -3.45 0
vertex -2.25 -3.15 0
vertex -2.25 -3.45 0
endloop
endfacet
facet normal 0 0 -1
outer loop
vertex -2.25 -3.15 0
vertex -3.3 -3.45 0
vertex -3.3 -3.15 0
endloop
endfacet
facet normal 0 -1 0
outer loop
vertex 2.25 -2.8 0.25
vertex 3.3 -2.8 0
vertex 3.3 -2.8 0.25
endloop
endfacet
facet normal 0 -1 0
outer loop
vertex 2.25 -2.8 0.25
vertex 2.25 -2.8 0
vertex 3.3 -2.8 0
endloop
endfacet
facet normal 0 -1 0
outer loop
vertex -2.25 -2.8 0.25
vertex 2.25 -2.8 0
vertex 2.25 -2.8 0.25
endloop
endfacet
facet normal 0 -1 0
outer loop
vertex -2.25 -2.8 0.25
vertex -2.25 -2.8 0
vertex 2.25 -2.8 0
endloop
endfacet
facet normal 0 -1 0
outer loop
vertex -3.3 -2.8 0.25
vertex -2.25 -2.8 0
vertex -2.25 -2.8 0.25
endloop
endfacet
facet normal 0 -1 0
outer loop
vertex -2.25 -2.8 0
vertex -3.3 -2.8 0.25
vertex -3.3 -2.8 0
endloop
endfacet
facet normal -1 0 0
outer loop
vertex -3.3 -2.8 0
vertex -3.3 -2.5 0.25
vertex -3.3 -2.5 0
endloop
endfacet
facet normal -1 0 0
outer loop
vertex -3.3 -2.5 0.25
vertex -3.3 -2.8 0
vertex -3.3 -2.8 0.25
endloop
endfacet
facet normal 0 1 0
outer loop
vertex 2.25 -2.5 0
vertex 3.3 -2.5 0.25
vertex 3.3 -2.5 0
endloop
endfacet
facet normal 0 1 0
outer loop
vertex 2.25 -2.5 0
vertex 2.25 -2.5 0.25
vertex 3.3 -2.5 0.25
endloop
endfacet
facet normal 0 1 0
outer loop
vertex -2.25 -2.5 0
vertex 2.25 -2.5 0.25
vertex 2.25 -2.5 0
endloop
endfacet
facet normal 0 1 0
outer loop
vertex -2.25 -2.5 0
vertex -2.25 -2.5 0.25
vertex 2.25 -2.5 0.25
endloop
endfacet
facet normal 0 1 0
outer loop
vertex -3.3 -2.5 0
vertex -2.25 -2.5 0.25
vertex -2.25 -2.5 0
endloop
endfacet
facet normal 0 1 0
outer loop
vertex -2.25 -2.5 0.25
vertex -3.3 -2.5 0
vertex -3.3 -2.5 0.25
endloop
endfacet
facet normal 1 0 0
outer loop
vertex 3.3 -2.8 0.25
vertex 3.3 -2.5 0
vertex 3.3 -2.5 0.25
endloop
endfacet
facet normal 1 0 0
outer loop
vertex 3.3 -2.5 0
vertex 3.3 -2.8 0.25
vertex 3.3 -2.8 0
endloop
endfacet
facet normal 0 0 1
outer loop
vertex 2.25 -2.5 0.25
vertex 3.3 -2.8 0.25
vertex 3.3 -2.5 0.25
endloop
endfacet
facet normal 0 0 1
outer loop
vertex 2.25 -2.5 0.25
vertex 2.25 -2.8 0.25
vertex 3.3 -2.8 0.25
endloop
endfacet
facet normal 0 0 1
outer loop
vertex 2.25 -2.5 0.25
vertex -2.25 -2.8 0.25
vertex 2.25 -2.8 0.25
endloop
endfacet
facet normal 0 0 1
outer loop
vertex -2.25 -2.5 0.25
vertex -2.25 -2.8 0.25
vertex 2.25 -2.5 0.25
endloop
endfacet
facet normal 0 0 1
outer loop
vertex -3.3 -2.5 0.25
vertex -2.25 -2.8 0.25
vertex -2.25 -2.5 0.25
endloop
endfacet
facet normal 0 0 1
outer loop
vertex -2.25 -2.8 0.25
vertex -3.3 -2.5 0.25
vertex -3.3 -2.8 0.25
endloop
endfacet
facet normal 0 0 -1
outer loop
vertex 2.25 -2.8 0
vertex 3.3 -2.5 0
vertex 3.3 -2.8 0
endloop
endfacet
facet normal 0 0 -1
outer loop
vertex 2.25 -2.8 0
vertex 2.25 -2.5 0
vertex 3.3 -2.5 0
endloop
endfacet
facet normal 0 0 -1
outer loop
vertex -2.25 -2.8 0
vertex 2.25 -2.5 0
vertex 2.25 -2.8 0
endloop
endfacet
facet normal 0 0 -1
outer loop
vertex -2.25 -2.8 0
vertex -2.25 -2.5 0
vertex 2.25 -2.5 0
endloop
endfacet
facet normal 0 0 -1
outer loop
vertex -3.3 -2.8 0
vertex -2.25 -2.5 0
vertex -2.25 -2.8 0
endloop
endfacet
facet normal 0 0 -1
outer loop
vertex -2.25 -2.5 0
vertex -3.3 -2.8 0
vertex -3.3 -2.5 0
endloop
endfacet
facet normal 0 -1 0
outer loop
vertex 2.25 -2.15 0.25
vertex 3.3 -2.15 0
vertex 3.3 -2.15 0.25
endloop
endfacet
facet normal 0 -1 0
outer loop
vertex 2.25 -2.15 0.25
vertex 2.25 -2.15 0
vertex 3.3 -2.15 0
endloop
endfacet
facet normal 0 -1 0
outer loop
vertex -2.25 -2.15 0.25
vertex 2.25 -2.15 0
vertex 2.25 -2.15 0.25
endloop
endfacet
facet normal 0 -1 0
outer loop
vertex -2.25 -2.15 0.25
vertex -2.25 -2.15 0
vertex 2.25 -2.15 0
endloop
endfacet
facet normal 0 -1 0
outer loop
vertex -3.3 -2.15 0.25
vertex -2.25 -2.15 0
vertex -2.25 -2.15 0.25
endloop
endfacet
facet normal 0 -1 0
outer loop
vertex -2.25 -2.15 0
vertex -3.3 -2.15 0.25
vertex -3.3 -2.15 0
endloop
endfacet
facet normal -1 0 0
outer loop
vertex -3.3 -2.15 0
vertex -3.3 -1.85 0.25
vertex -3.3 -1.85 0
endloop
endfacet
facet normal -1 0 0
outer loop
vertex -3.3 -1.85 0.25
vertex -3.3 -2.15 0
vertex -3.3 -2.15 0.25
endloop
endfacet
facet normal 0 1 0
outer loop
vertex 2.25 -1.85 0
vertex 3.3 -1.85 0.25
vertex 3.3 -1.85 0
endloop
endfacet
facet normal 0 1 0
outer loop
vertex 2.25 -1.85 0
vertex 2.25 -1.85 0.25
vertex 3.3 -1.85 0.25
endloop
endfacet
facet normal 0 1 0
outer loop
vertex -2.25 -1.85 0
vertex 2.25 -1.85 0.25
vertex 2.25 -1.85 0
endloop
endfacet
facet normal 0 1 0
outer loop
vertex -2.25 -1.85 0
vertex -2.25 -1.85 0.25
vertex 2.25 -1.85 0.25
endloop
endfacet
facet normal 0 1 0
outer loop
vertex -3.3 -1.85 0
vertex -2.25 -1.85 0.25
vertex -2.25 -1.85 0
endloop
endfacet
facet normal 0 1 0
outer loop
vertex -2.25 -1.85 0.25
vertex -3.3 -1.85 0
vertex -3.3 -1.85 0.25
endloop
endfacet
facet normal 1 0 0
outer loop
vertex 3.3 -2.15 0.25
vertex 3.3 -1.85 0
vertex 3.3 -1.85 0.25
endloop
endfacet
facet normal 1 0 0
outer loop
vertex 3.3 -1.85 0
vertex 3.3 -2.15 0.25
vertex 3.3 -2.15 0
endloop
endfacet
facet normal 0 0 1
outer loop
vertex 2.25 -1.85 0.25
vertex 3.3 -2.15 0.25
vertex 3.3 -1.85 0.25
endloop
endfacet
facet normal 0 0 1
outer loop
vertex 2.25 -1.85 0.25
vertex 2.25 -2.15 0.25
vertex 3.3 -2.15 0.25
endloop
endfacet
facet normal 0 0 1
outer loop
vertex -2.25 -1.85 0.25
vertex 2.25 -2.15 0.25
vertex 2.25 -1.85 0.25
endloop
endfacet
facet normal 0 0 1
outer loop
vertex -2.25 -1.85 0.25
vertex -2.25 -2.15 0.25
vertex 2.25 -2.15 0.25
endloop
endfacet
facet normal 0 0 1
outer loop
vertex -3.3 -1.85 0.25
vertex -2.25 -2.15 0.25
vertex -2.25 -1.85 0.25
endloop
endfacet
facet normal 0 0 1
outer loop
vertex -2.25 -2.15 0.25
vertex -3.3 -1.85 0.25
vertex -3.3 -2.15 0.25
endloop
endfacet
facet normal 0 0 -1
outer loop
vertex 3.3 -2.15 0
vertex 2.25 -1.85 0
vertex 3.3 -1.85 0
endloop
endfacet
facet normal 0 0 -1
outer loop
vertex 2.25 -2.15 0
vertex 2.25 -1.85 0
vertex 3.3 -2.15 0
endloop
endfacet
facet normal 0 0 -1
outer loop
vertex -2.25 -2.15 0
vertex 2.25 -1.85 0
vertex 2.25 -2.15 0
endloop
endfacet
facet normal 0 0 -1
outer loop
vertex -2.25 -2.15 0
vertex -2.25 -1.85 0
vertex 2.25 -1.85 0
endloop
endfacet
facet normal 0 0 -1
outer loop
vertex -3.3 -2.15 0
vertex -2.25 -1.85 0
vertex -2.25 -2.15 0
endloop
endfacet
facet normal 0 0 -1
outer loop
vertex -2.25 -1.85 0
vertex -3.3 -2.15 0
vertex -3.3 -1.85 0
endloop
endfacet
facet normal 0 -1 0
outer loop
vertex 2.25 -1.5 0.25
vertex 3.3 -1.5 0
vertex 3.3 -1.5 0.25
endloop
endfacet
facet normal 0 -1 0
outer loop
vertex 2.25 -1.5 0.25
vertex 2.25 -1.5 0
vertex 3.3 -1.5 0
endloop
endfacet
facet normal 0 -1 0
outer loop
vertex -2.25 -1.5 0.25
vertex 2.25 -1.5 0
vertex 2.25 -1.5 0.25
endloop
endfacet
facet normal 0 -1 0
outer loop
vertex -2.25 -1.5 0.25
vertex -2.25 -1.5 0
vertex 2.25 -1.5 0
endloop
endfacet
facet normal 0 -1 0
outer loop
vertex -3.3 -1.5 0.25
vertex -2.25 -1.5 0
vertex -2.25 -1.5 0.25
endloop
endfacet
facet normal 0 -1 0
outer loop
vertex -2.25 -1.5 0
vertex -3.3 -1.5 0.25
vertex -3.3 -1.5 0
endloop
endfacet
facet normal -1 0 0
outer loop
vertex -3.3 -1.5 0
vertex -3.3 -1.2 0.25
vertex -3.3 -1.2 0
endloop
endfacet
facet normal -1 0 0
outer loop
vertex -3.3 -1.2 0.25
vertex -3.3 -1.5 0
vertex -3.3 -1.5 0.25
endloop
endfacet
facet normal 0 1 0
outer loop
vertex 2.25 -1.2 0
vertex 3.3 -1.2 0.25
vertex 3.3 -1.2 0
endloop
endfacet
facet normal 0 1 0
outer loop
vertex 2.25 -1.2 0
vertex 2.25 -1.2 0.25
vertex 3.3 -1.2 0.25
endloop
endfacet
facet normal 0 1 0
outer loop
vertex -2.25 -1.2 0
vertex 2.25 -1.2 0.25
vertex 2.25 -1.2 0
endloop
endfacet
facet normal 0 1 0
outer loop
vertex -2.25 -1.2 0
vertex -2.25 -1.2 0.25
vertex 2.25 -1.2 0.25
endloop
endfacet
facet normal 0 1 0
outer loop
vertex -3.3 -1.2 0
vertex -2.25 -1.2 0.25
vertex -2.25 -1.2 0
endloop
endfacet
facet normal 0 1 0
outer loop
vertex -2.25 -1.2 0.25
vertex -3.3 -1.2 0
vertex -3.3 -1.2 0.25
endloop
endfacet
facet normal 1 0 0
outer loop
vertex 3.3 -1.5 0.25
vertex 3.3 -1.2 0
vertex 3.3 -1.2 0.25
endloop
endfacet
facet normal 1 0 0
outer loop
vertex 3.3 -1.2 0
vertex 3.3 -1.5 0.25
vertex 3.3 -1.5 0
endloop
endfacet
facet normal 0 0 1
outer loop
vertex 2.25 -1.2 0.25
vertex 3.3 -1.5 0.25
vertex 3.3 -1.2 0.25
endloop
endfacet
facet normal 0 0 1
outer loop
vertex 2.25 -1.2 0.25
vertex 2.25 -1.5 0.25
vertex 3.3 -1.5 0.25
endloop
endfacet
facet normal 0 0 1
outer loop
vertex -2.25 -1.2 0.25
vertex 2.25 -1.5 0.25
vertex 2.25 -1.2 0.25
endloop
endfacet
facet normal 0 0 1
outer loop
vertex -2.25 -1.2 0.25
vertex -2.25 -1.5 0.25
vertex 2.25 -1.5 0.25
endloop
endfacet
facet normal 0 0 1
outer loop
vertex -3.3 -1.2 0.25
vertex -2.25 -1.5 0.25
vertex -2.25 -1.2 0.25
endloop
endfacet
facet normal 0 0 1
outer loop
vertex -2.25 -1.5 0.25
vertex -3.3 -1.2 0.25
vertex -3.3 -1.5 0.25
endloop
endfacet
facet normal 0 0 -1
outer loop
vertex 2.25 -1.5 0
vertex 3.3 -1.2 0
vertex 3.3 -1.5 0
endloop
endfacet
facet normal 0 0 -1
outer loop
vertex 2.25 -1.5 0
vertex 2.25 -1.2 0
vertex 3.3 -1.2 0
endloop
endfacet
facet normal 0 0 -1
outer loop
vertex -2.25 -1.5 0
vertex 2.25 -1.2 0
vertex 2.25 -1.5 0
endloop
endfacet
facet normal 0 0 -1
outer loop
vertex -2.25 -1.5 0
vertex -2.25 -1.2 0
vertex 2.25 -1.2 0
endloop
endfacet
facet normal 0 0 -1
outer loop
vertex -3.3 -1.5 0
vertex -2.25 -1.2 0
vertex -2.25 -1.5 0
endloop
endfacet
facet normal 0 0 -1
outer loop
vertex -2.25 -1.2 0
vertex -3.3 -1.5 0
vertex -3.3 -1.2 0
endloop
endfacet
facet normal 0 -1 0
outer loop
vertex 2.25 -0.85 0.25
vertex 3.3 -0.85 0
vertex 3.3 -0.85 0.25
endloop
endfacet
facet normal 0 -1 0
outer loop
vertex 2.25 -0.85 0.25
vertex 2.25 -0.85 0
vertex 3.3 -0.85 0
endloop
endfacet
facet normal 0 -1 0
outer loop
vertex -2.25 -0.85 0.25
vertex 2.25 -0.85 0
vertex 2.25 -0.85 0.25
endloop
endfacet
facet normal 0 -1 0
outer loop
vertex -2.25 -0.85 0.25
vertex -2.25 -0.85 0
vertex 2.25 -0.85 0
endloop
endfacet
facet normal 0 -1 0
outer loop
vertex -3.3 -0.85 0.25
vertex -2.25 -0.85 0
vertex -2.25 -0.85 0.25
endloop
endfacet
facet normal 0 -1 0
outer loop
vertex -2.25 -0.85 0
vertex -3.3 -0.85 0.25
vertex -3.3 -0.85 0
endloop
endfacet
facet normal -1 0 0
outer loop
vertex -3.3 -0.85 0
vertex -3.3 -0.55 0.25
vertex -3.3 -0.55 0
endloop
endfacet
facet normal -1 0 0
outer loop
vertex -3.3 -0.55 0.25
vertex -3.3 -0.85 0
vertex -3.3 -0.85 0.25
endloop
endfacet
facet normal 0 1 0
outer loop
vertex 2.25 -0.55 0
vertex 3.3 -0.55 0.25
vertex 3.3 -0.55 0
endloop
endfacet
facet normal 0 1 0
outer loop
vertex 2.25 -0.55 0
vertex 2.25 -0.55 0.25
vertex 3.3 -0.55 0.25
endloop
endfacet
facet normal 0 1 0
outer loop
vertex -2.25 -0.55 0
vertex 2.25 -0.55 0.25
vertex 2.25 -0.55 0
endloop
endfacet
facet normal 0 1 0
outer loop
vertex -2.25 -0.55 0
vertex -2.25 -0.55 0.25
vertex 2.25 -0.55 0.25
endloop
endfacet
facet normal 0 1 0
outer loop
vertex -3.3 -0.55 0
vertex -2.25 -0.55 0.25
vertex -2.25 -0.55 0
endloop
endfacet
facet normal 0 1 0
outer loop
vertex -2.25 -0.55 0.25
vertex -3.3 -0.55 0
vertex -3.3 -0.55 0.25
endloop
endfacet
facet normal 1 0 0
outer loop
vertex 3.3 -0.85 0.25
vertex 3.3 -0.55 0
vertex 3.3 -0.55 0.25
endloop
endfacet
facet normal 1 0 0
outer loop
vertex 3.3 -0.55 0
vertex 3.3 -0.85 0.25
vertex 3.3 -0.85 0
endloop
endfacet
facet normal 0 0 1
outer loop
vertex 2.25 -0.55 0.25
vertex 3.3 -0.85 0.25
vertex 3.3 -0.55 0.25
endloop
endfacet
facet normal 0 0 1
outer loop
vertex 2.25 -0.55 0.25
vertex 2.25 -0.85 0.25
vertex 3.3 -0.85 0.25
endloop
endfacet
facet normal 0 0 1
outer loop
vertex -2.25 -0.55 0.25
vertex 2.25 -0.85 0.25
vertex 2.25 -0.55 0.25
endloop
endfacet
facet normal 0 0 1
outer loop
vertex -2.25 -0.55 0.25
vertex -2.25 -0.85 0.25
vertex 2.25 -0.85 0.25
endloop
endfacet
facet normal 0 0 1
outer loop
vertex -3.3 -0.55 0.25
vertex -2.25 -0.85 0.25
vertex -2.25 -0.55 0.25
endloop
endfacet
facet normal 0 0 1
outer loop
vertex -2.25 -0.85 0.25
vertex -3.3 -0.55 0.25
vertex -3.3 -0.85 0.25
endloop
endfacet
facet normal 0 0 -1
outer loop
vertex 2.25 -0.85 0
vertex 3.3 -0.55 0
vertex 3.3 -0.85 0
endloop
endfacet
facet normal 0 0 -1
outer loop
vertex 2.25 -0.85 0
vertex 2.25 -0.55 0
vertex 3.3 -0.55 0
endloop
endfacet
facet normal 0 0 -1
outer loop
vertex -2.25 -0.85 0
vertex 2.25 -0.55 0
vertex 2.25 -0.85 0
endloop
endfacet
facet normal 0 0 -1
outer loop
vertex -2.25 -0.85 0
vertex -2.25 -0.55 0
vertex 2.25 -0.55 0
endloop
endfacet
facet normal 0 0 -1
outer loop
vertex -3.3 -0.85 0
vertex -2.25 -0.55 0
vertex -2.25 -0.85 0
endloop
endfacet
facet normal 0 0 -1
outer loop
vertex -2.25 -0.55 0
vertex -3.3 -0.85 0
vertex -3.3 -0.55 0
endloop
endfacet
facet normal 0 -1 0
outer loop
vertex 2.25 -0.2 0.25
vertex 3.3 -0.2 0
vertex 3.3 -0.2 0.25
endloop
endfacet
facet normal 0 -1 0
outer loop
vertex 2.25 -0.2 0.25
vertex 2.25 -0.2 0
vertex 3.3 -0.2 0
endloop
endfacet
facet normal 0 -1 0
outer loop
vertex -2.25 -0.2 0.25
vertex 2.25 -0.2 0
vertex 2.25 -0.2 0.25
endloop
endfacet
facet normal 0 -1 0
outer loop
vertex -2.25 -0.2 0.25
vertex -2.25 -0.2 0
vertex 2.25 -0.2 0
endloop
endfacet
facet normal 0 -1 0
outer loop
vertex -3.3 -0.2 0.25
vertex -2.25 -0.2 0
vertex -2.25 -0.2 0.25
endloop
endfacet
facet normal 0 -1 0
outer loop
vertex -2.25 -0.2 0
vertex -3.3 -0.2 0.25
vertex -3.3 -0.2 0
endloop
endfacet
facet normal -1 0 0
outer loop
vertex -3.3 -0.2 0
vertex -3.3 0.1 0.25
vertex -3.3 0.1 0
endloop
endfacet
facet normal -1 0 0
outer loop
vertex -3.3 0.1 0.25
vertex -3.3 -0.2 0
vertex -3.3 -0.2 0.25
endloop
endfacet
facet normal 0 1 0
outer loop
vertex 2.25 0.1 0
vertex 3.3 0.1 0.25
vertex 3.3 0.1 0
endloop
endfacet
facet normal 0 1 0
outer loop
vertex 2.25 0.1 0
vertex 2.25 0.1 0.25
vertex 3.3 0.1 0.25
endloop
endfacet
facet normal 0 1 0
outer loop
vertex -2.25 0.1 0
vertex 2.25 0.1 0.25
vertex 2.25 0.1 0
endloop
endfacet
facet normal 0 1 0
outer loop
vertex -2.25 0.1 0
vertex -2.25 0.1 0.25
vertex 2.25 0.1 0.25
endloop
endfacet
facet normal 0 1 0
outer loop
vertex -3.3 0.1 0
vertex -2.25 0.1 0.25
vertex -2.25 0.1 0
endloop
endfacet
facet normal 0 1 0
outer loop
vertex -2.25 0.1 0.25
vertex -3.3 0.1 0
vertex -3.3 0.1 0.25
endloop
endfacet
facet normal 1 0 0
outer loop
vertex 3.3 -0.2 0.25
vertex 3.3 0.1 0
vertex 3.3 0.1 0.25
endloop
endfacet
facet normal 1 0 0
outer loop
vertex 3.3 0.1 0
vertex 3.3 -0.2 0.25
vertex 3.3 -0.2 0
endloop
endfacet
facet normal 0 0 1
outer loop
vertex 2.25 0.1 0.25
vertex 3.3 -0.2 0.25
vertex 3.3 0.1 0.25
endloop
endfacet
facet normal 0 0 1
outer loop
vertex 2.25 0.1 0.25
vertex 2.25 -0.2 0.25
vertex 3.3 -0.2 0.25
endloop
endfacet
facet normal 0 0 1
outer loop
vertex -2.25 0.1 0.25
vertex 2.25 -0.2 0.25
vertex 2.25 0.1 0.25
endloop
endfacet
facet normal 0 0 1
outer loop
vertex -2.25 0.1 0.25
vertex -2.25 -0.2 0.25
vertex 2.25 -0.2 0.25
endloop
endfacet
facet normal 0 0 1
outer loop
vertex -3.3 0.1 0.25
vertex -2.25 -0.2 0.25
vertex -2.25 0.1 0.25
endloop
endfacet
facet normal 0 0 1
outer loop
vertex -2.25 -0.2 0.25
vertex -3.3 0.1 0.25
vertex -3.3 -0.2 0.25
endloop
endfacet
facet normal 0 0 -1
outer loop
vertex 2.25 -0.2 0
vertex 3.3 0.1 0
vertex 3.3 -0.2 0
endloop
endfacet
facet normal 0 0 -1
outer loop
vertex 2.25 -0.2 0
vertex 2.25 0.1 0
vertex 3.3 0.1 0
endloop
endfacet
facet normal 0 0 -1
outer loop
vertex -2.25 -0.2 0
vertex 2.25 0.1 0
vertex 2.25 -0.2 0
endloop
endfacet
facet normal 0 0 -1
outer loop
vertex -2.25 -0.2 0
vertex -2.25 0.1 0
vertex 2.25 0.1 0
endloop
endfacet
facet normal 0 0 -1
outer loop
vertex -3.3 -0.2 0
vertex -2.25 0.1 0
vertex -2.25 -0.2 0
endloop
endfacet
facet normal 0 0 -1
outer loop
vertex -2.25 0.1 0
vertex -3.3 -0.2 0
vertex -3.3 0.1 0
endloop
endfacet
facet normal 0 -1 0
outer loop
vertex 2.25 0.45 0.25
vertex 3.3 0.45 0
vertex 3.3 0.45 0.25
endloop
endfacet
facet normal 0 -1 0
outer loop
vertex 2.25 0.45 0.25
vertex 2.25 0.45 0
vertex 3.3 0.45 0
endloop
endfacet
facet normal 0 -1 0
outer loop
vertex -2.25 0.45 0.25
vertex 2.25 0.45 0
vertex 2.25 0.45 0.25
endloop
endfacet
facet normal 0 -1 0
outer loop
vertex -2.25 0.45 0.25
vertex -2.25 0.45 0
vertex 2.25 0.45 0
endloop
endfacet
facet normal 0 -1 0
outer loop
vertex -3.3 0.45 0.25
vertex -2.25 0.45 0
vertex -2.25 0.45 0.25
endloop
endfacet
facet normal 0 -1 0
outer loop
vertex -2.25 0.45 0
vertex -3.3 0.45 0.25
vertex -3.3 0.45 0
endloop
endfacet
facet normal -1 0 0
outer loop
vertex -3.3 0.45 0
vertex -3.3 0.75 0.25
vertex -3.3 0.75 0
endloop
endfacet
facet normal -1 0 0
outer loop
vertex -3.3 0.75 0.25
vertex -3.3 0.45 0
vertex -3.3 0.45 0.25
endloop
endfacet
facet normal 0 1 0
outer loop
vertex 2.25 0.75 0
vertex 3.3 0.75 0.25
vertex 3.3 0.75 0
endloop
endfacet
facet normal 0 1 0
outer loop
vertex 2.25 0.75 0
vertex 2.25 0.75 0.25
vertex 3.3 0.75 0.25
endloop
endfacet
facet normal 0 1 0
outer loop
vertex -2.25 0.75 0
vertex 2.25 0.75 0.25
vertex 2.25 0.75 0
endloop
endfacet
facet normal 0 1 0
outer loop
vertex -2.25 0.75 0
vertex -2.25 0.75 0.25
vertex 2.25 0.75 0.25
endloop
endfacet
facet normal 0 1 0
outer loop
vertex -3.3 0.75 0
vertex -2.25 0.75 0.25
vertex -2.25 0.75 0
endloop
endfacet
facet normal 0 1 0
outer loop
vertex -2.25 0.75 0.25
vertex -3.3 0.75 0
vertex -3.3 0.75 0.25
endloop
endfacet
facet normal 1 0 0
outer loop
vertex 3.3 0.45 0.25
vertex 3.3 0.75 0
vertex 3.3 0.75 0.25
endloop
endfacet
facet normal 1 0 0
outer loop
vertex 3.3 0.75 0
vertex 3.3 0.45 0.25
vertex 3.3 0.45 0
endloop
endfacet
facet normal 0 0 1
outer loop
vertex 2.25 0.75 0.25
vertex 3.3 0.45 0.25
vertex 3.3 0.75 0.25
endloop
endfacet
facet normal 0 0 1
outer loop
vertex 2.25 0.75 0.25
vertex 2.25 0.45 0.25
vertex 3.3 0.45 0.25
endloop
endfacet
facet normal 0 0 1
outer loop
vertex -2.25 0.75 0.25
vertex 2.25 0.45 0.25
vertex 2.25 0.75 0.25
endloop
endfacet
facet normal 0 0 1
outer loop
vertex -2.25 0.75 0.25
vertex -2.25 0.45 0.25
vertex 2.25 0.45 0.25
endloop
endfacet
facet normal 0 0 1
outer loop
vertex -3.3 0.75 0.25
vertex -2.25 0.45 0.25
vertex -2.25 0.75 0.25
endloop
endfacet
facet normal 0 0 1
outer loop
vertex -2.25 0.45 0.25
vertex -3.3 0.75 0.25
vertex -3.3 0.45 0.25
endloop
endfacet
facet normal 0 0 -1
outer loop
vertex 2.25 0.45 0
vertex 3.3 0.75 0
vertex 3.3 0.45 0
endloop
endfacet
facet normal 0 0 -1
outer loop
vertex 2.25 0.45 0
vertex 2.25 0.75 0
vertex 3.3 0.75 0
endloop
endfacet
facet normal 0 0 -1
outer loop
vertex -2.25 0.45 0
vertex 2.25 0.75 0
vertex 2.25 0.45 0
endloop
endfacet
facet normal 0 0 -1
outer loop
vertex -2.25 0.45 0
vertex -2.25 0.75 0
vertex 2.25 0.75 0
endloop
endfacet
facet normal 0 0 -1
outer loop
vertex -3.3 0.45 0
vertex -2.25 0.75 0
vertex -2.25 0.45 0
endloop
endfacet
facet normal 0 0 -1
outer loop
vertex -2.25 0.75 0
vertex -3.3 0.45 0
vertex -3.3 0.75 0
endloop
endfacet
facet normal 0 -1 0
outer loop
vertex -3.3 -4.1 0.25
vertex 3.3 -4.1 0
vertex 3.3 -4.1 0.25
endloop
endfacet
facet normal 0 -1 0
outer loop
vertex 3.3 -4.1 0
vertex -3.3 -4.1 0.25
vertex -3.3 -4.1 0
endloop
endfacet
facet normal -1 0 0
outer loop
vertex -3.3 -4.1 0
vertex -3.3 -3.8 0.25
vertex -3.3 -3.8 0
endloop
endfacet
facet normal -1 0 0
outer loop
vertex -3.3 -3.8 0.25
vertex -3.3 -4.1 0
vertex -3.3 -4.1 0.25
endloop
endfacet
facet normal 0 1 0
outer loop
vertex 2.25 -3.8 0
vertex 3.3 -3.8 0.25
vertex 3.3 -3.8 0
endloop
endfacet
facet normal 0 1 0
outer loop
vertex 2.25 -3.8 0
vertex 2.25 -3.8 0.25
vertex 3.3 -3.8 0.25
endloop
endfacet
facet normal 0 1 0
outer loop
vertex -2.25 -3.8 0
vertex 2.25 -3.8 0.25
vertex 2.25 -3.8 0
endloop
endfacet
facet normal 0 1 0
outer loop
vertex -2.25 -3.8 0
vertex -2.25 -3.8 0.25
vertex 2.25 -3.8 0.25
endloop
endfacet
facet normal 0 1 0
outer loop
vertex -3.3 -3.8 0
vertex -2.25 -3.8 0.25
vertex -2.25 -3.8 0
endloop
endfacet
facet normal 0 1 0
outer loop
vertex -2.25 -3.8 0.25
vertex -3.3 -3.8 0
vertex -3.3 -3.8 0.25
endloop
endfacet
facet normal 1 0 0
outer loop
vertex 3.3 -4.1 0.25
vertex 3.3 -3.8 0
vertex 3.3 -3.8 0.25
endloop
endfacet
facet normal 1 0 0
outer loop
vertex 3.3 -3.8 0
vertex 3.3 -4.1 0.25
vertex 3.3 -4.1 0
endloop
endfacet
facet normal 0 0 1
outer loop
vertex 2.25 -3.8 0.25
vertex 3.3 -4.1 0.25
vertex 3.3 -3.8 0.25
endloop
endfacet
facet normal 0 0 1
outer loop
vertex -2.25 -3.8 0.25
vertex 3.3 -4.1 0.25
vertex 2.25 -3.8 0.25
endloop
endfacet
facet normal 0 0 1
outer loop
vertex -3.3 -3.8 0.25
vertex 3.3 -4.1 0.25
vertex -2.25 -3.8 0.25
endloop
endfacet
facet normal 0 0 1
outer loop
vertex 3.3 -4.1 0.25
vertex -3.3 -3.8 0.25
vertex -3.3 -4.1 0.25
endloop
endfacet
facet normal 0 0 -1
outer loop
vertex 3.3 -4.1 0
vertex 2.25 -3.8 0
vertex 3.3 -3.8 0
endloop
endfacet
facet normal 0 0 -1
outer loop
vertex 3.3 -4.1 0
vertex -2.25 -3.8 0
vertex 2.25 -3.8 0
endloop
endfacet
facet normal 0 0 -1
outer loop
vertex -3.3 -4.1 0
vertex -2.25 -3.8 0
vertex 3.3 -4.1 0
endloop
endfacet
facet normal 0 0 -1
outer loop
vertex -2.25 -3.8 0
vertex -3.3 -4.1 0
vertex -3.3 -3.8 0
endloop
endfacet
facet normal 0 -1 0
outer loop
vertex 2.25 1.1 0.25
vertex 3.3 1.1 0
vertex 3.3 1.1 0.25
endloop
endfacet
facet normal 0 -1 0
outer loop
vertex 2.25 1.1 0.25
vertex 2.25 1.1 0
vertex 3.3 1.1 0
endloop
endfacet
facet normal 0 -1 0
outer loop
vertex -2.25 1.1 0.25
vertex 2.25 1.1 0
vertex 2.25 1.1 0.25
endloop
endfacet
facet normal 0 -1 0
outer loop
vertex -2.25 1.1 0.25
vertex -2.25 1.1 0
vertex 2.25 1.1 0
endloop
endfacet
facet normal 0 -1 0
outer loop
vertex -3.3 1.1 0.25
vertex -2.25 1.1 0
vertex -2.25 1.1 0.25
endloop
endfacet
facet normal 0 -1 0
outer loop
vertex -2.25 1.1 0
vertex -3.3 1.1 0.25
vertex -3.3 1.1 0
endloop
endfacet
facet normal -1 0 0
outer loop
vertex -3.3 1.1 0
vertex -3.3 1.4 0.25
vertex -3.3 1.4 0
endloop
endfacet
facet normal -1 0 0
outer loop
vertex -3.3 1.4 0.25
vertex -3.3 1.1 0
vertex -3.3 1.1 0.25
endloop
endfacet
facet normal 0 1 0
outer loop
vertex 2.25 1.4 0
vertex 3.3 1.4 0.25
vertex 3.3 1.4 0
endloop
endfacet
facet normal 0 1 0
outer loop
vertex 2.25 1.4 0
vertex 2.25 1.4 0.25
vertex 3.3 1.4 0.25
endloop
endfacet
facet normal 0 1 0
outer loop
vertex -2.25 1.4 0
vertex 2.25 1.4 0.25
vertex 2.25 1.4 0
endloop
endfacet
facet normal 0 1 0
outer loop
vertex -2.25 1.4 0
vertex -2.25 1.4 0.25
vertex 2.25 1.4 0.25
endloop
endfacet
facet normal 0 1 0
outer loop
vertex -3.3 1.4 0
vertex -2.25 1.4 0.25
vertex -2.25 1.4 0
endloop
endfacet
facet normal 0 1 0
outer loop
vertex -2.25 1.4 0.25
vertex -3.3 1.4 0
vertex -3.3 1.4 0.25
endloop
endfacet
facet normal 1 0 0
outer loop
vertex 3.3 1.1 0.25
vertex 3.3 1.4 0
vertex 3.3 1.4 0.25
endloop
endfacet
facet normal 1 0 0
outer loop
vertex 3.3 1.4 0
vertex 3.3 1.1 0.25
vertex 3.3 1.1 0
endloop
endfacet
facet normal 0 0 1
outer loop
vertex 2.25 1.4 0.25
vertex 3.3 1.1 0.25
vertex 3.3 1.4 0.25
endloop
endfacet
facet normal 0 0 1
outer loop
vertex 2.25 1.4 0.25
vertex 2.25 1.1 0.25
vertex 3.3 1.1 0.25
endloop
endfacet
facet normal 0 0 1
outer loop
vertex -2.25 1.4 0.25
vertex 2.25 1.1 0.25
vertex 2.25 1.4 0.25
endloop
endfacet
facet normal 0 0 1
outer loop
vertex -2.25 1.4 0.25
vertex -2.25 1.1 0.25
vertex 2.25 1.1 0.25
endloop
endfacet
facet normal 0 0 1
outer loop
vertex -3.3 1.4 0.25
vertex -2.25 1.1 0.25
vertex -2.25 1.4 0.25
endloop
endfacet
facet normal 0 0 1
outer loop
vertex -2.25 1.1 0.25
vertex -3.3 1.4 0.25
vertex -3.3 1.1 0.25
endloop
endfacet
facet normal 0 0 -1
outer loop
vertex 2.25 1.1 0
vertex 3.3 1.4 0
vertex 3.3 1.1 0
endloop
endfacet
facet normal 0 0 -1
outer loop
vertex 2.25 1.1 0
vertex 2.25 1.4 0
vertex 3.3 1.4 0
endloop
endfacet
facet normal 0 0 -1
outer loop
vertex -2.25 1.1 0
vertex 2.25 1.4 0
vertex 2.25 1.1 0
endloop
endfacet
facet normal 0 0 -1
outer loop
vertex -2.25 1.1 0
vertex -2.25 1.4 0
vertex 2.25 1.4 0
endloop
endfacet
facet normal 0 0 -1
outer loop
vertex -3.3 1.1 0
vertex -2.25 1.4 0
vertex -2.25 1.1 0
endloop
endfacet
facet normal 0 0 -1
outer loop
vertex -2.25 1.4 0
vertex -3.3 1.1 0
vertex -3.3 1.4 0
endloop
endfacet
facet normal 0 -1 0
outer loop
vertex 2.25 1.75 0.25
vertex 3.3 1.75 0
vertex 3.3 1.75 0.25
endloop
endfacet
facet normal 0 -1 0
outer loop
vertex 2.25 1.75 0.25
vertex 2.25 1.75 0
vertex 3.3 1.75 0
endloop
endfacet
facet normal 0 -1 0
outer loop
vertex -2.25 1.75 0.25
vertex 2.25 1.75 0
vertex 2.25 1.75 0.25
endloop
endfacet
facet normal 0 -1 0
outer loop
vertex -2.25 1.75 0.25
vertex -2.25 1.75 0
vertex 2.25 1.75 0
endloop
endfacet
facet normal 0 -1 0
outer loop
vertex -3.3 1.75 0.25
vertex -2.25 1.75 0
vertex -2.25 1.75 0.25
endloop
endfacet
facet normal 0 -1 0
outer loop
vertex -2.25 1.75 0
vertex -3.3 1.75 0.25
vertex -3.3 1.75 0
endloop
endfacet
facet normal -1 0 0
outer loop
vertex -3.3 1.75 0
vertex -3.3 2.05 0.25
vertex -3.3 2.05 0
endloop
endfacet
facet normal -1 0 0
outer loop
vertex -3.3 2.05 0.25
vertex -3.3 1.75 0
vertex -3.3 1.75 0.25
endloop
endfacet
facet normal 0 1 0
outer loop
vertex 2.25 2.05 0
vertex 3.3 2.05 0.25
vertex 3.3 2.05 0
endloop
endfacet
facet normal 0 1 0
outer loop
vertex 2.25 2.05 0
vertex 2.25 2.05 0.25
vertex 3.3 2.05 0.25
endloop
endfacet
facet normal 0 1 0
outer loop
vertex -2.25 2.05 0
vertex 2.25 2.05 0.25
vertex 2.25 2.05 0
endloop
endfacet
facet normal 0 1 0
outer loop
vertex -2.25 2.05 0
vertex -2.25 2.05 0.25
vertex 2.25 2.05 0.25
endloop
endfacet
facet normal 0 1 0
outer loop
vertex -3.3 2.05 0
vertex -2.25 2.05 0.25
vertex -2.25 2.05 0
endloop
endfacet
facet normal 0 1 0
outer loop
vertex -2.25 2.05 0.25
vertex -3.3 2.05 0
vertex -3.3 2.05 0.25
endloop
endfacet
facet normal 1 0 0
outer loop
vertex 3.3 1.75 0.25
vertex 3.3 2.05 0
vertex 3.3 2.05 0.25
endloop
endfacet
facet normal 1 0 0
outer loop
vertex 3.3 2.05 0
vertex 3.3 1.75 0.25
vertex 3.3 1.75 0
endloop
endfacet
facet normal 0 0 1
outer loop
vertex 3.3 2.05 0.25
vertex 2.25 1.75 0.25
vertex 3.3 1.75 0.25
endloop
endfacet
facet normal 0 0 1
outer loop
vertex 2.25 2.05 0.25
vertex 2.25 1.75 0.25
vertex 3.3 2.05 0.25
endloop
endfacet
facet normal 0 0 1
outer loop
vertex -2.25 2.05 0.25
vertex 2.25 1.75 0.25
vertex 2.25 2.05 0.25
endloop
endfacet
facet normal 0 0 1
outer loop
vertex -2.25 2.05 0.25
vertex -2.25 1.75 0.25
vertex 2.25 1.75 0.25
endloop
endfacet
facet normal 0 0 1
outer loop
vertex -3.3 2.05 0.25
vertex -2.25 1.75 0.25
vertex -2.25 2.05 0.25
endloop
endfacet
facet normal 0 0 1
outer loop
vertex -2.25 1.75 0.25
vertex -3.3 2.05 0.25
vertex -3.3 1.75 0.25
endloop
endfacet
facet normal 0 0 -1
outer loop
vertex 2.25 1.75 0
vertex 3.3 2.05 0
vertex 3.3 1.75 0
endloop
endfacet
facet normal 0 0 -1
outer loop
vertex 2.25 1.75 0
vertex 2.25 2.05 0
vertex 3.3 2.05 0
endloop
endfacet
facet normal 0 0 -1
outer loop
vertex -2.25 1.75 0
vertex 2.25 2.05 0
vertex 2.25 1.75 0
endloop
endfacet
facet normal 0 0 -1
outer loop
vertex -2.25 1.75 0
vertex -2.25 2.05 0
vertex 2.25 2.05 0
endloop
endfacet
facet normal 0 0 -1
outer loop
vertex -3.3 1.75 0
vertex -2.25 2.05 0
vertex -2.25 1.75 0
endloop
endfacet
facet normal 0 0 -1
outer loop
vertex -2.25 2.05 0
vertex -3.3 1.75 0
vertex -3.3 2.05 0
endloop
endfacet
facet normal 0 -1 0
outer loop
vertex 2.25 2.4 0.25
vertex 3.3 2.4 0
vertex 3.3 2.4 0.25
endloop
endfacet
facet normal 0 -1 0
outer loop
vertex 2.25 2.4 0.25
vertex 2.25 2.4 0
vertex 3.3 2.4 0
endloop
endfacet
facet normal 0 -1 0
outer loop
vertex -2.25 2.4 0.25
vertex 2.25 2.4 0
vertex 2.25 2.4 0.25
endloop
endfacet
facet normal 0 -1 0
outer loop
vertex -2.25 2.4 0.25
vertex -2.25 2.4 0
vertex 2.25 2.4 0
endloop
endfacet
facet normal 0 -1 0
outer loop
vertex -3.3 2.4 0.25
vertex -2.25 2.4 0
vertex -2.25 2.4 0.25
endloop
endfacet
facet normal 0 -1 0
outer loop
vertex -2.25 2.4 0
vertex -3.3 2.4 0.25
vertex -3.3 2.4 0
endloop
endfacet
facet normal -1 0 0
outer loop
vertex -3.3 2.4 0
vertex -3.3 2.7 0.25
vertex -3.3 2.7 0
endloop
endfacet
facet normal -1 0 0
outer loop
vertex -3.3 2.7 0.25
vertex -3.3 2.4 0
vertex -3.3 2.4 0.25
endloop
endfacet
facet normal 0 1 0
outer loop
vertex 2.25 2.7 0
vertex 3.3 2.7 0.25
vertex 3.3 2.7 0
endloop
endfacet
facet normal 0 1 0
outer loop
vertex 2.25 2.7 0
vertex 2.25 2.7 0.25
vertex 3.3 2.7 0.25
endloop
endfacet
facet normal 0 1 0
outer loop
vertex -2.25 2.7 0
vertex 2.25 2.7 0.25
vertex 2.25 2.7 0
endloop
endfacet
facet normal 0 1 0
outer loop
vertex -2.25 2.7 0
vertex -2.25 2.7 0.25
vertex 2.25 2.7 0.25
endloop
endfacet
facet normal 0 1 0
outer loop
vertex -3.3 2.7 0
vertex -2.25 2.7 0.25
vertex -2.25 2.7 0
endloop
endfacet
facet normal 0 1 0
outer loop
vertex -2.25 2.7 0.25
vertex -3.3 2.7 0
vertex -3.3 2.7 0.25
endloop
endfacet
facet normal 1 0 0
outer loop
vertex 3.3 2.4 0.25
vertex 3.3 2.7 0
vertex 3.3 2.7 0.25
endloop
endfacet
facet normal 1 0 0
outer loop
vertex 3.3 2.7 0
vertex 3.3 2.4 0.25
vertex 3.3 2.4 0
endloop
endfacet
facet normal 0 0 1
outer loop
vertex 2.25 2.7 0.25
vertex 3.3 2.4 0.25
vertex 3.3 2.7 0.25
endloop
endfacet
facet normal 0 0 1
outer loop
vertex 2.25 2.7 0.25
vertex 2.25 2.4 0.25
vertex 3.3 2.4 0.25
endloop
endfacet
facet normal 0 0 1
outer loop
vertex -2.25 2.7 0.25
vertex 2.25 2.4 0.25
vertex 2.25 2.7 0.25
endloop
endfacet
facet normal 0 0 1
outer loop
vertex -2.25 2.7 0.25
vertex -2.25 2.4 0.25
vertex 2.25 2.4 0.25
endloop
endfacet
facet normal 0 0 1
outer loop
vertex -3.3 2.7 0.25
vertex -2.25 2.4 0.25
vertex -2.25 2.7 0.25
endloop
endfacet
facet normal 0 0 1
outer loop
vertex -2.25 2.4 0.25
vertex -3.3 2.7 0.25
vertex -3.3 2.4 0.25
endloop
endfacet
facet normal 0 0 -1
outer loop
vertex 2.25 2.4 0
vertex 3.3 2.7 0
vertex 3.3 2.4 0
endloop
endfacet
facet normal 0 0 -1
outer loop
vertex 2.25 2.4 0
vertex 2.25 2.7 0
vertex 3.3 2.7 0
endloop
endfacet
facet normal 0 0 -1
outer loop
vertex 2.25 2.4 0
vertex -2.25 2.7 0
vertex 2.25 2.7 0
endloop
endfacet
facet normal 0 0 -1
outer loop
vertex -2.25 2.4 0
vertex -2.25 2.7 0
vertex 2.25 2.4 0
endloop
endfacet
facet normal 0 0 -1
outer loop
vertex -3.3 2.4 0
vertex -2.25 2.7 0
vertex -2.25 2.4 0
endloop
endfacet
facet normal 0 0 -1
outer loop
vertex -2.25 2.7 0
vertex -3.3 2.4 0
vertex -3.3 2.7 0
endloop
endfacet
facet normal 0 -1 0
outer loop
vertex 2.25 3.05 0.25
vertex 3.3 3.05 0
vertex 3.3 3.05 0.25
endloop
endfacet
facet normal 0 -1 0
outer loop
vertex 2.25 3.05 0.25
vertex 2.25 3.05 0
vertex 3.3 3.05 0
endloop
endfacet
facet normal 0 -1 0
outer loop
vertex -2.25 3.05 0.25
vertex 2.25 3.05 0
vertex 2.25 3.05 0.25
endloop
endfacet
facet normal 0 -1 0
outer loop
vertex -2.25 3.05 0.25
vertex -2.25 3.05 0
vertex 2.25 3.05 0
endloop
endfacet
facet normal 0 -1 0
outer loop
vertex -3.3 3.05 0.25
vertex -2.25 3.05 0
vertex -2.25 3.05 0.25
endloop
endfacet
facet normal 0 -1 0
outer loop
vertex -2.25 3.05 0
vertex -3.3 3.05 0.25
vertex -3.3 3.05 0
endloop
endfacet
facet normal -1 0 0
outer loop
vertex -3.3 3.05 0
vertex -3.3 3.35 0.25
vertex -3.3 3.35 0
endloop
endfacet
facet normal -1 0 0
outer loop
vertex -3.3 3.35 0.25
vertex -3.3 3.05 0
vertex -3.3 3.05 0.25
endloop
endfacet
facet normal 0 1 0
outer loop
vertex 2.25 3.35 0
vertex 3.3 3.35 0.25
vertex 3.3 3.35 0
endloop
endfacet
facet normal 0 1 0
outer loop
vertex 2.25 3.35 0
vertex 2.25 3.35 0.25
vertex 3.3 3.35 0.25
endloop
endfacet
facet normal 0 1 0
outer loop
vertex -2.25 3.35 0
vertex 2.25 3.35 0.25
vertex 2.25 3.35 0
endloop
endfacet
facet normal 0 1 0
outer loop
vertex -2.25 3.35 0
vertex -2.25 3.35 0.25
vertex 2.25 3.35 0.25
endloop
endfacet
facet normal 0 1 0
outer loop
vertex -3.3 3.35 0
vertex -2.25 3.35 0.25
vertex -2.25 3.35 0
endloop
endfacet
facet normal 0 1 0
outer loop
vertex -2.25 3.35 0.25
vertex -3.3 3.35 0
vertex -3.3 3.35 0.25
endloop
endfacet
facet normal 1 0 0
outer loop
vertex 3.3 3.05 0.25
vertex 3.3 3.35 0
vertex 3.3 3.35 0.25
endloop
endfacet
facet normal 1 0 0
outer loop
vertex 3.3 3.35 0
vertex 3.3 3.05 0.25
vertex 3.3 3.05 0
endloop
endfacet
facet normal 0 0 1
outer loop
vertex 2.25 3.35 0.25
vertex 3.3 3.05 0.25
vertex 3.3 3.35 0.25
endloop
endfacet
facet normal 0 0 1
outer loop
vertex 2.25 3.35 0.25
vertex 2.25 3.05 0.25
vertex 3.3 3.05 0.25
endloop
endfacet
facet normal 0 0 1
outer loop
vertex -2.25 3.35 0.25
vertex 2.25 3.05 0.25
vertex 2.25 3.35 0.25
endloop
endfacet
facet normal 0 0 1
outer loop
vertex -2.25 3.35 0.25
vertex -2.25 3.05 0.25
vertex 2.25 3.05 0.25
endloop
endfacet
facet normal 0 0 1
outer loop
vertex -3.3 3.35 0.25
vertex -2.25 3.05 0.25
vertex -2.25 3.35 0.25
endloop
endfacet
facet normal 0 0 1
outer loop
vertex -2.25 3.05 0.25
vertex -3.3 3.35 0.25
vertex -3.3 3.05 0.25
endloop
endfacet
facet normal 0 0 -1
outer loop
vertex 2.25 3.05 0
vertex 3.3 3.35 0
vertex 3.3 3.05 0
endloop
endfacet
facet normal 0 0 -1
outer loop
vertex 2.25 3.05 0
vertex 2.25 3.35 0
vertex 3.3 3.35 0
endloop
endfacet
facet normal 0 0 -1
outer loop
vertex 2.25 3.05 0
vertex -2.25 3.35 0
vertex 2.25 3.35 0
endloop
endfacet
facet normal 0 0 -1
outer loop
vertex -2.25 3.05 0
vertex -2.25 3.35 0
vertex 2.25 3.05 0
endloop
endfacet
facet normal 0 0 -1
outer loop
vertex -3.3 3.05 0
vertex -2.25 3.35 0
vertex -2.25 3.05 0
endloop
endfacet
facet normal 0 0 -1
outer loop
vertex -2.25 3.35 0
vertex -3.3 3.05 0
vertex -3.3 3.35 0
endloop
endfacet
endsolid JSxCAD
